<svg width="116" height="35" viewBox="0 0 116 35" fill="none" xmlns="http://www.w3.org/2000/svg">
<path d="M21.7609 7.34512H0.255676V28.8503H21.7609V7.34512ZM20.795 8.311V27.8844H1.22156V8.311H20.795Z" fill="white"/>
<path d="M14.6019 14.6176H7.44302V21.7765H14.6019V14.6176Z" fill="white"/>
<path d="M14.6019 14.5041H7.44302V21.6914H14.6019V14.5041Z" fill="white"/>
<path d="M32.3572 22.4584V2.03271L22.7552 6.94737V8.02689L31.647 3.45314V22.8277L32.3572 22.4584Z" fill="white"/>
<path d="M29.005 18.1119V10.811L25.2551 12.7711V20.0721L29.005 18.1119Z" fill="white"/>
<path d="M46.0216 10.3279L39.5445 24.5037H41.107L42.8115 20.7254H50.709L52.4135 24.5037H54.0044L47.5273 10.3279H46.0216ZM43.3513 19.5038L46.7603 11.8904L50.1693 19.5038H43.3513Z" fill="white"/>
<path d="M58.3509 12.2881C59.2884 11.7768 60.3111 11.5211 61.4474 11.5211C63.1803 11.5211 64.6007 12.0892 65.7371 13.1688L66.6746 12.2029C66.0496 11.5211 65.2826 11.0097 64.3735 10.6688C63.4644 10.3279 62.4701 10.1575 61.3906 10.1575C59.9702 10.1575 58.6634 10.47 57.5271 11.0949C56.3907 11.7199 55.5101 12.5722 54.8567 13.6801C54.2033 14.788 53.8908 16.0096 53.8908 17.3732C53.8908 18.7368 54.2033 19.9584 54.8567 21.0663C55.5101 22.1742 56.3907 23.0265 57.5271 23.6515C58.6634 24.2765 59.9418 24.589 61.3622 24.589C62.3565 24.589 63.3224 24.4469 64.2314 24.1344C65.1405 23.8219 65.9075 23.3674 66.5893 22.7992V17.4016H65.1405V22.1742C64.1178 22.9129 62.8962 23.2822 61.419 23.2822C60.2827 23.2822 59.2316 23.0265 58.3225 22.5151C57.4134 22.0038 56.6748 21.2936 56.1635 20.4129C55.6237 19.5323 55.368 18.5095 55.368 17.4016C55.368 16.2937 55.6237 15.2994 56.1635 14.3903C56.7032 13.5097 57.4134 12.7995 58.3509 12.2881Z" fill="white"/>
<path d="M79.6004 11.1233C78.4641 10.4983 77.2141 10.1858 75.7937 10.1858C74.4017 10.1858 73.1233 10.4983 71.987 11.1233C70.8506 11.7483 69.9415 12.6006 69.3166 13.7085C68.6632 14.8164 68.3507 16.038 68.3507 17.4016C68.3507 18.7652 68.6632 19.9867 69.3166 21.0947C69.97 22.2026 70.8506 23.0549 71.987 23.6798C73.1233 24.3048 74.4017 24.6173 75.7937 24.6173C77.1857 24.6173 78.4641 24.3048 79.6004 23.6798C80.7368 23.0549 81.6174 22.2026 82.2708 21.0947C82.9242 19.9867 83.2367 18.7652 83.2367 17.4016C83.2367 16.038 82.9242 14.8164 82.2708 13.7085C81.6174 12.629 80.7368 11.7483 79.6004 11.1233ZM80.9924 20.4129C80.4811 21.3219 79.7709 22.0037 78.8618 22.5151C77.9527 23.0265 76.93 23.2821 75.8221 23.2821C74.7142 23.2821 73.6915 23.0265 72.7824 22.5151C71.8733 22.0037 71.1631 21.2935 70.6233 20.4129C70.112 19.5038 69.8563 18.5095 69.8563 17.4016C69.8563 16.2937 70.112 15.2994 70.6233 14.3903C71.1347 13.4812 71.8733 12.7994 72.7824 12.2881C73.6915 11.7767 74.7142 11.521 75.8221 11.521C76.93 11.521 77.9527 11.7767 78.8618 12.2881C79.7709 12.7994 80.4811 13.5096 80.9924 14.3903C81.5038 15.2994 81.7595 16.2937 81.7595 17.4016C81.7595 18.5379 81.5038 19.5322 80.9924 20.4129Z" fill="white"/>
<path d="M100.168 10.3279H98.6624V24.5037H100.168V10.3279Z" fill="white"/>
<path d="M109.742 23.2822C108.634 23.2822 107.611 23.0265 106.674 22.5151C105.765 22.0038 105.026 21.2936 104.515 20.4129C104.003 19.5323 103.748 18.5095 103.748 17.4016C103.748 16.2937 104.003 15.2994 104.515 14.3903C105.026 13.5097 105.765 12.7995 106.674 12.2881C107.583 11.7768 108.605 11.5211 109.742 11.5211C111.418 11.5211 112.838 12.0892 113.946 13.1972L114.912 12.2313C114.287 11.5495 113.52 11.0381 112.639 10.6972C111.759 10.3563 110.764 10.1575 109.713 10.1575C108.321 10.1575 107.043 10.47 105.907 11.0949C104.77 11.7199 103.89 12.5722 103.236 13.6801C102.583 14.788 102.27 16.0096 102.27 17.3732C102.27 18.7368 102.583 19.9584 103.236 21.0663C103.89 22.1742 104.77 23.0265 105.878 23.6515C107.015 24.2765 108.265 24.589 109.685 24.589C110.736 24.589 111.702 24.4185 112.611 24.0492C113.52 23.6799 114.259 23.1685 114.884 22.4867L113.918 21.5208C112.838 22.714 111.446 23.2822 109.742 23.2822Z" fill="white"/>
<path d="M93.0092 19.5891H92.9524C93.9183 19.2482 94.6853 18.7084 95.225 17.9698C95.7932 17.2028 96.0773 16.2653 96.0773 15.1574C96.0773 13.6517 95.5659 12.4586 94.5432 11.5779C93.5205 10.7257 92.1001 10.2711 90.282 10.2711H84.9696V24.4469H86.4753V11.5779H90.2536C91.6456 11.5779 92.7251 11.8904 93.4637 12.487C94.2023 13.112 94.5716 13.9926 94.5716 15.129C94.5716 16.2369 94.2023 17.1176 93.4637 17.7426C92.9524 18.1687 92.2706 18.4528 91.4183 18.5948V19.9016L94.6569 24.4469H96.5034L93.0092 19.5891Z" fill="white"/>
</svg>