<svg width="133" height="28" viewBox="0 0 133 28" fill="none" xmlns="http://www.w3.org/2000/svg">
<path d="M11.1628 10.5775C11.1768 10.3854 11.1919 10.1953 11.2079 10.0076C10.0035 9.44335 8.87212 8.98011 7.86129 8.63281L7.67411 9.13397C8.71835 9.49204 9.89978 9.97875 11.1628 10.5775Z" fill="url(#paint0_linear-117414)"/>
<path d="M11.7241 10.2535C11.7088 10.4425 11.6945 10.6339 11.6813 10.8274C12.2703 11.1159 12.875 11.4275 13.4899 11.7606L14.0113 11.4359C13.2316 11.0077 12.4656 10.6124 11.7241 10.2535Z" fill="url(#paint1_linear-129077)"/>
<path d="M3.33033 8.32675C2.59575 9.59907 6.63891 13.3086 12.361 16.6123C13.4892 17.2636 14.5985 17.8506 15.658 18.3635L16.1371 18.2804L15.7008 17.7895C14.7121 17.3053 13.6795 16.756 12.6284 16.1491C9.79075 14.5108 7.38374 12.7797 5.78596 11.3137C4.98379 10.5777 4.40764 9.92852 4.07899 9.40802C3.91434 9.14725 3.82772 8.94345 3.79463 8.79568C3.76239 8.65173 3.78877 8.60227 3.79346 8.59414C3.79817 8.58599 3.82781 8.53842 3.96859 8.49436C4.11311 8.44914 4.33292 8.42225 4.64108 8.43446C5.25617 8.45883 6.10647 8.63318 7.14493 8.95989C7.31704 9.01404 7.49354 9.07212 7.67415 9.13405L7.86132 8.63289C5.45313 7.80551 3.72902 7.6362 3.33033 8.32675Z" fill="url(#paint2_linear-373915)"/>
<path d="M23.5886 20.0228C23.5934 20.0146 23.6197 19.9651 23.5875 19.8212C23.5544 19.6735 23.4678 19.4697 23.3031 19.2089C22.9745 18.6884 22.3983 18.0392 21.5961 17.3032C20.2466 16.065 18.3196 14.6375 16.0435 13.2366V12.6099C21.2163 15.7495 24.7418 19.095 24.0518 20.2902C23.4857 21.2706 20.248 20.5178 16.1741 18.6092L15.8162 18.1599L16.2193 18.0393C17.7007 18.7417 19.0699 19.2898 20.2372 19.657C21.2756 19.9837 22.1259 20.1581 22.741 20.1825C23.0492 20.1947 23.269 20.1678 23.4135 20.1226C23.5542 20.0785 23.5839 20.031 23.5886 20.0228Z" fill="url(#paint3_linear-947498)"/>
<path d="M18.1861 13.9843C18.3456 14.0925 18.5026 14.2006 18.6571 14.3084C19.7657 13.5351 20.7462 12.775 21.5602 12.0634L21.1604 11.7024C20.3321 12.4227 19.3269 13.1963 18.1861 13.9843Z" fill="url(#paint4_linear-512492)"/>
<path d="M18.1861 14.6325C18.0301 14.5247 17.8715 14.4166 17.7105 14.3084C17.1881 14.6595 16.6402 15.0124 16.0702 15.3637V15.9906C16.8121 15.5397 17.52 15.0847 18.1861 14.6325Z" fill="url(#paint5_linear-059247)"/>
<path d="M3.79338 20.023C3.79811 20.0312 3.82781 20.0787 3.96851 20.1227C4.11302 20.168 4.33284 20.1948 4.64099 20.1826C5.25608 20.1583 6.10638 19.9839 7.14484 19.6572C8.89037 19.108 11.0876 18.1543 13.4364 16.8853L13.957 17.2109C8.66356 20.11 4.019 21.4833 3.33024 20.2903C2.76421 19.31 5.035 16.8824 8.72481 14.3086L9.33195 14.1626L9.19579 14.6327C7.84682 15.5645 6.6875 16.4762 5.78587 17.3034C4.9837 18.0394 4.40755 18.6886 4.07891 19.2091C3.91426 19.4698 3.82763 19.6736 3.79454 19.8214C3.76233 19.9653 3.78866 20.0148 3.79338 20.023Z" fill="url(#paint6_linear-861551)"/>
<path d="M24.0517 8.32674C23.3171 7.05442 18.083 8.70112 12.3609 12.0048C11.2327 12.6561 10.1697 13.3233 9.19581 13.9844L8.98436 14.4433L9.67144 14.3085C10.5851 13.6944 11.5772 13.0748 12.6283 12.4679C15.4659 10.8296 18.1687 9.61065 20.2371 8.9599C21.2756 8.63319 22.1259 8.45883 22.741 8.43447C23.0491 8.42226 23.2689 8.44914 23.4134 8.49437C23.5542 8.53842 23.5839 8.586 23.5886 8.59413C23.5933 8.60228 23.6197 8.65174 23.5874 8.79569C23.5543 8.94345 23.4677 9.14726 23.3031 9.40803C22.9744 9.92852 22.3983 10.5777 21.5961 11.3137C21.4569 11.4414 21.3116 11.5711 21.1605 11.7025L21.5602 12.0635C23.4554 10.4066 24.4477 9.01259 24.0517 8.32674Z" fill="url(#paint7_linear-758020)"/>
<path d="M11.0528 15.833C11.0743 16.5934 11.1117 17.3315 11.1634 18.0404C11.3347 17.9592 11.5076 17.8759 11.6818 17.7905C11.6458 17.2637 11.6178 16.7207 11.5983 16.1644C11.4145 16.0542 11.2326 15.9437 11.0528 15.833Z" fill="url(#paint8_linear-417519)"/>
<path d="M11.7247 18.3645C11.5512 18.4484 11.3791 18.5304 11.2085 18.6103C11.5926 23.0927 12.5595 26.273 13.6916 26.273C14.4902 26.273 15.2067 24.6903 15.6943 22.1841H15.1492C15.1173 22.3446 15.0844 22.5009 15.0506 22.6529C14.8143 23.7156 14.5401 24.5392 14.2537 25.084C14.1102 25.357 13.977 25.5339 13.8656 25.6365C13.757 25.7364 13.701 25.7383 13.6916 25.7383C13.6822 25.7383 13.6262 25.7364 13.5176 25.6365C13.4062 25.5339 13.273 25.357 13.1295 25.084C12.8431 24.5392 12.5689 23.7156 12.3326 22.6529C12.067 21.4585 11.8571 19.9986 11.7247 18.3645Z" fill="url(#paint9_linear-816230)"/>
<path d="M16.2198 10.5785V10.5659C16.0524 10.6454 15.8716 10.7433 15.7014 10.8266V10.8284C15.7764 11.9268 15.817 13.0957 15.817 14.3094C15.817 17.3507 15.5622 20.1107 15.1492 22.1841H15.6943C16.1037 20.08 16.3517 17.325 16.3517 14.3094C16.3517 13.0067 16.3054 11.7525 16.2198 10.5785Z" fill="url(#paint10_linear-944205)"/>
<path d="M13.8656 2.98251C13.7571 2.88267 13.7011 2.88073 13.6916 2.88073C13.6822 2.88073 13.6262 2.88262 13.5176 2.98251C13.4062 3.08505 13.273 3.26197 13.1295 3.53495C12.8431 4.07981 12.5689 4.90337 12.3326 5.96606C11.9527 7.67473 11.6868 9.92647 11.5983 12.4546C11.4145 12.5648 11.2326 12.6753 11.0528 12.786C11.2192 6.89811 12.3372 2.34598 13.6916 2.34595C14.8237 2.34595 15.7906 5.52627 16.1747 10.0087L15.9632 10.459L15.6585 10.2545C15.5261 8.62036 15.3162 7.16052 15.0506 5.96606C14.8143 4.90337 14.5401 4.07981 14.2537 3.53495C14.1102 3.26197 13.977 3.08505 13.8656 2.98251Z" fill="url(#paint11_linear-092546)"/>
<g filter="url(#filter0_d-400290)">
<path fill-rule="evenodd" clip-rule="evenodd" d="M8.50008 9.34294C8.26766 9.74551 7.75305 9.88354 7.35067 9.65122C6.94829 9.41891 6.81051 8.90423 7.04294 8.50166C7.27537 8.09908 7.78998 7.96106 8.19236 8.19337C8.59474 8.42568 8.73251 8.94036 8.50008 9.34294Z" fill="white"/>
</g>
<g filter="url(#filter1_d-480569)">
<path fill-rule="evenodd" clip-rule="evenodd" d="M20.5867 12.2978C20.3543 11.8952 20.4921 11.3805 20.8944 11.1482C21.2968 10.9159 21.8114 11.0539 22.0438 11.4565C22.2763 11.8591 22.1385 12.3737 21.7361 12.6061C21.3337 12.8384 20.8191 12.7003 20.5867 12.2978Z" fill="white"/>
</g>
<g filter="url(#filter2_d-951970)">
<path fill-rule="evenodd" clip-rule="evenodd" d="M15.3963 21.2878C14.9315 21.2878 14.5547 21.6645 14.5547 22.1291C14.5547 22.5937 14.9315 22.9704 15.3963 22.9704C15.8612 22.9704 16.238 22.5937 16.238 22.1291C16.238 21.6645 15.8612 21.2878 15.3963 21.2878Z" fill="white"/>
</g>
<path fill-rule="evenodd" clip-rule="evenodd" d="M13.6967 12.8783C12.9096 12.8783 12.2716 13.5163 12.2716 14.3033C12.2716 15.0903 12.9096 15.7283 13.6967 15.7283C14.4837 15.7283 15.1217 15.0903 15.1217 14.3033C15.1217 13.5163 14.4837 12.8783 13.6967 12.8783Z" fill="white"/>
<path d="M44.9635 12.2096C44.5596 9.68208 42.5803 8.20481 40.0816 8.20481C37.0232 8.20481 34.7669 10.4957 34.7669 14.2755C34.7669 18.0552 37.0116 20.3461 40.0816 20.3461C42.6784 20.3461 44.5769 18.7188 44.9635 16.3817L43.1631 16.376C42.8572 17.8879 41.5877 18.7188 40.0931 18.7188C38.0677 18.7188 36.5384 17.1665 36.5384 14.2755C36.5384 11.4075 38.0619 9.83212 40.0989 9.83212C41.605 9.83212 42.8688 10.6804 43.1631 12.2096H44.9635ZM50.5785 20.3635C53.0772 20.3635 54.7103 18.5342 54.7103 15.7931C54.7103 13.0348 53.0772 11.2055 50.5785 11.2055C48.0799 11.2055 46.4468 13.0348 46.4468 15.7931C46.4468 18.5342 48.0799 20.3635 50.5785 20.3635ZM50.5843 18.915C48.9512 18.915 48.1895 17.4897 48.1895 15.7874C48.1895 14.0908 48.9512 12.6482 50.5843 12.6482C52.2058 12.6482 52.9676 14.0908 52.9676 15.7874C52.9676 17.4897 52.2058 18.915 50.5843 18.915ZM63.1644 13.4849C62.8066 12.1057 61.7275 11.2055 59.8117 11.2055C57.8093 11.2055 56.3897 12.2615 56.3897 13.8311C56.3897 15.0891 57.1515 15.9259 58.8134 16.2952L60.3137 16.6241C61.1678 16.8145 61.566 17.1954 61.566 17.7494C61.566 18.4361 60.8331 18.9727 59.7021 18.9727C58.6691 18.9727 58.0055 18.5284 57.7978 17.657L56.1301 17.911C56.4186 19.4806 57.7227 20.3635 59.7136 20.3635C61.8545 20.3635 63.3375 19.2267 63.3375 17.6224C63.3375 16.3702 62.5412 15.5969 60.9139 15.2219L59.5059 14.8987C58.5306 14.6679 58.1094 14.339 58.1151 13.7388C58.1094 13.0579 58.848 12.5732 59.829 12.5732C60.9023 12.5732 61.3986 13.1675 61.6006 13.7619L63.1644 13.4849ZM65.1209 20.1846H66.8463L66.8463 14.7198C66.8463 13.5253 67.683 12.6943 68.664 12.6943C69.6219 12.6943 70.2856 13.3291 70.2856 14.2928L70.2856 20.1846H72.0052L72.0052 14.5352C72.0052 13.4676 72.6573 12.6943 73.7825 12.6943C74.6943 12.6943 75.4445 13.2021 75.4445 14.4024L75.4445 20.1846H77.1699L77.1699 14.2409C77.1699 12.2154 76.0388 11.2055 74.4346 11.2055C73.1593 11.2055 72.2014 11.8172 71.7744 12.7636H71.682C71.2954 11.7941 70.4818 11.2055 69.2988 11.2055C68.1273 11.2055 67.256 11.7884 66.8867 12.7636H66.777L66.777 11.3209H65.1209L65.1209 20.1846ZM83.1023 20.3635C85.6009 20.3635 87.234 18.5342 87.234 15.7931C87.234 13.0348 85.6009 11.2055 83.1023 11.2055C80.6036 11.2055 78.9705 13.0348 78.9705 15.7931C78.9705 18.5342 80.6036 20.3635 83.1023 20.3635ZM83.108 18.915C81.475 18.915 80.7132 17.4897 80.7132 15.7874C80.7132 14.0908 81.475 12.6482 83.108 12.6482C84.7296 12.6482 85.4913 14.0908 85.4913 15.7874C85.4913 17.4897 84.7296 18.915 83.108 18.915ZM95.6882 13.4849C95.3304 12.1057 94.2513 11.2055 92.3354 11.2055C90.333 11.2055 88.9135 12.2615 88.9135 13.8311C88.9135 15.0891 89.6752 15.9259 91.3371 16.2952L92.8375 16.6241C93.6915 16.8145 94.0897 17.1954 94.0897 17.7494C94.0897 18.4361 93.3568 18.9727 92.2258 18.9727C91.1929 18.9727 90.5292 18.5284 90.3215 17.657L88.6538 17.911C88.9423 19.4806 90.2465 20.3635 92.2373 20.3635C94.3782 20.3635 95.8613 19.2267 95.8613 17.6224C95.8613 16.3702 95.0649 15.5969 93.4376 15.2219L92.0296 14.8987C91.0544 14.6679 90.6331 14.339 90.6389 13.7388C90.6331 13.0579 91.3718 12.5732 92.3528 12.5732C93.4261 12.5732 93.9224 13.1675 94.1243 13.7619L95.6882 13.4849ZM101.97 20.1846H103.753L103.753 15.0314H109.645L109.645 20.1846H111.434L111.434 8.36639H109.645L109.645 13.5022H103.753L103.753 8.36639H101.97L101.97 20.1846ZM119.393 16.5087C119.399 18.0148 118.279 18.7304 117.31 18.7304C116.242 18.7304 115.504 17.9571 115.504 16.7511L115.504 11.3209H113.778L113.778 16.9588C113.778 19.1574 114.984 20.3 116.687 20.3C118.02 20.3 118.926 19.596 119.335 18.6496H119.428L119.428 20.1846H121.124L121.124 11.3209H119.393L119.393 16.5087ZM123.467 20.1846H125.152L125.152 18.8054H125.297C125.608 19.3709 126.243 20.3577 127.859 20.3577C130.005 20.3577 131.563 18.6381 131.563 15.7701C131.563 12.8963 129.982 11.2055 127.841 11.2055C126.197 11.2055 125.602 12.2096 125.297 12.7578H125.193L125.193 8.36639H123.467L123.467 20.1846ZM125.158 15.7528C125.158 13.9004 125.966 12.6713 127.472 12.6713C129.036 12.6713 129.821 13.9927 129.821 15.7528C129.821 17.5301 129.013 18.8862 127.472 18.8862C125.989 18.8862 125.158 17.6167 125.158 15.7528Z" fill="#E6E6E6"/>
<defs>
<filter id="filter0_d-400290" x="6.83423" y="7.9848" width="1.87458" height="1.87499" filterUnits="userSpaceOnUse" color-interpolation-filters="sRGB">
<feFlood flood-opacity="0" result="BackgroundImageFix"/>
<feColorMatrix in="SourceAlpha" type="matrix" values="0 0 0 0 0 0 0 0 0 0 0 0 0 0 0 0 0 0 127 0"/>
<feOffset/>
<feGaussianBlur stdDeviation="0.0478826"/>
<feColorMatrix type="matrix" values="0 0 0 0 1 0 0 0 0 1 0 0 0 0 1 0 0 0 0.61 0"/>
<feBlend mode="normal" in2="BackgroundImageFix" result="effect1_dropShadow"/>
<feBlend mode="normal" in="SourceGraphic" in2="effect1_dropShadow" result="shape"/>
</filter>
<filter id="filter1_d-480569" x="20.378" y="10.9396" width="1.87458" height="1.87499" filterUnits="userSpaceOnUse" color-interpolation-filters="sRGB">
<feFlood flood-opacity="0" result="BackgroundImageFix"/>
<feColorMatrix in="SourceAlpha" type="matrix" values="0 0 0 0 0 0 0 0 0 0 0 0 0 0 0 0 0 0 127 0"/>
<feOffset/>
<feGaussianBlur stdDeviation="0.0478826"/>
<feColorMatrix type="matrix" values="0 0 0 0 1 0 0 0 0 1 0 0 0 0 1 0 0 0 0.61 0"/>
<feBlend mode="normal" in2="BackgroundImageFix" result="effect1_dropShadow"/>
<feBlend mode="normal" in="SourceGraphic" in2="effect1_dropShadow" result="shape"/>
</filter>
<filter id="filter2_d-951970" x="14.4589" y="21.1921" width="1.87491" height="1.87409" filterUnits="userSpaceOnUse" color-interpolation-filters="sRGB">
<feFlood flood-opacity="0" result="BackgroundImageFix"/>
<feColorMatrix in="SourceAlpha" type="matrix" values="0 0 0 0 0 0 0 0 0 0 0 0 0 0 0 0 0 0 127 0"/>
<feOffset/>
<feGaussianBlur stdDeviation="0.0478826"/>
<feColorMatrix type="matrix" values="0 0 0 0 1 0 0 0 0 1 0 0 0 0 1 0 0 0 0.61 0"/>
<feBlend mode="normal" in2="BackgroundImageFix" result="effect1_dropShadow"/>
<feBlend mode="normal" in="SourceGraphic" in2="effect1_dropShadow" result="shape"/>
</filter>
<linearGradient id="paint0_linear-117414" x1="7.67412" y1="8.64082" x2="13.106" y2="12.9188" gradientUnits="userSpaceOnUse">
<stop stop-color="white" stop-opacity="0.33"/>
<stop offset="1" stop-color="white" stop-opacity="0"/>
</linearGradient>
<linearGradient id="paint1_linear-129077" x1="7.67412" y1="8.64082" x2="13.106" y2="12.9188" gradientUnits="userSpaceOnUse">
<stop stop-color="white" stop-opacity="0.33"/>
<stop offset="1" stop-color="white" stop-opacity="0"/>
</linearGradient>
<linearGradient id="paint2_linear-373915" x1="15.6959" y1="17.7188" x2="3.23546" y2="9.57677" gradientUnits="userSpaceOnUse">
<stop stop-color="white" stop-opacity="0.81"/>
<stop offset="0.427033" stop-color="white"/>
</linearGradient>
<linearGradient id="paint3_linear-947498" x1="16.0435" y1="18.5744" x2="16.0435" y2="12.5982" gradientUnits="userSpaceOnUse">
<stop offset="0.12411" stop-color="white" stop-opacity="0.81"/>
<stop offset="1" stop-color="white" stop-opacity="0"/>
</linearGradient>
<linearGradient id="paint4_linear-512492" x1="20.7228" y1="12.3842" x2="15.883" y2="15.994" gradientUnits="userSpaceOnUse">
<stop stop-color="white" stop-opacity="0.33"/>
<stop offset="1" stop-color="white" stop-opacity="0"/>
</linearGradient>
<linearGradient id="paint5_linear-059247" x1="20.7228" y1="12.3842" x2="15.883" y2="15.994" gradientUnits="userSpaceOnUse">
<stop stop-color="white" stop-opacity="0.33"/>
<stop offset="1" stop-color="white" stop-opacity="0"/>
</linearGradient>
<linearGradient id="paint6_linear-861551" x1="8.60999" y1="14.176" x2="13.7439" y2="17.4381" gradientUnits="userSpaceOnUse">
<stop offset="0.177288" stop-color="white" stop-opacity="0.81"/>
<stop offset="1" stop-color="white" stop-opacity="0"/>
</linearGradient>
<linearGradient id="paint7_linear-758020" x1="24.1454" y1="6.99644" x2="9.30523" y2="14.4433" gradientUnits="userSpaceOnUse">
<stop offset="0.588765" stop-color="white"/>
<stop offset="1" stop-color="white" stop-opacity="0.81"/>
</linearGradient>
<linearGradient id="paint8_linear-417519" x1="11.2304" y1="26.2618" x2="11.0432" y2="15.3657" gradientUnits="userSpaceOnUse">
<stop offset="0.343565" stop-color="white" stop-opacity="0.33"/>
<stop offset="0.992239" stop-color="white" stop-opacity="0"/>
</linearGradient>
<linearGradient id="paint9_linear-816230" x1="11.2304" y1="26.2618" x2="11.0432" y2="15.3657" gradientUnits="userSpaceOnUse">
<stop offset="0.343565" stop-color="white" stop-opacity="0.33"/>
<stop offset="0.992239" stop-color="white" stop-opacity="0"/>
</linearGradient>
<linearGradient id="paint10_linear-944205" x1="15.161" y1="10.5659" x2="15.161" y2="22.1974" gradientUnits="userSpaceOnUse">
<stop stop-color="white" stop-opacity="0.81"/>
<stop offset="0.575778" stop-color="white"/>
</linearGradient>
<linearGradient id="paint11_linear-092546" x1="16.1771" y1="9.99108" x2="11.0432" y2="12.7853" gradientUnits="userSpaceOnUse">
<stop offset="0.171732" stop-color="white" stop-opacity="0.81"/>
<stop offset="1" stop-color="white" stop-opacity="0"/>
</linearGradient>
</defs>
</svg>