<svg width="109" height="32" viewBox="0 0 109 32" fill="none" xmlns="http://www.w3.org/2000/svg">
<path d="M108.985 13.0225C108.837 13.3488 108.689 13.675 108.555 14.0161C106.79 18.2426 105.026 22.4543 103.261 26.6809C103.216 26.7995 103.157 26.844 103.024 26.844C102.416 26.8292 101.808 26.844 101.155 26.844C101.185 26.755 101.214 26.6957 101.244 26.6215C101.837 25.2127 102.43 23.789 103.024 22.3802C103.068 22.2764 103.068 22.1874 103.024 22.0836C101.822 19.1028 100.636 16.1071 99.4347 13.1263C99.4051 13.067 99.3902 13.0077 99.3606 12.9335C99.4347 12.9335 99.494 12.9187 99.5534 12.9187C100.161 12.9187 100.769 12.9187 101.363 12.9187C101.511 12.9187 101.57 12.9632 101.615 13.0967C102.445 15.3656 103.276 17.6198 104.121 19.8888C104.151 19.9481 104.18 20.0074 104.21 20.1112C104.24 20.0222 104.269 19.9629 104.299 19.9036C105.174 17.6346 106.049 15.3508 106.924 13.0818C106.968 12.9632 107.028 12.9187 107.146 12.9187C107.769 12.9187 108.377 12.9187 109 12.9187C108.985 12.9632 108.985 12.9929 108.985 13.0225Z" fill="white"/>
<path d="M66.883 22.3802C66.2305 22.3802 65.5928 22.3802 64.9255 22.3802C64.9255 19.6812 64.9255 16.997 64.9255 14.3127C64.9106 14.3127 64.9106 14.3127 64.8958 14.3127C64.8068 14.5055 64.7327 14.6835 64.6437 14.8763C63.5463 17.3232 62.4637 19.7702 61.3811 22.2171C61.3218 22.3654 61.2477 22.4099 61.0845 22.3951C60.7583 22.3802 60.4172 22.3802 60.0909 22.3951C59.9723 22.3951 59.8981 22.3506 59.8536 22.2468C58.9787 20.2744 58.0889 18.302 57.2139 16.3296C56.9173 15.6623 56.6207 15.0098 56.2945 14.3424C56.2945 17.0118 56.2945 19.696 56.2945 22.3802C55.6271 22.3802 54.9746 22.3802 54.3221 22.3802C54.3221 18.4058 54.3221 14.4314 54.3221 10.4421C54.4556 10.4421 54.5594 10.4421 54.678 10.4421C55.2119 10.4421 55.7309 10.4421 56.2648 10.4421C56.3983 10.4421 56.4576 10.4866 56.5169 10.6053C57.8664 13.6157 59.216 16.6262 60.5655 19.6367C60.5803 19.6812 60.5951 19.7108 60.6396 19.785C60.6693 19.7108 60.6989 19.6515 60.7286 19.607C62.0633 16.6114 63.4128 13.6157 64.7475 10.6201C64.8068 10.5015 64.8513 10.457 64.9996 10.457C65.578 10.4718 66.1564 10.457 66.7496 10.457C66.8089 10.457 66.8682 10.457 66.9275 10.457C66.883 14.4462 66.883 18.4058 66.883 22.3802Z" fill="white"/>
<path d="M98.9157 18.3315C96.4984 18.3315 94.096 18.3315 91.6638 18.3315C91.6935 18.9247 91.8566 19.4585 92.1977 19.9183C93.1617 21.2233 95.1637 21.1047 95.9645 20.3187C96.1573 20.1259 96.3056 19.8886 96.4687 19.681C96.4984 19.6365 96.5577 19.5772 96.6022 19.5772C97.2844 19.5772 97.9517 19.5772 98.6487 19.5772C98.5153 20.0073 98.3225 20.3928 98.0704 20.7487C97.2844 21.8165 96.2166 22.4097 94.8819 22.5283C93.9476 22.6173 93.0282 22.5432 92.1681 22.1131C90.774 21.4309 89.9881 20.289 89.7211 18.7912C89.5283 17.6493 89.5728 16.5222 90.0474 15.4396C90.7444 13.8825 91.9604 13.0075 93.6511 12.8147C94.6595 12.6961 95.6531 12.7999 96.5725 13.2745C97.9962 14.0011 98.7674 15.1875 98.9157 16.7743C98.9602 17.2192 98.9157 17.679 98.9157 18.1239C98.9453 18.1832 98.9305 18.2425 98.9157 18.3315ZM96.9136 16.9671C96.9581 16.0922 96.5132 15.2617 95.7569 14.8168C94.8078 14.2681 93.8142 14.2532 92.8799 14.8316C92.1087 15.3062 91.7677 16.0625 91.6787 16.9523C93.4434 16.9671 95.1785 16.9671 96.9136 16.9671Z" fill="white"/>
<path d="M35.8737 18.3315C35.9033 19.7848 36.9711 20.986 38.6617 20.897C39.5515 20.8526 40.2485 20.4818 40.6934 19.681C40.723 19.6365 40.7824 19.5772 40.8268 19.5772C41.4942 19.5772 42.1615 19.5772 42.8734 19.5772C42.7844 19.7996 42.7102 19.9924 42.6064 20.1852C41.9094 21.4902 40.8269 22.2614 39.3587 22.4987C38.3651 22.647 37.3863 22.5877 36.4669 22.1724C35.1322 21.5644 34.3017 20.5115 33.9903 19.073C33.7085 17.8273 33.7381 16.5815 34.272 15.3951C34.969 13.8677 36.1851 13.0075 37.8609 12.8147C38.8841 12.6961 39.8777 12.7999 40.7972 13.2745C42.0874 13.9418 42.8437 15.0096 43.0958 16.4332C43.1996 16.9968 43.1848 17.5751 43.1255 18.1535C43.1255 18.2128 43.1107 18.2573 43.0958 18.3315C40.6934 18.3315 38.2761 18.3315 35.8737 18.3315ZM41.1086 16.9671C41.1679 15.5879 40.0557 14.4609 38.6024 14.4312C36.9266 14.3867 35.933 15.6769 35.8885 16.9671C37.6236 16.9671 39.3587 16.9671 41.1086 16.9671Z" fill="white"/>
<path d="M68.4105 17.6642C68.3957 16.4333 68.7071 15.3063 69.5376 14.372C70.5312 13.2597 71.7917 12.7555 73.2747 12.7703C74.8912 12.7852 76.2111 13.3932 77.1898 14.6982C77.8127 15.5287 78.05 16.5075 78.0648 17.5307C78.0796 18.7765 77.783 19.9332 76.9377 20.8823C75.8996 22.0539 74.5649 22.5729 73.0078 22.5433C71.6583 22.5136 70.4867 22.039 69.5673 21.0306C68.8406 20.2298 68.4995 19.2658 68.4105 18.1981C68.3957 18.0201 68.4105 17.8422 68.4105 17.6642ZM76.0776 17.6642C76.0331 17.3083 76.0034 16.9524 75.9293 16.6113C75.6327 15.3359 74.5649 14.4609 73.2896 14.4313C71.9549 14.4016 70.9168 15.2024 70.5609 16.4926C70.3829 17.16 70.3829 17.8273 70.4867 18.4947C70.5905 19.1324 70.8426 19.7107 71.332 20.1556C72.4887 21.2382 74.3425 21.0899 75.3806 19.8294C75.87 19.2214 76.0331 18.465 76.0776 17.6642Z" fill="white"/>
<path d="M81.535 22.38C80.8676 22.38 80.2299 22.38 79.5774 22.38C79.5774 19.2212 79.5774 16.0921 79.5774 12.9333C80.2299 12.9333 80.8676 12.9333 81.535 12.9333C81.535 13.4079 81.535 13.8528 81.535 14.3273C81.7426 14.0752 81.9354 13.8231 82.143 13.6155C82.8252 12.963 83.6705 12.7554 84.5899 12.7554C85.9988 12.7702 87.0814 13.3634 87.7635 14.6239C88.0898 15.2171 88.2233 15.8697 88.2233 16.537C88.2381 18.4352 88.2233 20.3335 88.2233 22.2465C88.2233 22.291 88.2233 22.3207 88.2084 22.38C87.5559 22.38 86.9182 22.38 86.2657 22.38C86.2657 22.3058 86.2657 22.2317 86.2657 22.1575C86.2657 20.4521 86.2805 18.7318 86.2509 17.0264C86.2509 16.6556 86.1767 16.2701 86.0729 15.9141C85.8356 15.1726 85.3018 14.7129 84.5454 14.5498C83.9523 14.4163 83.3591 14.446 82.8103 14.6981C82.054 15.0392 81.6833 15.6769 81.5646 16.4777C81.535 16.7001 81.5201 16.9077 81.5201 17.1302C81.5201 18.806 81.5201 20.4818 81.5201 22.1575C81.535 22.2317 81.535 22.3058 81.535 22.38Z" fill="white"/>
<path d="M51.4599 16.8191C51.4599 17.3678 51.4599 17.9017 51.4599 18.4504C49.5913 18.4504 47.7376 18.4504 45.869 18.4504C45.869 17.9165 45.869 17.3678 45.869 16.8191C47.7228 16.8191 49.5765 16.8191 51.4599 16.8191Z" fill="white"/>
<path d="M0.326324 16.1962C0.355984 15.8551 0.400474 15.514 0.430134 15.1878C0.444964 15.0098 0.444964 14.8467 0.474624 14.6687C0.489454 14.5946 0.533943 14.5204 0.578433 14.476C1.26061 13.7938 2.07626 13.3044 2.95122 12.8892C4.44904 12.1773 6.03584 11.7472 7.68197 11.4655C9.49122 11.154 11.3153 11.0651 13.1394 11.0947C16.2833 11.154 19.3976 11.4951 22.4526 12.2515C24.3063 12.7112 26.0859 13.334 27.7765 14.2535C27.91 14.3277 27.9396 14.387 27.8952 14.5353C27.8358 14.7132 27.7913 14.906 27.732 15.1136C27.5837 15.0395 27.4354 14.9802 27.302 14.9209C25.0923 13.8828 22.7937 13.2006 20.4209 12.7705C18.5375 12.4294 16.6244 12.2663 14.7114 12.1921C13.1839 12.1328 11.6712 12.1032 10.1437 12.207C7.97856 12.3553 5.85789 12.6667 3.82619 13.4823C2.87707 13.8679 1.97245 14.3721 1.23095 15.0988C0.875032 15.4399 0.563603 15.8403 0.370814 16.3C0.355984 16.3297 0.341154 16.3445 0.326324 16.3742C0.326324 16.3149 0.326324 16.2555 0.326324 16.1962Z" fill="white"/>
<path d="M0.326324 18.4651C0.504284 17.6346 1.14197 17.1453 1.75 16.6559C2.71394 15.9144 3.82619 15.4695 4.98292 15.1136C6.3621 14.6983 7.77095 14.4759 9.20945 14.3276C10.6628 14.1793 12.1013 14.1199 13.5546 14.1348C14.7707 14.1496 15.9719 14.2682 17.1583 14.4462C19.101 14.728 21.0141 15.1284 22.8975 15.7216C23.0606 15.7661 23.2089 15.8254 23.3869 15.8847C23.3127 16.1516 23.2534 16.4186 23.1792 16.6855C23.0458 16.6559 22.9271 16.6262 22.7937 16.5817C21.0437 16.122 19.279 15.7512 17.4845 15.5288C16.3426 15.3805 15.1859 15.2619 14.044 15.1877C13.2728 15.1432 12.4869 15.2025 11.7009 15.2322C9.59503 15.336 7.50401 15.5733 5.45748 16.1516C4.25625 16.4927 3.09952 16.9228 2.10592 17.6791C1.75 17.9461 1.42374 18.2723 1.11231 18.6134C0.830542 18.91 0.652583 19.2659 0.504284 19.6663C0.444964 19.3549 0.400474 19.0287 0.341154 18.7172C0.326324 18.6579 0.326324 18.5689 0.326324 18.4651Z" fill="white"/>
<path d="M13.0356 31.8417C12.8576 31.7676 12.6648 31.7231 12.5017 31.6193C12.1903 31.4265 12.1754 31.1744 12.4572 30.9371C12.7241 30.7146 13.0356 30.6553 13.3618 30.6108C14.1775 30.4774 14.9635 30.5663 15.7494 30.8185C16.0905 30.9371 16.402 31.1002 16.5651 31.4561C16.5947 31.5303 16.6244 31.6044 16.6392 31.6638C16.313 31.5303 15.9867 31.3672 15.6456 31.2782C15.1266 31.1447 14.5779 31.1447 14.044 31.2485C13.9847 31.2634 13.9402 31.2782 13.8957 31.293C13.5991 31.3968 13.5101 31.5451 13.5694 31.8566C13.3915 31.8417 13.2135 31.8417 13.0356 31.8417Z" fill="white"/>
<path d="M23.6835 19.1767C23.6093 19.4436 23.55 19.6957 23.4758 19.9478C23.0754 19.844 22.6899 19.7402 22.2894 19.6364C20.7471 19.2508 19.1752 18.9542 17.5884 18.7911C16.3871 18.6725 15.1859 18.5242 13.9995 18.5242C11.6712 18.5093 9.35775 18.6725 7.07395 19.1174C5.79857 19.3695 4.55286 19.6957 3.41096 20.3186C2.90674 20.6004 2.43218 20.9266 2.06143 21.3715C1.69068 21.8164 1.46824 22.3058 1.4979 22.899C1.30511 22.5876 1.21613 22.2465 1.2013 21.8906C1.12715 20.8821 1.61654 20.1406 2.37286 19.5474C3.14402 18.9394 4.04864 18.5983 4.98293 18.3314C6.30279 17.9606 7.65231 17.7382 9.01667 17.6492C10.3662 17.5602 11.7305 17.4861 13.0801 17.4861C16.6096 17.4861 20.065 18.0051 23.4462 19.0581C23.5055 19.0729 23.5648 19.1025 23.6241 19.1174C23.639 19.147 23.6538 19.1619 23.6835 19.1767Z" fill="white"/>
<path d="M3.02538 25.5834C2.31354 24.7381 2.1949 23.6258 3.17368 22.736C3.82619 22.1428 4.62701 21.7869 5.45749 21.52C6.95531 21.0454 8.49762 20.7636 10.0696 20.6302C11.1373 20.5412 12.2051 20.467 13.258 20.4819C16.4761 20.4967 19.6052 21.1047 22.6305 22.2022C22.675 22.217 22.7195 22.2318 22.7788 22.2615C22.7492 22.3801 22.7195 22.5136 22.675 22.6322C22.6454 22.7509 22.6157 22.8843 22.5712 23.0326C22.4081 22.9881 22.2746 22.9436 22.1263 22.8992C20.3616 22.3356 18.5671 21.9649 16.7282 21.7424C15.8533 21.6386 14.9783 21.5348 14.0885 21.52C12.3682 21.5051 10.648 21.5941 8.92769 21.8462C7.53368 22.0539 6.16932 22.3356 4.89395 22.9733C4.6715 23.0771 4.46388 23.2106 4.25626 23.3589C3.3813 23.9669 3.06987 24.5008 3.02538 25.5834Z" fill="white"/>
<path d="M0.889862 12.711C1.0085 12.3106 1.12714 11.8954 1.26061 11.5098C1.29027 11.4356 1.36442 11.3615 1.42374 11.317C2.22456 10.62 3.15884 10.1454 4.13762 9.74502C5.53163 9.16665 6.99979 8.81073 8.48278 8.57346C10.559 8.23237 12.65 8.12856 14.7558 8.18788C16.2388 8.23237 17.6922 8.41033 19.1603 8.64761C21.2069 8.98869 23.2089 9.46325 25.1516 10.1751C25.7152 10.3827 26.2787 10.62 26.8274 10.8573C26.8867 10.8721 26.9312 10.9018 26.9905 10.9462C26.9312 11.139 26.8867 11.3318 26.8274 11.5543C26.4863 11.4208 26.1601 11.3022 25.8486 11.1835C23.639 10.3679 21.37 9.81917 19.0417 9.47808C16.7727 9.15182 14.4889 9.03318 12.1903 9.10733C9.93612 9.18148 7.71163 9.44842 5.56129 10.1306C4.15245 10.5162 2.83258 11.1094 1.66102 12.0288C1.52755 12.1326 1.39408 12.2513 1.27544 12.3699C1.14197 12.4737 1.02333 12.5775 0.889862 12.711Z" fill="white"/>
<path d="M5.13121 28.327C4.50836 27.8821 4.15244 27.0517 4.31557 26.414C4.41938 25.9839 4.70115 25.6725 5.0274 25.4055C5.63543 24.9162 6.33244 24.6196 7.0591 24.3823C8.82386 23.8187 10.6183 23.5963 12.4572 23.5221C14.6669 23.4332 16.832 23.7742 18.9527 24.3081C18.9972 24.323 19.0417 24.3378 19.1158 24.3526C19.0565 24.5751 18.9972 24.7975 18.9379 25.02C18.5523 24.9458 18.1964 24.8865 17.8256 24.8272C16.4168 24.5899 15.0079 24.4861 13.5694 24.5306C12.5313 24.5602 11.4933 24.6196 10.47 24.7085C9.17978 24.8272 7.91924 25.0496 6.74768 25.628C6.3621 25.8208 5.99135 26.0581 5.67992 26.3398C5.11638 26.8589 4.89394 27.5262 5.13121 28.327Z" fill="white"/>
<path d="M23.5352 7.01627C23.4758 7.19423 23.4313 7.37219 23.372 7.56498C23.0309 7.49083 22.7195 7.40185 22.3932 7.3277C20.2132 6.82348 18.0184 6.49722 15.7939 6.39341C13.9105 6.30444 12.042 6.37858 10.1734 6.60103C8.11203 6.85314 6.10999 7.29804 4.22659 8.14335C3.54442 8.45477 2.8919 8.81069 2.26904 9.31491C2.31353 9.22593 2.32836 9.19627 2.34319 9.15178C2.52115 8.87001 2.69911 8.58824 2.86224 8.30647C2.96605 8.12852 3.09952 8.02471 3.26265 7.9209C4.627 7.16457 6.0655 6.66035 7.56332 6.28961C9.52087 5.80022 11.5229 5.5926 13.5398 5.60743C16.8469 5.65192 20.1243 6.00784 23.3275 6.91246C23.3869 6.97178 23.461 6.98661 23.5352 7.01627Z" fill="white"/>
<path d="M4.34523 6.4527C4.73081 6.06713 5.10156 5.68155 5.4723 5.3108C5.54645 5.23665 5.66509 5.20699 5.7689 5.1625C7.14809 4.62862 8.57176 4.2727 10.0103 4.03543C11.775 3.73883 13.5546 3.64985 15.349 3.724C17.8256 3.82781 20.2429 4.25787 22.6009 5.02903C22.764 5.08835 22.942 5.13284 23.1199 5.19216C23.0754 5.37012 23.0309 5.53325 22.9864 5.69638C22.3932 5.54808 21.8 5.38495 21.2217 5.25148C19.1307 4.76209 17.0248 4.48032 14.8745 4.421C12.1606 4.36168 9.47638 4.65828 6.88115 5.4591C6.03584 5.72604 5.20537 6.03747 4.40455 6.43787C4.40455 6.43787 4.38972 6.43787 4.34523 6.4527Z" fill="white"/>
<path d="M19.9315 27.5709C19.887 27.734 19.8573 27.8823 19.8128 28.0455C19.5311 27.9565 19.279 27.8527 19.012 27.7785C17.5884 27.3336 16.1202 27.1112 14.6372 27.1112C13.5843 27.1112 12.5462 27.126 11.4933 27.1853C10.559 27.2447 9.63952 27.4078 8.79421 27.7934C8.5421 27.912 8.30483 28.0603 8.08238 28.2234C7.45952 28.7276 7.29639 29.4395 7.63748 30.1662C7.66714 30.2106 7.68197 30.27 7.6968 30.3293C7.13326 29.8992 6.59938 29.4543 6.56972 28.6683C6.55489 28.2976 6.73285 28.001 6.99979 27.7489C7.42986 27.3188 7.94891 27.0667 8.51244 26.8887C9.5802 26.5476 10.6776 26.3993 11.7899 26.3252C12.9021 26.251 14.0143 26.2511 15.1266 26.3845C16.7282 26.5921 18.2854 26.9332 19.798 27.4968C19.8277 27.5264 19.8722 27.5561 19.9315 27.5709Z" fill="white"/>
<path d="M6.92564 4.08025C7.02945 4.02093 7.13326 3.96161 7.23707 3.88746C8.18619 3.16079 9.29843 2.87902 10.4403 2.65658C11.9975 2.34515 13.5546 2.21168 15.1414 2.24134C16.6689 2.271 18.1816 2.46379 19.6645 2.76039C21.5776 3.14596 23.4462 3.66501 25.2554 4.43617C25.3444 4.48066 25.4334 4.51032 25.5372 4.56964C25.5224 4.64379 25.5075 4.71794 25.4927 4.79209C25.4779 4.86623 25.4482 4.94038 25.4186 5.02936C25.0775 4.91072 24.7512 4.79208 24.425 4.67345C22.3339 3.94678 20.2133 3.35358 18.0333 2.95317C16.2833 2.64175 14.5186 2.58243 12.7538 2.7159C11.0187 2.84936 9.34292 3.19045 7.71163 3.79848C7.44469 3.90229 7.19258 4.0061 6.92564 4.10991C6.92564 4.09508 6.92564 4.09508 6.92564 4.08025Z" fill="white"/>
<path d="M16.9803 29.1723C16.9358 29.3354 16.8914 29.4689 16.8765 29.5727C16.224 29.5134 15.5863 29.4096 14.9635 29.3947C13.7771 29.3502 12.5907 29.3354 11.4339 29.6617C11.1967 29.7358 10.9594 29.8248 10.7518 29.9583C10.3069 30.2252 10.2031 30.6404 10.4107 31.1002C10.47 31.2336 10.5442 31.3523 10.6331 31.5006C10.0399 31.3226 9.52089 31.0853 9.23912 30.5218C9.12048 30.2697 9.16497 30.0176 9.3281 29.7951C9.55055 29.4985 9.86197 29.3058 10.1882 29.1723C10.7666 28.935 11.3895 28.8312 11.9975 28.757C13.6436 28.5494 15.2601 28.6681 16.8617 29.0981C16.8914 29.1426 16.9358 29.1575 16.9803 29.1723Z" fill="white"/>
<path d="M12.3386 1.5144C12.4424 1.45508 12.5462 1.3661 12.65 1.33644C14.2665 0.950867 15.8977 0.861887 17.5587 1.01019C19.7535 1.20298 21.8149 1.82583 23.7576 2.8491C23.8318 2.89359 23.8911 2.96774 23.9504 3.01223C23.8614 2.9974 23.7724 3.01223 23.6983 2.96774C21.3848 1.94447 18.9675 1.38093 16.4465 1.26229C15.0673 1.20298 13.7177 1.29195 12.3682 1.54406C12.3534 1.54406 12.3534 1.52923 12.3386 1.5144Z" fill="white"/>
<path d="M26.1007 20.8232C26.1452 20.6304 26.2045 20.4376 26.249 20.23C26.6346 20.4524 26.9905 20.6452 27.3761 20.8677C27.3168 21.0456 27.2575 21.2088 27.1982 21.3867C26.8126 21.1791 26.4567 21.0011 26.1007 20.8232Z" fill="white"/>
<path d="M24.6622 16.3445C24.9737 16.478 25.2703 16.5966 25.5669 16.7301C25.5224 16.9525 25.4779 17.175 25.4334 17.4271C25.122 17.3233 24.8254 17.2194 24.4991 17.1008C24.5436 16.8635 24.6029 16.6114 24.6622 16.3445Z" fill="white"/>
<path d="M27.6727 11.228C27.999 11.406 28.2956 11.5691 28.5922 11.7471C28.6218 11.7619 28.6515 11.8361 28.6515 11.8805C28.6366 12.014 28.607 12.1475 28.5773 12.2958C28.2511 12.1475 27.9396 11.9992 27.6134 11.8509C27.5837 11.8361 27.5541 11.7619 27.5541 11.7322C27.5837 11.5691 27.6282 11.4208 27.6727 11.228Z" fill="white"/>
<path d="M20.4357 24.7085C20.7471 24.8123 21.0141 24.9161 21.3107 25.0199C21.2365 25.2275 21.1772 25.4055 21.103 25.6131C20.8361 25.5241 20.5692 25.45 20.2874 25.361C20.3319 25.1534 20.3764 24.9458 20.4357 24.7085Z" fill="white"/>
<path d="M24.0394 22.8103C24.247 22.9141 24.425 23.0031 24.6029 23.1069C24.6474 23.1217 24.6771 23.2107 24.6622 23.2552C24.6029 23.4332 24.5436 23.6111 24.4695 23.8039C24.2915 23.7298 24.1135 23.6556 23.9504 23.5666C23.9207 23.5518 23.8911 23.4925 23.8911 23.4628C23.9356 23.2404 23.9801 23.0328 24.0394 22.8103Z" fill="white"/>
<path d="M29.8824 16.3295C29.6451 16.1812 29.4226 16.0477 29.1853 15.8994C29.2298 15.6918 29.2743 15.499 29.3336 15.2617C29.5413 15.4397 29.7489 15.588 29.9417 15.7511C29.9713 15.7808 29.9862 15.8401 29.9713 15.8994C29.9565 16.0329 29.912 16.1663 29.8824 16.3295Z" fill="white"/>
<path d="M20.9844 28.0452C21.2365 28.2231 21.4886 28.3714 21.7111 28.5346C21.7407 28.5494 21.7556 28.6235 21.7407 28.668C21.7111 28.7867 21.6666 28.9053 21.6221 29.0239C21.3848 28.8756 21.1475 28.7422 20.9251 28.5939C20.8954 28.579 20.8806 28.5197 20.8954 28.4752C20.9103 28.3418 20.9548 28.2083 20.9844 28.0452Z" fill="white"/>
<path d="M23.8317 5.42969C24.1283 5.54833 24.3953 5.65214 24.677 5.75595C24.6326 5.90425 24.5881 6.02288 24.5436 6.17118C24.2618 6.0822 23.9949 5.99322 23.7131 5.90425C23.7576 5.75595 23.7873 5.60765 23.8317 5.42969Z" fill="white"/>
<path d="M18.0036 29.4985C18.226 29.6023 18.4188 29.6913 18.6116 29.7951C18.6413 29.81 18.6561 29.8841 18.6561 29.9286C18.6265 30.0324 18.582 30.1362 18.5375 30.2549C18.3447 30.1659 18.1519 30.0769 17.9739 29.9879C17.9443 29.9731 17.9294 29.8989 17.9294 29.8545C17.9294 29.7506 17.9591 29.6468 18.0036 29.4985Z" fill="white"/>
<path d="M24.8995 7.44653C25.1071 7.52068 25.2851 7.58 25.4779 7.65415C25.4334 7.80245 25.4037 7.95075 25.3592 8.11388C25.1665 8.05456 24.9737 8.01007 24.7661 7.95075C24.8105 7.77279 24.855 7.62449 24.8995 7.44653Z" fill="white"/>
<path d="M25.9969 4.7771C26.1749 4.86608 26.338 4.95506 26.516 5.04404C26.4863 5.16268 26.4418 5.28132 26.3973 5.41479C26.2342 5.35547 26.1007 5.31098 25.9673 5.23683C25.9376 5.222 25.8931 5.14785 25.9079 5.10336C25.9376 4.99955 25.9673 4.89574 25.9969 4.7771Z" fill="white"/>
</svg>