<svg width="104" height="34" viewBox="0 0 104 34" fill="none" xmlns="http://www.w3.org/2000/svg">
<path d="M10.2001 24.481L2.48961 25.3465L7.01362 14.8991L2.37721 8.57671L13.6507 7.28976L16.7135 0.253662L23.4237 9.37474L31.1342 8.50927L26.627 18.9061L31.2297 25.1835L20.018 26.4592L16.9102 33.6021L10.2001 24.481ZM13.4034 23.7897C13.1056 23.9359 12.7909 24.0539 12.4649 24.1438L12.1727 24.2281L16.5225 30.1402L18.0679 26.5884L17.7869 26.5547C16.2696 26.3637 14.8871 25.5431 13.9935 24.3124L13.5608 23.7167L13.4034 23.7897ZM11.8917 18.434L15.3985 23.284C16.1122 24.2674 17.2643 24.8575 18.4782 24.8575C18.6187 24.8575 18.7592 24.8519 18.8997 24.835L28.0488 23.7954L24.4072 18.8161C24.2273 18.5689 24.0194 18.3497 23.7834 18.153L23.5698 17.9732L20.9622 23.8628L16.4269 17.8608L11.8917 18.434ZM12.049 12.5219C10.689 12.6624 9.50885 13.5335 8.96372 14.7923L5.28831 23.2727L11.3915 22.5871C11.695 22.5534 11.9928 22.4803 12.2738 22.3792L12.5323 22.2836L8.75578 17.0684L16.2021 16.1242L17.9724 11.8924L12.049 12.5219ZM17.8094 16.8042L20.5688 20.4628L22.2547 16.6581L22.9966 14.9834C23.5529 13.7301 23.39 12.269 22.5807 11.1619L17.1069 3.72113L14.6454 9.37474C14.5218 9.65573 14.4375 9.94797 14.3813 10.2458L14.3363 10.5212L20.7205 9.84681L17.8094 16.8042ZM24.5139 11.0101L24.6207 11.2686C25.2108 12.6848 25.1996 14.2978 24.5814 15.6915L24.2835 16.3659L24.4296 16.467C24.705 16.6525 24.9635 16.866 25.2052 17.1021L25.4244 17.3156L28.3411 10.583L24.5139 11.0101ZM5.56369 9.97606L7.89032 13.1457L8.05892 12.9265C8.9862 11.7239 10.3687 10.9483 11.8636 10.7853L12.5942 10.7066L12.6054 10.5268C12.6279 10.1615 12.6897 9.79623 12.7909 9.43656L12.8752 9.13308L5.56369 9.97606Z" fill="#E6E6E6"/>
<path d="M15.1793 33.7371C10.3349 33.2707 5.99078 30.753 3.14149 26.7629L5.09159 26.5437C5.41193 26.9371 5.75474 27.3192 6.10879 27.6733C8.22187 29.7976 10.8688 31.2307 13.7687 31.8208L15.1793 33.7371Z" fill="#E6E6E6"/>
<path d="M19.2425 31.9332C22.384 31.4274 25.2333 29.955 27.5037 27.679C27.706 27.4767 27.914 27.2575 28.1163 27.0271L30.4822 26.7573C27.6442 30.7418 23.3 33.2651 18.4613 33.7372L19.2425 31.9332Z" fill="#E6E6E6"/>
<path d="M30.9599 22.3174C31.6062 20.6033 31.9322 18.7881 31.9322 16.9279C31.9322 15.2869 31.6737 13.674 31.1679 12.1341L32.1176 9.948C33.1124 12.1454 33.6182 14.4889 33.6182 16.9279C33.6182 19.3613 33.118 21.7048 32.1233 23.8966L30.9599 22.3174Z" fill="#E6E6E6"/>
<path d="M1.5061 23.9247C0.505759 21.7273 -3.05176e-05 19.3726 -3.05176e-05 16.9336C-3.05176e-05 14.4777 0.511379 12.1117 1.52296 9.90308L2.68065 11.4823C2.01751 13.2188 1.68032 15.0509 1.68032 16.9336C1.68032 18.5802 1.93883 20.1987 2.45024 21.7442L1.5061 23.9247Z" fill="#E6E6E6"/>
<path d="M3.21455 6.99763C6.05821 3.07495 10.3743 0.585342 15.1737 0.124512L14.3869 1.92849C11.2454 2.43428 8.38485 3.90669 6.11441 6.18837C5.94582 6.36258 5.7716 6.54242 5.59738 6.73349L3.21455 6.99763Z" fill="#E6E6E6"/>
<path d="M28.5265 7.31797C28.2006 6.91895 27.8577 6.54242 27.5037 6.18275C25.3962 4.06405 22.7493 2.63098 19.855 2.04089L18.4501 0.124512C23.2832 0.590962 27.6273 3.10867 30.471 7.09879L28.5265 7.31797Z" fill="#E6E6E6"/>
<path d="M101.078 22.4281C99.467 22.4281 98.1627 21.1174 98.1627 19.5126V15.037H96.3533V13.4258H98.1627V11.7634H99.7739V13.4258H102.792V15.037H99.7739V19.5126C99.7739 20.2351 100.362 20.8233 101.085 20.8233H102.491C103.322 20.8233 104 21.5011 104 22.3322V22.4345H101.078V22.4281Z" fill="#E6E6E6"/>
<path d="M43.2215 11.7634H41.6103V22.4281H43.2215V11.7634Z" fill="#E6E6E6"/>
<path d="M58.9181 11.7634H57.3068V22.4281H58.9181V11.7634Z" fill="#E6E6E6"/>
<path d="M60.9321 22.4281V22.3322C60.9321 21.5011 61.6098 20.8233 62.441 20.8233H67.9268C68.3296 20.8233 68.7069 20.6635 68.9818 20.3694C69.2631 20.0753 69.4038 19.6916 69.3846 19.2888C69.3462 18.5088 68.6877 17.9014 67.8885 17.9014H64.0011C63.1635 17.9014 62.3835 17.5689 61.8017 16.9743C61.2198 16.3733 60.9129 15.5869 60.9321 14.7493C60.9769 13.1061 62.3835 11.7634 64.065 11.7634H70.235V11.8657C70.235 12.6969 69.5572 13.3746 68.726 13.3746H63.9947C63.5919 13.3746 63.2147 13.5345 62.9397 13.8286C62.6584 14.1227 62.5177 14.5063 62.5369 14.9091C62.5753 15.6892 63.2338 16.2966 64.0331 16.2966H67.9204C68.758 16.2966 69.538 16.629 70.1199 17.2237C70.7017 17.8247 71.0086 18.6111 70.9894 19.4487C70.9447 21.0919 69.538 22.4345 67.8565 22.4345H60.9321V22.4281Z" fill="#E6E6E6"/>
<path d="M54.1547 22.4281C53.6305 22.4281 53.1445 22.1916 52.8184 21.7888L49.9541 18.2019H47.9464V18.0996C47.9464 17.2684 48.6242 16.5907 49.4554 16.5907H52.0704C52.9591 16.5907 53.6816 15.8682 53.6816 14.9795V13.7711C53.6816 13.5473 53.5026 13.3682 53.2788 13.3682H47.2431C47.0194 13.3682 46.8403 13.5473 46.8403 13.7711V22.4281H45.2355V12.8695C45.2355 12.2621 45.7342 11.7634 46.3416 11.7634H54.1931C54.8005 11.7634 55.2992 12.2621 55.2992 12.8695V14.9859C55.2992 16.5587 54.1292 17.927 52.5755 18.1699L52.4029 18.1955L55.7915 22.4345H54.1547V22.4281Z" fill="#E6E6E6"/>
<path d="M87.5939 22.4281C85.9827 22.4281 84.6784 21.1174 84.6784 19.5126V16.3413C84.6784 14.7301 85.9891 13.4258 87.5939 13.4258H91.8202C92.613 13.4258 93.3546 13.7391 93.9109 14.3081C94.4672 14.8772 94.7549 15.6316 94.7357 16.4244C94.6909 17.9909 93.3546 19.2632 91.7562 19.2632H86.8906V19.1609C86.8906 18.3298 87.5683 17.652 88.3995 17.652H91.7882C92.4787 17.652 93.0605 17.1341 93.1245 16.4692C93.1564 16.0984 93.0414 15.7403 92.792 15.4654C92.5426 15.1904 92.191 15.037 91.8265 15.037H87.6003C86.8778 15.037 86.2896 15.6252 86.2896 16.3477V19.519C86.2896 20.2415 86.8778 20.8297 87.6003 20.8297H93.2332C94.0643 20.8297 94.7421 21.5074 94.7421 22.3386V22.4409H87.5939V22.4281Z" fill="#E6E6E6"/>
<path d="M82.9649 22.4283C82.1337 22.4283 81.4559 21.7506 81.4559 20.9194V16.642C81.4559 15.8364 80.8038 15.1842 79.9982 15.1842H75.0175C74.7937 15.1842 74.6147 15.3632 74.6147 15.587V22.4283H73.0034V14.6791C73.0034 14.0717 73.5022 13.573 74.1096 13.573H79.9982C81.6925 13.573 83.0672 14.9476 83.0672 16.642V22.4283H82.9649Z" fill="#E6E6E6"/>
</svg>