<svg width="150" height="21" viewBox="0 0 150 21" fill="none" xmlns="http://www.w3.org/2000/svg">
<g clip-path="url(#clip0-481072)">
<path d="M27.8543 8.81569V11.5357H31.7087V14.0643H27.8543V17.0142H32.8156V19.6385H24.5788V6.19141H32.8156V8.81569H27.8543Z" fill="white"/>
<path d="M43.7764 19.5579L41.2457 14.4817H39.9283V19.5579H36.6527V6.11084H42.1503C43.2103 6.11084 44.1105 6.29601 44.8512 6.66635C45.6047 7.03668 46.1665 7.54749 46.5369 8.19877C46.9072 8.83729 47.0924 9.55241 47.0924 10.3442C47.0924 11.2381 46.837 12.0363 46.3262 12.7386C45.8282 13.441 45.0874 13.939 44.1041 14.2327L47.2073 19.5579H43.7764ZM39.9283 12.1639H41.9588C42.559 12.1639 43.0059 12.017 43.2996 11.7234C43.6061 11.4297 43.7594 11.0146 43.7594 10.4783C43.7594 9.96745 43.6061 9.56519 43.2996 9.27148C43.0059 8.97776 42.559 8.83091 41.9588 8.83091H39.9283V12.1639Z" fill="white"/>
<path d="M55.3672 19.7729C54.3839 19.7729 53.5027 19.6133 52.7237 19.294C51.9447 18.9748 51.3191 18.5024 50.8465 17.8766C50.3867 17.2508 50.1442 16.4974 50.1187 15.6162H53.6049C53.656 16.1143 53.8284 16.4974 54.1221 16.7656C54.4158 17.0209 54.7989 17.1487 55.2714 17.1487C55.7566 17.1487 56.1397 17.0402 56.4208 16.8231C56.7017 16.5931 56.8421 16.2803 56.8421 15.8844C56.8421 15.5524 56.7272 15.2778 56.4973 15.0607C56.2803 14.8436 56.0057 14.6649 55.6737 14.5243C55.3544 14.3839 54.8946 14.2243 54.2944 14.0454C53.4261 13.7774 52.7173 13.5092 52.1682 13.241C51.6191 12.9728 51.1466 12.5769 50.7507 12.0534C50.3549 11.5297 50.1569 10.8465 50.1569 10.0037C50.1569 8.75223 50.6103 7.7753 51.5169 7.07294C52.4236 6.35781 53.6049 6.00024 55.0606 6.00024C56.5421 6.00024 57.7361 6.35781 58.6427 7.07294C59.5494 7.7753 60.0347 8.75861 60.0985 10.0229H56.5548C56.5292 9.58868 56.3697 9.25027 56.0759 9.00763C55.7822 8.75223 55.4055 8.62452 54.9457 8.62452C54.5499 8.62452 54.2306 8.73308 53.988 8.95016C53.7453 9.15449 53.624 9.45459 53.624 9.85047C53.624 10.2847 53.8284 10.6231 54.237 10.8657C54.6457 11.1083 55.2842 11.3701 56.1526 11.651C57.021 11.9448 57.7232 12.2257 58.2596 12.4939C58.8087 12.7621 59.2812 13.1516 59.6771 13.6623C60.073 14.1732 60.2709 14.8309 60.2709 15.6354C60.2709 16.4016 60.073 17.0976 59.6771 17.7233C59.294 18.3491 58.7321 18.8471 57.9914 19.2175C57.2508 19.5877 56.3761 19.7729 55.3672 19.7729Z" fill="white"/>
<path d="M67.0948 6.19141V19.6385H63.8192V6.19141H67.0948Z" fill="white"/>
<path d="M75.8669 19.7729C74.8835 19.7729 74.0024 19.6133 73.2234 19.294C72.4445 18.9748 71.8187 18.5024 71.3462 17.8766C70.8865 17.2508 70.6438 16.4974 70.6183 15.6162H74.1046C74.1556 16.1143 74.328 16.4974 74.6218 16.7656C74.9155 17.0209 75.2986 17.1487 75.7711 17.1487C76.2564 17.1487 76.6395 17.0402 76.9204 16.8231C77.2013 16.5931 77.3418 16.2803 77.3418 15.8844C77.3418 15.5524 77.2268 15.2778 76.997 15.0607C76.7799 14.8436 76.5053 14.6649 76.1733 14.5243C75.8541 14.3839 75.3944 14.2243 74.7942 14.0454C73.9258 13.7774 73.2171 13.5092 72.6679 13.241C72.1187 12.9728 71.6463 12.5769 71.2505 12.0534C70.8545 11.5297 70.6566 10.8465 70.6566 10.0037C70.6566 8.75223 71.1099 7.7753 72.0167 7.07294C72.9233 6.35781 74.1046 6.00024 75.5604 6.00024C77.0417 6.00024 78.2357 6.35781 79.1424 7.07294C80.0492 7.7753 80.5343 8.75861 80.5983 10.0229H77.0545C77.029 9.58868 76.8693 9.25027 76.5756 9.00763C76.2819 8.75223 75.9051 8.62452 75.4455 8.62452C75.0495 8.62452 74.7303 8.73308 74.4877 8.95016C74.2451 9.15449 74.1237 9.45459 74.1237 9.85047C74.1237 10.2847 74.328 10.6231 74.7367 10.8657C75.1453 11.1083 75.7839 11.3701 76.6522 11.651C77.5206 11.9448 78.223 12.2257 78.7593 12.4939C79.3084 12.7621 79.781 13.1516 80.1768 13.6623C80.5727 14.1732 80.7706 14.8309 80.7706 15.6354C80.7706 16.4016 80.5727 17.0976 80.1768 17.7233C79.7937 18.3491 79.2319 18.8471 78.4912 19.2175C77.7504 19.5877 76.8757 19.7729 75.8669 19.7729Z" fill="white"/>
<path d="M93.9919 6.19141V8.81569H90.429V19.6385H87.1535V8.81569H83.5905V6.19141H93.9919Z" fill="white"/>
<path d="M100.445 8.81569V11.5357H104.299V14.0643H100.445V17.0142H105.406V19.6385H97.169V6.19141H105.406V8.81569H100.445Z" fill="white"/>
<path d="M121.094 19.6385H117.818L112.339 11.3442V19.6385H109.064V6.19141H112.339L117.818 14.5239V6.19141H121.094V19.6385Z" fill="white"/>
<path d="M124.445 12.8961C124.445 11.5681 124.733 10.3868 125.307 9.35244C125.882 8.30529 126.68 7.49438 127.702 6.91972C128.736 6.3323 129.905 6.03857 131.207 6.03857C132.803 6.03857 134.169 6.45999 135.307 7.30283C136.443 8.14566 137.202 9.29498 137.586 10.7508H133.985C133.716 10.1889 133.333 9.7611 132.835 9.46739C132.35 9.17367 131.794 9.0268 131.169 9.0268C130.16 9.0268 129.343 9.37799 128.717 10.0804C128.091 10.7827 127.778 11.7213 127.778 12.8961C127.778 14.071 128.091 15.0096 128.717 15.712C129.343 16.4144 130.16 16.7656 131.169 16.7656C131.794 16.7656 132.35 16.6187 132.835 16.325C133.333 16.0313 133.716 15.6034 133.985 15.0416H137.586C137.202 16.4974 136.443 17.6467 135.307 18.4895C134.169 19.3196 132.803 19.7346 131.207 19.7346C129.905 19.7346 128.736 19.4473 127.702 18.8726C126.68 18.2853 125.882 17.4743 125.307 16.44C124.733 15.4056 124.445 14.2243 124.445 12.8961Z" fill="white"/>
<path d="M144.399 8.81569V11.5357H148.254V14.0643H144.399V17.0142H149.361V19.6385H141.124V6.19141H149.361V8.81569H144.399Z" fill="white"/>
<path fill-rule="evenodd" clip-rule="evenodd" d="M18.8685 0.166504H1.5865C0.944408 0.166504 0.423889 0.687023 0.423889 1.32911V18.6102C0.423889 19.2523 0.944408 19.7728 1.5865 19.7728H5.05511V6.20508H10.4112C11.4941 6.20508 12.4093 6.39199 13.1569 6.76582C13.9047 7.13965 14.4654 7.65529 14.8392 8.31272C15.213 8.97014 15.3999 9.72425 15.3999 10.5751C15.3999 11.3614 15.2195 12.0833 14.8585 12.7407C14.4976 13.3853 13.9433 13.9073 13.1957 14.3069C12.4479 14.7066 11.5198 14.9064 10.4112 14.9064H8.36159V19.7728H18.8685C19.5105 19.7728 20.0311 19.2523 20.0311 18.6102V1.32911C20.0311 0.687023 19.5105 0.166504 18.8685 0.166504ZM10.1599 12.2766C10.7915 12.2766 11.262 12.1284 11.5714 11.8319C11.8808 11.5354 12.0355 11.1164 12.0355 10.5751C12.0355 10.0336 11.8808 9.61468 11.5714 9.3182C11.262 9.0217 10.7915 8.87346 10.1599 8.87346H8.36159V12.2766H10.1599ZM5.05511 2.76636H15.468V4.95088H5.05511V2.76636Z" fill="white"/>
</g>
<defs>
<clipPath id="clip0-481072">
<rect width="149.149" height="20.988" fill="white"/>
</clipPath>
</defs>
</svg>