<svg width="137" height="35" viewBox="0 0 137 35" fill="none" xmlns="http://www.w3.org/2000/svg">
<g clip-path="url(#clip0-947704)">
<path fill-rule="evenodd" clip-rule="evenodd" d="M0.0253051 3.73608H29.0213V15.881C29.0213 16.0784 29.0229 16.2919 29.0247 16.5195C29.0437 19.0331 29.0759 23.2658 27.0816 26.5561C24.3735 31.1061 19.4017 34.5908 14.5624 35.01L14.5235 35.0134L14.4845 35.01C9.60822 34.591 4.63555 31.1058 1.92736 26.5545L1.92641 26.5529C-0.0295572 23.2347 0.00262081 19.039 0.0218768 16.5282C0.0236454 16.2976 0.0253051 16.0812 0.0253051 15.881V3.73608ZM0.930891 4.64167V15.881C0.930891 16.0833 0.929507 16.2984 0.928052 16.5246C0.911724 19.0634 0.886376 23.0046 2.70607 26.0922C5.28512 30.4259 9.99912 33.6992 14.5231 34.1044C19.0106 33.6992 23.7251 30.4259 26.3043 26.0914L26.3062 26.0882C28.1595 23.0318 28.1345 19.0585 28.1185 16.5145C28.1171 16.2918 28.1157 16.0801 28.1157 15.881V4.64167H0.930891Z" fill="#E6E6E6"/>
<path d="M25.002 7.68188H4.04443V13.9903L20.2522 26.262L19.0281 27.3463L4.04443 16.1095V18.8694C4.04443 27.5927 12.2708 30.8455 14.5232 30.8455C22.064 29.8105 24.904 23.4035 24.904 20.1508L10.6059 9.40683H13.2011L25.002 18.278V7.68188Z" fill="#E6E6E6"/>
<path d="M31.9878 0.475195H31.5466V0.328125H32.6129V0.475195H32.1717V1.79883H31.9878V0.475195Z" fill="#E6E6E6"/>
<path d="M34.0837 1.13701C34.0837 0.916406 34.0469 0.695801 34.0469 0.511963C34.0101 0.695801 33.9366 0.879639 33.863 1.06348L33.6057 1.76206H33.4586L33.238 1.06348C33.1645 0.879639 33.1277 0.695801 33.0909 0.511963C33.0909 0.695801 33.0909 0.953174 33.0542 1.17378L33.0174 1.79883H32.8336L32.9439 0.328125H33.2012L33.4586 1.02671C33.5321 1.21055 33.5689 1.35762 33.6057 1.50469C33.6424 1.35762 33.6792 1.21055 33.7527 1.02671L33.9734 0.328125H34.2307L34.3043 1.79883H34.1204L34.0837 1.13701Z" fill="#E6E6E6"/>
<path d="M39.084 22.7199C39.9664 23.2347 41.2165 23.7126 42.5401 23.7126C44.5256 23.7126 45.6654 22.6832 45.6654 21.1757C45.6654 19.7785 44.8565 18.9696 42.8343 18.1975C40.4076 17.3151 38.9002 16.065 38.9002 13.9692C38.9002 11.6529 40.8121 9.9248 43.7167 9.9248C45.261 9.9248 46.364 10.2925 47.0258 10.6602L46.511 12.2412C46.0331 11.9838 45.0403 11.5426 43.6799 11.5426C41.6577 11.5426 40.8488 12.7559 40.8488 13.7854C40.8488 15.1826 41.768 15.8812 43.827 16.6533C46.364 17.646 47.6508 18.8593 47.6508 21.0286C47.6508 23.345 45.9595 25.3304 42.4298 25.3304C40.9959 25.3304 39.4149 24.926 38.606 24.3745L39.084 22.7199Z" fill="#E6E6E6"/>
<path d="M59.4901 18.0503H53.6808V23.4551H60.1519V25.0729H51.7321V10.1453H59.7842V11.763H53.6808V16.4693H59.4901V18.0503Z" fill="#E6E6E6"/>
<path d="M64.1227 25.0729V10.1453H66.2185L70.9983 17.7194C72.1013 19.4842 72.9837 21.0285 73.6823 22.5727L73.7191 22.5359C73.5352 20.5505 73.4985 18.7121 73.4985 16.3958V10.1453H75.3001V25.0729H73.3514L68.6084 17.4988C67.5789 15.8442 66.5862 14.1162 65.8141 12.4984L65.7405 12.5352C65.8508 14.4103 65.8876 16.2119 65.8876 18.7121V25.1097H64.1227V25.0729Z" fill="#E6E6E6"/>
<path d="M83.058 11.7629H78.4988V10.1084H89.5659V11.7629H85.0067V25.0728H83.058V11.7629Z" fill="#E6E6E6"/>
<path d="M94.6398 10.1453V25.0729H92.7279V10.1453H94.6398Z" fill="#E6E6E6"/>
<path d="M99.4931 25.0729V10.1453H101.589L106.369 17.7194C107.472 19.4842 108.354 21.0285 109.053 22.5727L109.089 22.5359C108.906 20.5505 108.869 18.7121 108.869 16.3958V10.1453H110.67V25.0729H108.722L103.979 17.4988C102.949 15.8442 101.957 14.1162 101.184 12.4984L101.111 12.5352C101.221 14.4103 101.258 16.2119 101.258 18.7121V25.1097H99.4931V25.0729Z" fill="#E6E6E6"/>
<path d="M123.319 18.0503H117.509V23.4551H123.98V25.0729H115.561V10.1453H123.613V11.763H117.473V16.4693H123.282V18.0503H123.319Z" fill="#E6E6E6"/>
<path d="M127.951 10.1453H129.863V23.4551H136.261V25.0729H127.951V10.1453Z" fill="#E6E6E6"/>
</g>
<defs>
<clipPath id="clip0-947704">
<rect width="136.261" height="34.6718" fill="white" transform="translate(0 0.328125)"/>
</clipPath>
</defs>
</svg>