<svg width="100" height="28" viewBox="0 0 100 28" fill="none" xmlns="http://www.w3.org/2000/svg">
<path d="M71.3127 8.78646C71.1964 8.78646 71.0221 8.72827 70.5571 8.72827C70.1503 8.72827 69.8015 8.78646 69.4528 8.84465C68.058 9.1356 67.128 9.89207 66.3725 10.7067L66.3725 9.07741H61.9554L61.9554 23.3921H66.3725L66.3725 17.4567C66.3725 16.7585 66.4306 16.1184 66.4887 15.5365C66.5468 14.9546 66.7212 14.4309 67.0118 14.0235C67.3024 13.6162 67.6511 13.2671 68.1161 13.0343C68.581 12.8016 69.2785 12.6852 70.0921 12.6852C70.4409 12.6852 70.7315 12.6852 71.0221 12.7434C71.3127 12.8016 71.6614 12.8597 71.952 12.9761L71.952 8.96103C71.7776 8.90284 71.5451 8.84465 71.3127 8.78646Z" fill="#E6E6E6"/>
<path d="M83.1114 8.78646C82.9952 8.78646 82.8208 8.72827 82.3559 8.72827C81.949 8.72827 81.6003 8.78646 81.2516 8.84465C79.8567 9.1356 78.9268 9.89207 78.1712 10.7067L78.1712 9.07741H73.7541L73.7541 23.3921H78.1712L78.1712 17.4567C78.1712 16.7585 78.2294 16.1184 78.2875 15.5365C78.3456 14.9546 78.52 14.4309 78.8106 14.0235C79.1012 13.6162 79.4499 13.2671 79.9148 13.0343C80.3798 12.8016 81.0772 12.6852 81.8909 12.6852C82.2396 12.6852 82.5302 12.6852 82.8208 12.7434C83.1114 12.8016 83.4601 12.8597 83.7507 12.9761L83.7507 8.96103C83.5764 8.90284 83.3439 8.84465 83.1114 8.78646Z" fill="#E6E6E6"/>
<path d="M36.6153 8.55375H30.6871L30.6871 4.48047H47.135L47.135 8.55375H41.2068L41.2068 23.4503H36.6153L36.6153 8.55375Z" fill="#E6E6E6"/>
<path d="M59.5145 20.9483C58.817 21.8793 57.9452 22.5194 56.841 23.0431C55.7367 23.5086 54.6324 23.7996 53.47 23.7996C52.3657 23.7996 51.3196 23.625 50.3897 23.2759C49.4016 22.9267 48.588 22.403 47.8324 21.7629C47.135 21.1228 46.5538 20.3082 46.1469 19.3772C45.7401 18.4461 45.5076 17.3987 45.5076 16.2931C45.5076 15.1293 45.7401 14.1401 46.1469 13.209C46.5538 12.278 47.135 11.5215 47.8324 10.8233C48.5298 10.1832 49.4016 9.65947 50.3897 9.31033C51.3777 8.96119 52.3657 8.78662 53.47 8.78662C54.5162 8.78662 55.388 8.96119 56.2598 9.31033C57.0734 9.65947 57.7709 10.1832 58.3521 10.8233C58.9333 11.4633 59.3982 12.278 59.6888 13.209C59.9794 14.1401 60.1538 15.1875 60.1538 16.2931L60.1538 17.6896H49.9247C50.0991 18.5625 50.5059 19.2026 51.0871 19.7263C51.6683 20.25 52.4239 20.4828 53.2375 20.4828C53.935 20.4828 54.5743 20.3082 55.0974 20.0172C55.6205 19.6681 56.0273 19.2608 56.4341 18.7371L59.5145 20.9483ZM55.7948 14.6638C55.7948 13.9073 55.5623 13.2672 55.0393 12.7435C54.5162 12.2198 53.8769 11.9289 53.0632 11.9289C52.5982 11.9289 52.1333 11.9871 51.7846 12.1616C51.4358 12.3362 51.0871 12.5108 50.8546 12.7435C50.564 12.9763 50.3897 13.2672 50.2153 13.6164C50.041 13.9655 49.9828 14.2565 49.9828 14.6056H55.7948L55.7948 14.6638Z" fill="#E6E6E6"/>
<path d="M84.2736 19.319C84.2736 16.0603 86.7727 14.6056 90.2599 14.6056C91.771 14.6056 92.8753 14.8384 93.9215 15.1875L93.9215 14.9547C93.9215 13.2672 92.8172 12.278 90.7249 12.278C89.0975 12.278 87.9932 12.569 86.5984 13.0927L85.5522 9.95042C87.1796 9.25214 88.8069 8.78662 91.3642 8.78662C93.689 8.78662 95.3163 9.36852 96.4206 10.4159C97.5249 11.5215 98.048 13.0927 98.048 15.0711L98.048 23.5086H93.9796L93.9796 21.9375C92.9334 23.0431 91.5385 23.7996 89.4462 23.7996C86.5402 23.7996 84.2736 22.2284 84.2736 19.319ZM93.9796 18.3879L93.9796 18.1552C93.9796 17.8642 93.8052 17.5733 93.4565 17.4569C92.8172 17.2241 92.0616 17.1078 91.2479 17.1078C89.4462 17.1078 88.342 17.806 88.342 19.1444L88.342 19.2026C88.342 20.3082 89.2719 20.9483 90.6668 20.9483C92.6428 20.9483 93.9796 19.9009 93.9796 18.3879Z" fill="#E6E6E6"/>
<path opacity="0.4" d="M12.7862 21.0063C13.4837 23.5667 15.9247 25.4869 17.2033 25.4287C17.2615 25.4287 21.911 24.5559 24.5264 20.2498C26.5025 16.933 25.8632 13.6744 23.1315 13.6162C22.1435 13.6744 11.5076 16.1184 12.7862 21.0063Z" fill="#E6E6E6"/>
<path opacity="0.4" d="M22.8409 4.5969C20.8068 2.79302 18.0751 1.74561 15.111 1.74561C13.3674 1.74561 11.7401 2.09475 10.2871 2.79302C9.99648 2.9094 9.76401 3.02578 9.53153 3.14216C9.35717 3.25854 9.18281 3.31673 9.00845 3.43311H9.06657C8.60161 3.78225 8.13666 4.18957 7.78794 4.65509C4.35888 9.19389 15.8666 12.4525 21.9691 12.5107C24.817 14.4892 25.6307 6.74992 22.8409 4.5969Z" fill="#E6E6E6"/>
<path d="M10.9845 4.71323C9.41527 7.099 4.18449 8.72832 3.3127 8.49556C3.37082 8.43737 3.37082 8.37918 3.42894 8.2628C3.71954 7.6809 4.06825 7.1572 4.47509 6.63349C4.88193 6.10978 5.28877 5.64426 5.75373 5.17875C6.21868 4.71323 6.68364 4.3059 7.20672 3.89857C7.55544 3.66581 7.84603 3.43305 8.19475 3.25848C8.95031 2.85116 9.70586 2.79297 9.93834 2.79297C12.205 2.79297 10.9845 4.65504 10.9845 4.71323Z" fill="#E6E6E6"/>
<path d="M9.70588 21.4722C9.82212 22.2286 9.70588 25.1381 9.53152 25.4291C9.41528 25.4291 9.12468 25.4291 8.31101 25.0217C7.90417 24.789 7.49733 24.498 7.09049 24.2653C6.56741 23.8579 6.10245 23.4506 5.6375 22.9851C5.17254 22.5196 4.7657 22.0541 4.35887 21.5304C3.95203 21.0067 3.66143 20.4829 3.31271 19.901C3.02211 19.3191 2.73151 18.7373 2.55716 18.0972C2.3828 17.4571 2.20844 16.817 2.0922 16.1769C1.97596 15.5368 1.91784 14.8385 1.91784 14.1403C1.91784 13.442 1.97596 12.7437 2.0922 12.1036C2.20844 11.4635 2.3828 10.7653 2.55716 10.1834C2.61527 10.067 2.61527 9.95061 2.67339 9.83423C3.60331 11.0562 4.64946 12.1618 5.52126 13.3256C6.39306 14.4894 7.55545 16.3515 7.78793 16.7588C9.35716 19.1446 9.58964 20.7157 9.70588 21.4722Z" fill="#E6E6E6"/>
<path d="M27.1418 14.0238C27.1418 15.6531 26.8512 17.2242 26.27 18.6208C24.817 20.1919 14.8204 16.2932 14.7042 16.235C13.3093 15.6531 9.18282 13.791 8.8341 10.9397C8.31103 6.80825 16.6221 3.95696 20.2837 3.84058C20.7486 3.84058 22.0854 3.84058 22.841 4.48066C25.4563 6.86644 27.1418 10.2414 27.1418 14.0238Z" fill="#E6E6E6"/>
<path d="M20.3999 25.196C19.2956 25.7197 18.1333 25.3124 18.4239 24.2649C19.005 22.2283 24.2358 20.1335 25.3982 20.0171C25.5145 20.0171 25.5726 20.0753 25.5145 20.1917C24.2939 22.3447 22.5504 24.0904 20.3999 25.196Z" fill="#E6E6E6"/>
</svg>