<?xml version="1.0" standalone="no"?>
<!DOCTYPE svg PUBLIC "-//W3C//DTD SVG 20010904//EN"
 "http://www.w3.org/TR/2001/REC-SVG-20010904/DTD/svg10.dtd">
<svg version="1.0" xmlns="http://www.w3.org/2000/svg"
 width="780.000000pt" height="780.000000pt" viewBox="0 0 780.000000 780.000000"
 preserveAspectRatio="xMidYMid meet">
<metadata>
Created by potrace 1.11, written by Peter Selinger 2001-2013
</metadata>
<g transform="translate(0.000000,780.000000) scale(0.100000,-0.100000)"
fill="#000000" stroke="none">
<path d="M5290 7022 c-282 -21 -519 -215 -596 -487 -18 -65 -24 -212 -11 -284
19 -103 62 -198 128 -282 181 -230 477 -312 750 -208 244 94 404 316 414 579
13 305 -168 561 -460 654 -56 18 -172 32 -225 28z m143 -372 c67 -25 137 -91
168 -158 31 -67 31 -179 1 -247 -67 -146 -248 -217 -393 -152 -136 61 -210
201 -177 337 5 19 10 40 11 47 7 29 62 101 101 130 84 64 191 80 289 43z"/>
<path d="M2220 6963 c-134 -34 -219 -152 -254 -352 -13 -76 -14 -330 -2 -421
28 -197 57 -342 107 -530 39 -147 97 -340 109 -362 6 -10 10 -23 10 -29 0 -26
184 -509 252 -659 11 -25 26 -58 33 -75 65 -147 146 -317 246 -515 126 -250
197 -381 312 -580 11 -19 31 -55 44 -78 78 -138 313 -515 325 -520 4 -2 8 -8
8 -14 0 -17 287 -429 423 -608 92 -119 265 -337 287 -361 8 -8 38 -42 65 -74
110 -129 136 -157 315 -335 102 -102 228 -220 280 -263 381 -311 665 -421 857
-331 96 44 179 186 200 342 10 73 10 305 -1 402 -13 120 -73 425 -110 560 -28
98 -59 202 -71 233 -8 20 -14 38 -14 40 9 20 -191 547 -304 802 -89 202 -114
255 -228 485 -130 263 -228 445 -387 719 -60 104 -67 112 -79 95 -26 -35 -186
-319 -186 -329 0 -6 18 -42 40 -80 142 -245 352 -658 481 -945 57 -128 181
-424 186 -445 2 -5 8 -21 13 -35 26 -63 115 -317 151 -435 69 -221 129 -479
157 -680 17 -114 10 -384 -10 -403 -10 -10 -115 32 -190 75 -190 109 -419 306
-675 579 -56 60 -87 96 -193 218 -10 12 -28 32 -40 46 -12 14 -51 61 -85 105
-35 44 -73 91 -84 103 -11 13 -67 88 -124 165 -58 78 -111 149 -117 158 -38
49 -77 108 -222 326 -88 134 -171 260 -184 280 -33 53 -249 419 -279 473 -13
25 -37 68 -52 95 -15 28 -42 77 -61 110 -40 74 -299 591 -299 598 0 4 -53 122
-90 202 -43 90 -169 411 -238 605 -56 156 -154 495 -178 615 -2 11 -6 31 -9
45 -12 61 -29 159 -40 240 -12 80 -13 273 -2 338 l10 63 31 -7 c47 -10 167
-69 243 -121 207 -139 482 -395 713 -663 36 -41 68 -77 71 -80 11 -10 257
-317 300 -375 24 -33 50 -66 57 -75 26 -33 125 -172 231 -327 l110 -161 43 71
c23 40 48 81 54 92 6 11 30 53 53 94 45 76 46 93 11 134 -6 7 -47 64 -92 127
-188 269 -443 590 -633 800 -122 134 -410 414 -514 498 -330 269 -595 383
-781 335z"/>
<path d="M4720 5647 c-41 -72 -79 -139 -85 -149 -5 -9 -50 -86 -99 -170 -99
-171 -114 -197 -163 -283 -19 -33 -38 -67 -43 -75 -5 -8 -47 -80 -93 -160 -46
-80 -185 -320 -309 -535 -124 -214 -233 -403 -242 -420 -9 -16 -21 -37 -26
-45 -40 -62 -132 -227 -132 -240 -1 -12 46 -93 182 -314 l18 -28 15 23 c13 22
94 161 152 264 36 62 290 502 520 900 114 198 218 378 230 400 13 22 120 208
239 413 119 206 214 378 210 383 -3 5 -11 9 -17 9 -23 0 -162 71 -212 109 -27
20 -54 40 -60 43 -5 3 -44 -53 -85 -125z"/>
<path d="M3150 2927 c-8 -12 -24 -40 -36 -62 -12 -22 -105 -184 -207 -359
l-185 -319 76 -34 c76 -33 156 -82 201 -124 23 -21 24 -21 35 -3 10 17 42 72
77 134 8 14 19 32 25 40 6 8 27 44 47 80 19 36 72 128 116 205 74 127 79 141
67 160 -8 11 -54 81 -102 155 -48 74 -90 138 -93 142 -4 4 -13 -3 -21 -15z"/>
<path d="M2360 2074 c-88 -17 -143 -38 -220 -83 -307 -183 -409 -589 -224
-895 59 -97 165 -196 264 -245 259 -127 548 -81 751 119 126 124 188 265 195
440 4 122 -13 199 -72 318 -37 72 -63 109 -122 167 -41 41 -78 75 -83 75 -4 0
-24 11 -44 25 -108 73 -299 107 -445 79z m210 -356 c218 -66 277 -354 105
-511 -55 -50 -112 -71 -200 -71 -69 -1 -87 3 -135 28 -161 85 -213 280 -116
435 71 111 211 160 346 119z"/>
</g>
</svg>
