<svg width="171" height="65" viewBox="0 0 171 65" fill="none" xmlns="http://www.w3.org/2000/svg">
<g clip-path="url(#clip0-945349)">
<path d="M49.0455 22.2064L27.5403 22.2064L27.5403 43.7116L49.0455 43.7116L49.0455 22.2064ZM48.0796 23.1723L48.0796 42.7457L28.5062 42.7457L28.5062 23.1723L48.0796 23.1723Z" fill="white"/>
<path d="M41.8865 29.4789L34.7276 29.4789L34.7276 36.6379L41.8865 36.6379L41.8865 29.4789Z" fill="white"/>
<path d="M41.8865 29.3654L34.7276 29.3654L34.7276 36.5527L41.8865 36.5527L41.8865 29.3654Z" fill="white"/>
<path d="M59.6418 37.3197L59.6418 16.894L50.0398 21.8087L50.0398 22.8882L58.9316 18.3145L58.9316 37.689L59.6418 37.3197Z" fill="white"/>
<path d="M56.2896 32.9733L56.2896 25.6723L52.5397 27.6325L52.5397 34.9334L56.2896 32.9733Z" fill="white"/>
<path d="M73.3062 25.189L66.8291 39.3648L68.3916 39.3648L70.0961 35.5865L77.9936 35.5865L79.6981 39.3648L81.289 39.3648L74.8119 25.189L73.3062 25.189ZM70.6358 34.3649L74.0448 26.7515L77.4539 34.3649L70.6358 34.3649Z" fill="white"/>
<path d="M85.6355 27.1492C86.573 26.6378 87.5957 26.3822 88.732 26.3822C90.4649 26.3822 91.8853 26.9503 93.0217 28.0298L93.9591 27.064C93.3342 26.3822 92.5671 25.8708 91.6581 25.5299C90.749 25.189 89.7547 25.0186 88.6752 25.0186C87.2548 25.0186 85.948 25.331 84.8116 25.956C83.6753 26.581 82.7946 27.4333 82.1412 28.5412C81.4878 29.6491 81.1754 30.8707 81.1754 32.2343C81.1754 33.5979 81.4878 34.8195 82.1412 35.9274C82.7946 37.0353 83.6753 37.8876 84.8116 38.5126C85.948 39.1375 87.2263 39.45 88.6468 39.45C89.6411 39.45 90.6069 39.308 91.516 38.9955C92.4251 38.683 93.1921 38.2285 93.8739 37.6603L93.8739 32.2627L92.4251 32.2627L92.4251 37.0353C91.4024 37.7739 90.1808 38.1432 88.7036 38.1432C87.5672 38.1432 86.5161 37.8876 85.6071 37.3762C84.698 36.8649 83.9594 36.1547 83.448 35.274C82.9083 34.3933 82.6526 33.3706 82.6526 32.2627C82.6526 31.1548 82.9083 30.1605 83.448 29.2514C83.9878 28.3707 84.698 27.6605 85.6355 27.1492Z" fill="white"/>
<path d="M106.885 25.9844C105.749 25.3594 104.499 25.0469 103.078 25.0469C101.686 25.0469 100.408 25.3594 99.2715 25.9844C98.1352 26.6094 97.2261 27.4616 96.6011 28.5696C95.9477 29.6775 95.6352 30.8991 95.6352 32.2627C95.6352 33.6263 95.9477 34.8478 96.6011 35.9558C97.2545 37.0637 98.1352 37.9159 99.2715 38.5409C100.408 39.1659 101.686 39.4784 103.078 39.4784C104.47 39.4784 105.749 39.1659 106.885 38.5409C108.021 37.9159 108.902 37.0637 109.555 35.9558C110.209 34.8478 110.521 33.6263 110.521 32.2627C110.521 30.8991 110.209 29.6775 109.555 28.5696C108.902 27.49 108.021 26.6094 106.885 25.9844ZM108.277 35.274C107.766 36.183 107.055 36.8648 106.146 37.3762C105.237 37.8875 104.215 38.1432 103.107 38.1432C101.999 38.1432 100.976 37.8875 100.067 37.3762C99.1579 36.8648 98.4477 36.1546 97.9079 35.274C97.3966 34.3649 97.1409 33.3706 97.1409 32.2627C97.1409 31.1547 97.3966 30.1604 97.9079 29.2514C98.4193 28.3423 99.1579 27.6605 100.067 27.1491C100.976 26.6378 101.999 26.3821 103.107 26.3821C104.215 26.3821 105.237 26.6378 106.146 27.1491C107.055 27.6605 107.766 28.3707 108.277 29.2514C108.788 30.1604 109.044 31.1547 109.044 32.2627C109.044 33.399 108.788 34.3933 108.277 35.274Z" fill="white"/>
<path d="M127.453 25.189L125.947 25.189L125.947 39.3648L127.453 39.3648L127.453 25.189Z" fill="white"/>
<path d="M137.026 38.1432C135.918 38.1432 134.896 37.8876 133.958 37.3762C133.049 36.8649 132.311 36.1547 131.799 35.274C131.288 34.3933 131.032 33.3706 131.032 32.2627C131.032 31.1548 131.288 30.1605 131.799 29.2514C132.311 28.3707 133.049 27.6605 133.958 27.1492C134.867 26.6378 135.89 26.3822 137.026 26.3822C138.702 26.3822 140.123 26.9503 141.231 28.0583L142.197 27.0924C141.572 26.4106 140.805 25.8992 139.924 25.5583C139.043 25.2174 138.049 25.0186 136.998 25.0186C135.606 25.0186 134.328 25.331 133.191 25.956C132.055 26.581 131.174 27.4333 130.521 28.5412C129.867 29.6491 129.555 30.8707 129.555 32.2343C129.555 33.5979 129.867 34.8195 130.521 35.9274C131.174 37.0353 132.055 37.8876 133.163 38.5126C134.299 39.1375 135.549 39.45 136.97 39.45C138.021 39.45 138.987 39.2796 139.896 38.9103C140.805 38.541 141.543 38.0296 142.168 37.3478L141.202 36.3819C140.123 37.5751 138.731 38.1432 137.026 38.1432Z" fill="white"/>
<path d="M120.294 34.4502L120.237 34.4502C121.203 34.1093 121.97 33.5695 122.51 32.8309C123.078 32.0639 123.362 31.1264 123.362 30.0185C123.362 28.5128 122.851 27.3197 121.828 26.439C120.805 25.5868 119.385 25.1322 117.567 25.1322L112.254 25.1322L112.254 39.308L113.76 39.308L113.76 26.439L117.538 26.439C118.93 26.439 120.01 26.7515 120.748 27.3481C121.487 27.9731 121.856 28.8537 121.856 29.9901C121.856 31.098 121.487 31.9787 120.748 32.6036C120.237 33.0298 119.555 33.3138 118.703 33.4559L118.703 34.7627L121.941 39.308L123.788 39.308L120.294 34.4502Z" fill="white"/>
</g>
<defs>
<clipPath id="clip0-945349">
<rect width="115.121" height="35.0001" fill="white" transform="translate(27.2847 14.8613)"/>
</clipPath>
</defs>
</svg>