<svg width="171" height="65" viewBox="0 0 171 65" fill="none" xmlns="http://www.w3.org/2000/svg">
<path d="M69.8038 45.223L69.8038 20.8105L45.3914 20.8105L45.3914 45.223L69.8038 45.223ZM53.5357 28.9549H61.6723L61.6723 37.0915L53.5293 37.0915L53.5357 28.9549Z" fill="white"/>
<path d="M29.1165 28.9429L37.2544 28.9429V37.0795H29.1165L29.1165 28.9429Z" fill="white"/>
<path d="M90.727 40.6408H87.581L86.537 37.7818L80.2219 37.7818L79.1741 40.646H76.0229L81.8257 25.833H84.923L90.727 40.6408ZM81.0942 35.3569L85.6544 35.3569L83.3628 29.1366L81.0942 35.3569Z" fill="white"/>
<path d="M102.207 40.2363C102.207 41.7675 101.752 43.0019 100.841 43.9395C99.9318 44.8772 98.5984 45.5305 96.8909 45.5305C94.7209 45.5305 93.048 44.5262 91.8157 42.8302L93.4131 41.3187C94.3802 42.4114 95.8879 43.5181 97.6812 42.9058C99.0006 42.4575 99.2837 41.1957 99.2837 40.308V39.478H99.1556C99.1389 39.5113 99.1107 39.56 99.0698 39.6253C98.9825 39.7487 98.8847 39.8644 98.7777 39.9711C98.6219 40.1368 98.4459 40.2823 98.2538 40.4041C97.994 40.5534 97.7146 40.6655 97.4237 40.7372C97.0419 40.8388 96.648 40.8883 96.2529 40.8845C95.6146 40.8966 94.9817 40.7647 94.4013 40.4986C93.821 40.2324 93.308 39.8389 92.9007 39.3473C92.0143 38.3277 91.571 37.0194 91.571 35.4225C91.571 33.7931 92.0224 32.4848 92.925 31.4976C93.8277 30.5104 94.9698 30.0169 96.3516 30.0169C96.8053 30.0121 97.2572 30.0743 97.6927 30.2013C98.0415 30.2968 98.3712 30.4515 98.6675 30.6586C98.8908 30.8208 99.0991 31.0026 99.2901 31.2017C99.4242 31.3362 99.5428 31.4853 99.6436 31.6462L99.741 31.8435H99.8383L100.302 30.2628L102.203 30.2628L102.207 40.2363ZM98.7572 33.2846C98.5397 33.0216 98.2652 32.8115 97.9545 32.6704C97.6438 32.5292 97.305 32.4606 96.9639 32.4699C96.6286 32.4651 96.2969 32.5396 95.9959 32.6874C95.6949 32.8352 95.4332 33.0521 95.232 33.3204C94.7777 33.8892 94.5501 34.6095 94.5493 35.4814C94.5484 36.3533 94.7721 37.0651 95.2205 37.6168C95.4261 37.8814 95.6909 38.094 95.9937 38.2376C96.2966 38.3811 96.6289 38.4514 96.9639 38.443C97.3057 38.4552 97.6458 38.3894 97.9583 38.2504C98.2708 38.1115 98.5476 37.9031 98.7674 37.6411C99.2235 37.1057 99.4511 36.3858 99.4502 35.4814C99.4511 34.5591 99.2201 33.8268 98.7572 33.2846Z" fill="white"/>
<path d="M113.309 39.393C112.277 40.3896 111.013 40.8875 109.517 40.8866C108.006 40.8866 106.734 40.3887 105.702 39.393C104.669 38.3973 104.153 37.1014 104.153 35.5053C104.153 33.8922 104.669 32.5753 105.702 31.5549C106.734 30.5344 108.006 30.0245 109.517 30.0254C111.014 30.0254 112.277 30.5352 113.309 31.5549C114.341 32.5745 114.857 33.8913 114.858 35.5053C114.859 37.1014 114.342 38.3973 113.309 39.393ZM111.285 37.7022C111.749 37.1419 111.981 36.393 111.981 35.4554C111.981 34.5348 111.749 33.7901 111.285 33.2214C111.078 32.951 110.81 32.733 110.503 32.5851C110.196 32.4371 109.858 32.3633 109.517 32.3695C109.173 32.3618 108.831 32.4348 108.52 32.5827C108.208 32.7306 107.936 32.9493 107.724 33.2214C107.263 33.7901 107.032 34.5348 107.032 35.4554C107.032 36.3947 107.26 37.1437 107.715 37.7022C107.933 37.9647 108.206 38.1759 108.515 38.3209C108.823 38.466 109.16 38.5411 109.501 38.5411C109.843 38.5411 110.179 38.466 110.488 38.3209C110.797 38.1759 111.07 37.9647 111.288 37.7022H111.285Z" fill="white"/>
<path d="M123.459 32.7665H122.095C121.396 32.7665 120.831 32.9928 120.4 33.4454C119.97 33.898 119.754 34.5111 119.753 35.2848V40.6418H116.828V30.2725H118.657L119.073 31.8032H119.219C119.755 30.7836 120.707 30.2733 122.073 30.2725H123.462L123.459 32.7665Z" fill="white"/>
<path d="M125.35 28.1754C125.188 28.0193 125.061 27.831 124.977 27.6226C124.893 27.4143 124.854 27.1907 124.862 26.9661C124.854 26.7394 124.894 26.5135 124.978 26.3027C125.062 26.092 125.188 25.9009 125.35 25.7416C125.51 25.5831 125.7 25.4587 125.91 25.3759C126.119 25.2931 126.343 25.2537 126.568 25.2599C126.794 25.255 127.019 25.295 127.229 25.3777C127.44 25.4604 127.632 25.5841 127.794 25.7416C127.958 25.8988 128.088 26.0889 128.174 26.2994C128.26 26.51 128.301 26.7363 128.294 26.9636C128.301 27.1891 128.261 27.4136 128.174 27.6222C128.088 27.8307 127.959 28.0184 127.794 28.1728C127.461 28.4853 127.018 28.6538 126.562 28.6416C126.339 28.6478 126.117 28.6098 125.909 28.5298C125.701 28.4497 125.511 28.3293 125.35 28.1754V28.1754ZM125.081 30.2736H128.001V40.6429H125.074L125.081 30.2736Z" fill="white"/>
<path d="M131.37 39.3562C130.379 38.3366 129.883 37.0364 129.883 35.4557C129.883 33.875 130.379 32.5749 131.37 31.5552C132.362 30.5356 133.662 30.0258 135.272 30.0258C135.873 30.0192 136.472 30.0981 137.051 30.2602C137.588 30.4165 137.962 30.5685 138.173 30.7162L138.491 30.9634L137.734 33.086C137.079 32.6691 136.316 32.4547 135.54 32.4698C135.175 32.4577 134.812 32.5241 134.476 32.6647C134.139 32.8053 133.837 33.0167 133.589 33.2845C133.086 33.8268 132.834 34.5527 132.833 35.4621C132.833 36.3844 133.085 37.1129 133.589 37.6474C134.093 38.182 134.743 38.4493 135.54 38.4493C135.915 38.4496 136.289 38.3956 136.649 38.2892C136.931 38.2148 137.205 38.1114 137.466 37.9805L137.734 37.8332L138.467 39.9314C138.385 39.9967 138.267 40.0838 138.112 40.1876C137.957 40.2913 137.608 40.4438 137.064 40.6193C136.485 40.806 135.879 40.8977 135.271 40.8908C133.659 40.8883 132.359 40.3767 131.37 39.3562Z" fill="white"/>
<path d="M140.944 38.9587C141.116 38.9587 141.285 39.0098 141.428 39.1055C141.571 39.2012 141.683 39.3372 141.749 39.4964C141.815 39.6556 141.832 39.8307 141.798 39.9997C141.765 40.1686 141.682 40.3238 141.56 40.4457C141.438 40.5675 141.283 40.6504 141.114 40.684C140.945 40.7177 140.77 40.7004 140.611 40.6345C140.452 40.5686 140.316 40.4569 140.22 40.3137C140.124 40.1704 140.073 40.002 140.073 39.8297C140.073 39.5988 140.165 39.3775 140.329 39.2142C140.492 39.0509 140.713 38.959 140.944 38.9587V38.9587ZM140.944 38.7729C140.735 38.7732 140.531 38.8354 140.358 38.9516C140.184 39.0678 140.049 39.2329 139.969 39.4259C139.889 39.619 139.868 39.8313 139.909 40.0362C139.95 40.2411 140.05 40.4293 140.198 40.577C140.346 40.7247 140.534 40.8253 140.739 40.8662C140.944 40.907 141.156 40.8862 141.349 40.8063C141.542 40.7265 141.707 40.5912 141.824 40.4177C141.94 40.2441 142.002 40.0399 142.002 39.831C142.002 39.5507 141.891 39.2819 141.693 39.0838C141.495 38.8856 141.226 38.7742 140.945 38.7742L140.944 38.7729Z" fill="white"/>
<path d="M140.268 39.5396H140.802V39.6805H140.615V40.2159H140.455V39.6843H140.268V39.5396Z" fill="white"/>
<path d="M141.362 39.8406L141.22 40.0341H141.152L141.008 39.8406V40.216H140.849V39.5435H140.977L141.184 39.8317L141.39 39.5435H141.518V40.216H141.362V39.8406Z" fill="white"/>
</svg>