<svg width="122" height="28" viewBox="0 0 122 28" fill="none" xmlns="http://www.w3.org/2000/svg">
<g clip-path="url(#clip0-507274)">
<path d="M57.1393 0.772217V22.3925H62.0648V16.9519L65.877 22.3925H71.8102L66.3758 14.6725L71.6434 7.29381H65.7079L62.0648 12.4001V0.772217H57.1393V0.772217Z" fill="#E6E6E6"/>
<path d="M121.841 11.8425V22.2689H116.986V11.9568C116.986 10.9052 116.093 10.0481 115 10.0481C113.899 10.0481 113.006 10.9052 113.006 11.9568V22.2689H108.15V0.596924H113.006V7.61579C113.934 6.94942 115.085 6.55099 116.329 6.55099C119.375 6.55099 121.841 8.91841 121.841 11.8425Z" fill="#E6E6E6"/>
<path d="M48.5606 7.13685V7.88507C47.241 7.06813 45.6736 6.58862 43.9849 6.58862C39.318 6.58862 35.5344 10.2208 35.5344 14.7009C35.5344 19.1809 39.318 22.8131 43.9849 22.8131C45.6736 22.8131 47.241 22.3328 48.5606 21.5143V22.3042H53.4136V7.13685H48.5606V7.13685ZM44.6952 18.6512C42.3162 18.6512 40.3897 16.7996 40.3897 14.5179C40.3897 12.2338 42.3162 10.3845 44.6952 10.3845C47.0719 10.3845 49.0008 12.2338 49.0008 14.5179C49.0008 16.7996 47.0719 18.6512 44.6952 18.6512Z" fill="#E6E6E6"/>
<path d="M83.6271 7.13685V7.88507C82.3075 7.06813 80.74 6.58862 79.0513 6.58862C74.3844 6.58862 70.6001 10.2208 70.6001 14.7009C70.6001 19.1809 74.3844 22.8131 79.0513 22.8131C80.74 22.8131 82.3075 22.3328 83.6271 21.5143V22.3042H88.48V7.13685H83.6271V7.13685ZM79.7617 18.6512C77.3827 18.6512 75.4562 16.7996 75.4562 14.5179C75.4562 12.2338 77.3827 10.3845 79.7617 10.3845C82.1384 10.3845 84.0672 12.2338 84.0672 14.5179C84.0672 16.7996 82.1384 18.6512 79.7617 18.6512Z" fill="#E6E6E6"/>
<path d="M95.5693 17.375C95.5909 17.6854 95.6766 17.9503 95.8233 18.1618C95.9778 18.3842 96.1801 18.5672 96.4241 18.7062C96.6866 18.8552 96.9939 18.9656 97.3414 19.0359C97.7058 19.11 98.0873 19.1486 98.4757 19.1486C99.3513 19.1486 100.01 19.0205 100.436 18.7711C100.795 18.5595 100.957 18.3348 100.957 18.0383C100.957 17.9008 100.926 17.7881 100.867 17.6947C100.833 17.6399 100.736 17.5271 100.476 17.3881C100.232 17.2569 99.8949 17.131 99.4718 17.0167C99.0278 16.8947 98.4502 16.7696 97.756 16.6438C96.8333 16.4685 95.9762 16.2415 95.2064 15.9751C94.4203 15.701 93.7339 15.362 93.1687 14.969C92.5811 14.5597 92.1147 14.0818 91.7811 13.5428C91.436 12.9846 91.2599 12.339 91.2599 11.6225C91.2599 10.9353 91.4344 10.2681 91.7757 9.64345C92.1124 9.02651 92.6012 8.47751 93.2281 8.01885C93.8412 7.56714 94.5925 7.20577 95.4643 6.94247C96.3252 6.6838 97.3051 6.55176 98.3768 6.55176C99.4941 6.55176 100.513 6.67994 101.409 6.9332C102.317 7.19033 103.103 7.55247 103.742 8.00726C104.395 8.47364 104.903 9.03963 105.25 9.68747C105.601 10.3392 105.778 11.0534 105.778 11.8132H100.786C100.786 11.3862 100.615 11.0511 100.248 10.7577C99.8609 10.4496 99.2316 10.2928 98.3768 10.2928C97.573 10.2928 96.9723 10.4226 96.5947 10.6797C96.2635 10.9044 96.1106 11.1461 96.1106 11.4457C96.1106 11.5862 96.1407 11.7144 96.2001 11.834C96.2519 11.9352 96.3592 12.0379 96.5198 12.139C96.7183 12.2626 97.0078 12.3807 97.3785 12.4896C97.7715 12.6054 98.2819 12.7081 98.8926 12.7923C99.8455 12.9429 100.738 13.1351 101.553 13.3691C102.395 13.6092 103.133 13.9258 103.75 14.308C104.391 14.7065 104.901 15.2014 105.268 15.7767C105.645 16.3674 105.835 17.0739 105.835 17.8738C105.835 18.6135 105.647 19.3046 105.276 19.9293C104.911 20.5424 104.391 21.0783 103.726 21.5176C103.079 21.9485 102.292 22.2874 101.385 22.5237C100.492 22.7577 99.4841 22.8758 98.3907 22.8758C97.1823 22.8758 96.0951 22.7198 95.1585 22.4133C94.218 22.1029 93.4165 21.6913 92.7733 21.1864C92.1209 20.6744 91.619 20.0814 91.2792 19.4243C90.9364 18.7633 90.7634 18.0854 90.7634 17.409L95.5693 17.375V17.375Z" fill="#E6E6E6"/>
<path d="M10.038 0L25.6779 27.0253L30.8861 18.0158L20.462 0H10.038V0Z" fill="#E6E6E6"/>
<path d="M10.038 18.5317L15.4469 27.0254H26.2532L20.8519 18.5317H10.038V18.5317Z" fill="#E6E6E6"/>
<path d="M5.40506 8.49365L0 17.7595L5.40892 27.0253L16.2152 8.49365H5.40506Z" fill="#E6E6E6"/>
</g>
<defs>
<clipPath id="clip0-507274">
<rect width="122" height="27.0253" fill="white"/>
</clipPath>
</defs>
</svg>