<svg width="172" height="65" viewBox="0 0 172 65" fill="none" xmlns="http://www.w3.org/2000/svg">
<g clip-path="url(#clip0-712538)">
<path d="M81.9636 19.9424L81.9636 41.5626L86.8892 41.5626L86.8892 36.1221L90.7013 41.5626L96.6345 41.5626L91.2001 33.8427L96.4677 26.464L90.5322 26.464L86.8892 31.5702L86.8892 19.9424L81.9636 19.9424Z" fill="#E6E6E6"/>
<path d="M146.665 31.0132L146.665 41.4396L141.81 41.4396L141.81 31.1275C141.81 30.0758 140.917 29.2187 139.824 29.2187C138.723 29.2187 137.83 30.0758 137.83 31.1275L137.83 41.4396L132.974 41.4396L132.974 19.7676L137.83 19.7676L137.83 26.7864C138.759 26.1201 139.91 25.7216 141.154 25.7216C144.199 25.7216 146.665 28.0891 146.665 31.0132Z" fill="#E6E6E6"/>
<path d="M73.3851 26.3075L73.3851 27.0557C72.0655 26.2388 70.498 25.7593 68.8093 25.7593C64.1424 25.7593 60.3589 29.3915 60.3589 33.8715C60.3589 38.3515 64.1424 41.9837 68.8093 41.9837C70.498 41.9837 72.0655 41.5035 73.3851 40.685L73.3851 41.4749L78.2381 41.4749L78.2381 26.3075L73.3851 26.3075ZM69.5197 37.8218C67.1407 37.8218 65.2142 35.9702 65.2142 33.6885C65.2142 31.4045 67.1407 29.5552 69.5197 29.5552C71.8964 29.5552 73.8252 31.4045 73.8252 33.6885C73.8252 35.9702 71.8964 37.8218 69.5197 37.8218Z" fill="#E6E6E6"/>
<path d="M108.452 26.3075L108.452 27.0557C107.132 26.2388 105.564 25.7593 103.876 25.7593C99.2089 25.7593 95.4246 29.3915 95.4246 33.8715C95.4246 38.3515 99.2089 41.9837 103.876 41.9837C105.564 41.9837 107.132 41.5035 108.452 40.685L108.452 41.4749L113.305 41.4749L113.305 26.3075L108.452 26.3075ZM104.586 37.8218C102.207 37.8218 100.281 35.9702 100.281 33.6885C100.281 31.4045 102.207 29.5552 104.586 29.5552C106.963 29.5552 108.892 31.4045 108.892 33.6885C108.892 35.9702 106.963 37.8218 104.586 37.8218Z" fill="#E6E6E6"/>
<path d="M120.394 36.5454C120.415 36.8558 120.501 37.1207 120.648 37.3322C120.802 37.5546 121.005 37.7376 121.249 37.8766C121.511 38.0256 121.818 38.1361 122.166 38.2063C122.53 38.2804 122.912 38.3191 123.3 38.3191C124.176 38.3191 124.834 38.1909 125.261 37.9415C125.62 37.7299 125.781 37.5052 125.781 37.2087C125.781 37.0713 125.751 36.9585 125.691 36.8651C125.658 36.8103 125.56 36.6975 125.301 36.5585C125.057 36.4273 124.719 36.3014 124.296 36.1871C123.852 36.0651 123.275 35.9401 122.58 35.8142C121.658 35.6389 120.801 35.4119 120.031 35.1455C119.245 34.8714 118.558 34.5324 117.993 34.1394C117.406 33.7302 116.939 33.2522 116.606 32.7132C116.26 32.155 116.084 31.5094 116.084 30.7929C116.084 30.1057 116.259 29.4385 116.6 28.8139C116.937 28.1969 117.426 27.6479 118.053 27.1893C118.666 26.7375 119.417 26.3762 120.289 26.1129C121.15 25.8542 122.13 25.7222 123.201 25.7222C124.319 25.7222 125.338 25.8503 126.234 26.1036C127.142 26.3607 127.928 26.7229 128.566 27.1777C129.219 27.6441 129.728 28.21 130.074 28.8579C130.426 29.5096 130.602 30.2238 130.602 30.9836L125.61 30.9836C125.61 30.5566 125.44 30.2215 125.072 29.9281C124.685 29.62 124.056 29.4632 123.201 29.4632C122.397 29.4632 121.797 29.593 121.419 29.8501C121.088 30.0748 120.935 30.3165 120.935 30.6161C120.935 30.7566 120.965 30.8848 121.025 31.0045C121.076 31.1056 121.184 31.2083 121.344 31.3095C121.543 31.433 121.832 31.5511 122.203 31.66C122.596 31.7758 123.106 31.8785 123.717 31.9627C124.67 32.1133 125.563 32.3055 126.378 32.5395C127.22 32.7796 127.958 33.0962 128.575 33.4784C129.216 33.8769 129.725 34.3718 130.093 34.9471C130.47 35.5378 130.66 36.2443 130.66 37.0442C130.66 37.784 130.471 38.475 130.1 39.0997C129.735 39.7128 129.216 40.2487 128.551 40.688C127.904 41.1189 127.116 41.4579 126.21 41.6941C125.316 41.9281 124.309 42.0462 123.215 42.0462C122.007 42.0462 120.92 41.8903 119.983 41.5837C119.042 41.2733 118.241 40.8617 117.598 40.3568C116.945 39.8448 116.443 39.2518 116.104 38.5947C115.761 37.9338 115.588 37.2558 115.588 36.5794L120.394 36.5454Z" fill="#E6E6E6"/>
<path d="M34.8623 19.1704L50.5022 46.1957L55.7104 37.1863L45.2864 19.1704L34.8623 19.1704Z" fill="#E6E6E6"/>
<path d="M34.8625 37.7021L40.2715 46.1958L51.0777 46.1958L45.6765 37.7021L34.8625 37.7021Z" fill="#E6E6E6"/>
<path d="M30.2295 27.6641L24.8245 36.9299L30.2334 46.1957L41.0397 27.6641L30.2295 27.6641Z" fill="#E6E6E6"/>
</g>
<defs>
<clipPath id="clip0-712538">
<rect width="122" height="27.0253" fill="white" transform="translate(24.8245 19.1704)"/>
</clipPath>
</defs>
</svg>