<svg width="122" height="28" viewBox="0 0 122 28" fill="none" xmlns="http://www.w3.org/2000/svg">
<g clip-path="url(#clip0-680483)">
<path d="M34.1064 6.38811C34.1064 6.02747 34.261 5.71835 34.5186 5.46075C34.7762 5.20314 35.0853 5.04858 35.4975 5.04858C35.8581 5.04858 36.1672 5.20314 36.4763 5.46075C36.7339 5.71835 36.8885 6.02747 36.8885 6.38811V10.2521C38.022 9.42781 39.31 9.01565 40.804 9.01565C42.6588 9.01565 44.2044 9.63389 45.4924 10.9219C46.7804 12.2099 47.4502 13.7555 47.4502 15.5587C47.4502 17.3619 46.7804 18.9075 45.4924 20.1955C44.2044 21.4836 42.6588 22.1018 40.804 22.1018C38.9493 22.1018 37.4037 21.4836 36.1157 20.1955C34.8277 18.9591 34.2095 17.4134 34.1579 15.6102L34.1064 6.38811ZM37.9704 18.2893C38.7432 19.0621 39.6706 19.4227 40.7525 19.4227C41.8345 19.4227 42.7618 19.0621 43.5346 18.2893C44.3074 17.5165 44.6681 16.5891 44.6681 15.5587C44.6681 14.4768 44.3074 13.5494 43.5346 12.7766C42.7618 12.0038 41.8345 11.6432 40.7525 11.6432C39.6706 11.6432 38.7432 12.0038 37.9704 12.7766C37.3007 13.4464 36.94 14.1677 36.837 15.0435V15.5587C36.837 15.6618 36.837 15.7133 36.837 15.8163C36.8885 16.7952 37.2492 17.6195 37.9704 18.2893Z" fill="#E6E6E6"/>
<path d="M51.4172 7.67637C51.0566 7.67637 50.7475 7.52181 50.4383 7.26421C50.1807 7.0066 50.0262 6.69748 50.0262 6.33684C50.0262 5.9762 50.1807 5.66708 50.4383 5.40948C50.6959 5.15187 51.0051 4.99731 51.4172 4.99731C51.7779 4.99731 52.087 5.15187 52.3961 5.40948C52.6537 5.66708 52.8083 5.9762 52.8083 6.33684C52.8083 6.69748 52.6537 7.0066 52.3961 7.26421C52.1385 7.52181 51.7779 7.67637 51.4172 7.67637ZM51.4172 22.102C51.0566 22.102 50.7475 21.9475 50.4383 21.6899C50.1807 21.4323 50.0262 21.1232 50.0262 20.7625V10.2524C50.0262 9.89174 50.1807 9.58262 50.4383 9.32502C50.6959 9.06741 51.0051 8.91285 51.4172 8.91285C51.7779 8.91285 52.087 9.06741 52.3961 9.32502C52.6537 9.58262 52.8083 9.89174 52.8083 10.2524V20.7625C52.8083 21.1232 52.6537 21.4323 52.3961 21.6899C52.1385 21.9475 51.8294 22.102 51.4172 22.102Z" fill="#E6E6E6"/>
<path d="M58.527 8.91284V6.43987C58.527 6.07923 58.6816 5.7701 58.9392 5.5125C59.1968 5.2549 59.5059 5.10034 59.9181 5.10034C60.2787 5.10034 60.5879 5.2549 60.897 5.5125C61.1546 5.7701 61.3091 6.07923 61.3091 6.43987V8.91284H62.8032C63.1639 8.91284 63.473 9.0674 63.7821 9.325C64.0397 9.5826 64.1943 9.89173 64.1943 10.2524C64.1943 10.613 64.0397 10.9221 63.7821 11.1797C63.5245 11.4373 63.2154 11.5919 62.8032 11.5919H61.3091V20.711C61.3091 21.0716 61.1546 21.3807 60.897 21.6383C60.6394 21.8959 60.3303 22.0505 59.9181 22.0505C59.5575 22.0505 59.2483 21.8959 58.9392 21.6383C58.6816 21.3807 58.527 21.0716 58.527 20.711V11.5919H56.9814C56.6208 11.5919 56.3117 11.4373 56.0025 11.1797C55.7449 10.9221 55.5904 10.613 55.5904 10.2524C55.5904 9.89173 55.7449 9.5826 56.0025 9.325C56.2602 9.0674 56.5693 8.91284 56.9814 8.91284H58.527Z" fill="#E6E6E6"/>
<path d="M69.5009 8.96436C69.8615 8.96436 70.1706 9.06739 70.4282 9.325C70.6858 9.5826 70.7889 9.89172 70.7889 10.2524C70.7889 10.613 70.6858 10.9221 70.4282 11.1797C70.1706 11.4373 69.8615 11.5919 69.5009 11.5919C69.2948 11.5919 69.1402 11.6434 69.0372 11.798C68.9341 11.901 68.8311 12.0556 68.8311 12.2617C68.8311 12.4677 68.8826 12.6223 69.0372 12.7253C69.1402 12.8284 69.3463 12.9314 69.5009 12.9314C70.7889 12.9314 71.8708 13.3951 72.7982 14.2709C73.7255 15.1468 74.1377 16.2287 74.1377 17.5167C74.1377 18.8047 73.674 19.8867 72.7982 20.7625C71.8708 21.6383 70.7889 22.102 69.5009 22.102C68.2129 22.102 67.1309 21.6383 66.2036 20.7625C65.2762 19.8867 64.864 18.8047 64.864 17.5167C64.864 17.1561 65.0186 16.847 65.2762 16.5894C65.5338 16.3318 65.8429 16.2287 66.2036 16.2287C66.5642 16.2287 66.8733 16.3318 67.1309 16.5894C67.3885 16.847 67.4916 17.1561 67.4916 17.5167C67.4916 18.0834 67.6977 18.5471 68.0583 18.9078C68.4189 19.2684 68.9341 19.4745 69.4493 19.4745C70.0161 19.4745 70.4797 19.2684 70.8404 18.9078C71.2526 18.5471 71.4071 18.0834 71.4071 17.5167C71.4071 16.95 71.201 16.4863 70.8404 16.1257C70.4282 15.765 69.9645 15.5589 69.4493 15.5589C68.522 15.5589 67.7492 15.2498 67.0794 14.5801C66.4096 13.9618 66.1005 13.189 66.1005 12.2617C66.1005 11.3343 66.4096 10.5615 67.0794 9.94324C67.8007 9.27348 68.5735 8.96436 69.5009 8.96436Z" fill="#E6E6E6"/>
<path d="M88.1512 10.8706C89.4392 12.1586 90.109 13.7042 90.109 15.5074C90.109 17.3106 89.4392 18.8562 88.1512 20.1443C86.8632 21.4323 85.3176 22.0505 83.4629 22.0505C81.6081 22.0505 80.0625 21.4323 78.7745 20.1443C77.4865 18.8562 76.8167 17.3106 76.8167 15.5074C76.8167 13.7042 77.4865 12.1586 78.7745 10.8706C80.0625 9.5826 81.6081 8.96436 83.4629 8.96436C85.2661 8.96436 86.8117 9.63412 88.1512 10.8706ZM83.4629 11.6434C82.3809 11.6434 81.4536 12.0041 80.6808 12.7769C79.908 13.5497 79.5473 14.477 79.5473 15.5074C79.5473 16.5894 79.908 17.5167 80.6808 18.2895C81.4536 19.0623 82.3809 19.423 83.4629 19.423C84.5448 19.423 85.4721 19.0623 86.245 18.2895C87.0178 17.5167 87.3784 16.5894 87.3784 15.5074C87.3784 14.4255 87.0178 13.4981 86.245 12.7769C85.4721 12.0041 84.5448 11.6434 83.4629 11.6434Z" fill="#E6E6E6"/>
<path d="M99.5372 8.96436C101.392 9.0674 102.938 9.73716 104.122 10.9221C105.41 12.1586 106.029 13.7042 106.08 15.5074V20.5564C106.08 21.0716 105.926 21.4323 105.668 21.6899C105.41 21.9475 105.101 22.102 104.689 22.102C104.329 22.102 104.019 21.9475 103.71 21.6899C103.453 21.4323 103.298 21.0716 103.298 20.5564V15.5074C103.298 15.4044 103.298 15.3529 103.298 15.2498C103.247 14.2709 102.886 13.4466 102.165 12.7769C101.392 12.0041 100.465 11.6434 99.3826 11.6434H99.3311C98.2492 11.6434 97.3218 12.0041 96.549 12.7769C95.8277 13.4466 95.4671 14.2709 95.4155 15.2498C95.4155 15.3529 95.4155 15.4044 95.4155 15.5074V20.5564C95.4155 21.0716 95.261 21.4323 95.0034 21.6899C94.7458 21.9475 94.4367 22.102 94.0245 22.102C93.6639 22.102 93.3547 21.9475 93.0456 21.6899C92.788 21.4323 92.6335 21.0201 92.6335 20.5564V15.5074C92.6335 13.7042 93.3032 12.2101 94.5912 10.9221C95.7762 9.73716 97.3218 9.0674 99.1765 8.96436H99.5372Z" fill="#E6E6E6"/>
<path d="M119.269 20.814C118.136 21.6383 116.848 22.0505 115.354 22.0505C113.499 22.0505 111.954 21.4323 110.666 20.1443C109.378 18.8562 108.708 17.3106 108.708 15.5074C108.708 13.7042 109.378 12.1586 110.666 10.8706C111.954 9.5826 113.499 8.96436 115.354 8.96436C117.209 8.96436 118.754 9.5826 120.042 10.8706C121.33 12.1586 122 13.7042 122 15.5074V20.711C122 20.7625 122 20.8655 122 20.9171C121.948 22.6687 121.33 24.1628 120.042 25.3993C118.754 26.6873 117.209 27.3056 115.354 27.3056H115.302C114.942 27.3056 114.633 27.151 114.323 26.8934C114.014 26.6358 113.911 26.3267 113.911 25.966C113.911 25.6054 114.066 25.2963 114.323 25.0387C114.581 24.7811 114.89 24.6265 115.302 24.6265C115.354 24.6265 115.405 24.6265 115.508 24.6265C116.539 24.575 117.415 24.2144 118.187 23.4931C118.909 22.7718 119.269 21.8444 119.269 20.814ZM115.354 11.5919C114.272 11.5919 113.345 11.9525 112.572 12.7253C111.799 13.4981 111.438 14.4255 111.438 15.4559C111.438 16.5378 111.799 17.4652 112.572 18.238C113.345 19.0108 114.272 19.3714 115.354 19.3714C116.436 19.3714 117.363 19.0108 118.136 18.238C118.909 17.4652 119.269 16.5378 119.269 15.4559C119.269 14.374 118.909 13.4466 118.136 12.7253C117.363 12.0041 116.436 11.5919 115.354 11.5919Z" fill="#E6E6E6"/>
<path d="M13.7044 0C12.674 0 11.6436 0.103041 10.6132 0.360642C10.6132 0.412163 10.6132 0.463682 10.6132 0.515203V17.2593C10.6132 17.6199 10.3041 17.8775 9.99493 17.8775H8.75845C8.50084 17.8775 8.29476 17.6715 8.29476 17.4139V1.08193C3.40034 3.14274 0 7.98564 0 13.5498C0 21.0718 6.13091 27.1512 13.7559 27.1512C21.3809 27.1512 27.4603 21.0718 27.4603 13.6014C27.4603 6.13091 21.2779 0 13.7044 0ZM13.4468 19.2171C13.4468 19.5262 13.1892 19.7838 12.8801 19.7838H11.6436C11.3345 19.7838 11.0769 19.5262 11.0769 19.2171V10.6132C11.0769 10.3041 11.3345 10.0465 11.6436 10.0465H12.8801C13.1892 10.0465 13.4468 10.3041 13.4468 10.6132V19.2171ZM16.2289 20.0414C16.2289 20.3505 15.9713 20.6081 15.6622 20.6081H14.4257C14.1166 20.6081 13.859 20.3505 13.859 20.0414V9.78885C13.859 9.47973 14.1166 9.22213 14.4257 9.22213H15.6622C15.9713 9.22213 16.2289 9.47973 16.2289 9.78885V20.0414ZM19.011 18.4958C19.011 18.8049 18.7534 19.0625 18.4443 19.0625H17.2078C16.8986 19.0625 16.641 18.8049 16.641 18.4958V11.4375C16.641 11.1284 16.8986 10.8708 17.2078 10.8708H18.4443C18.7534 10.8708 19.011 11.1284 19.011 11.4375V18.4958Z" fill="#E6E6E6"/>
</g>
<defs>
<clipPath id="clip0-680483">
<rect width="122" height="27.3057" fill="white"/>
</clipPath>
</defs>
</svg>