<svg width="172" height="64" viewBox="0 0 172 64" fill="none" xmlns="http://www.w3.org/2000/svg">
<g clip-path="url(#clip0-693306)">
<path d="M59.4556 24.3884C59.4556 24.0277 59.6101 23.7186 59.8677 23.461C60.1253 23.2034 60.4344 23.0488 60.8466 23.0488C61.2073 23.0488 61.5164 23.2034 61.8255 23.461C62.0831 23.7186 62.2377 24.0277 62.2377 24.3884V28.2524C63.3711 27.4281 64.6591 27.0159 66.1532 27.0159C68.0079 27.0159 69.5535 27.6341 70.8415 28.9221C72.1296 30.2101 72.7993 31.7558 72.7993 33.559C72.7993 35.3622 72.1296 36.9078 70.8415 38.1958C69.5535 39.4838 68.0079 40.102 66.1532 40.102C64.2985 40.102 62.7529 39.4838 61.4649 38.1958C60.1769 36.9593 59.5586 35.4137 59.5071 33.6105L59.4556 24.3884ZM63.3196 36.2895C64.0924 37.0623 65.0198 37.423 66.1017 37.423C67.1836 37.423 68.111 37.0623 68.8838 36.2895C69.6566 35.5167 70.0172 34.5894 70.0172 33.559C70.0172 32.477 69.6566 31.5497 68.8838 30.7769C68.111 30.0041 67.1836 29.6434 66.1017 29.6434C65.0198 29.6434 64.0924 30.0041 63.3196 30.7769C62.6498 31.4466 62.2892 32.1679 62.1861 33.0438V33.559C62.1861 33.662 62.1861 33.7135 62.1861 33.8166C62.2377 34.7955 62.5983 35.6198 63.3196 36.2895Z" fill="#E6E6E6"/>
<path d="M76.7663 25.6766C76.4056 25.6766 76.0965 25.5221 75.7874 25.2644C75.5298 25.0068 75.3752 24.6977 75.3752 24.3371C75.3752 23.9764 75.5298 23.6673 75.7874 23.4097C76.045 23.1521 76.3541 22.9976 76.7663 22.9976C77.1269 22.9976 77.4361 23.1521 77.7452 23.4097C78.0028 23.6673 78.1573 23.9764 78.1573 24.3371C78.1573 24.6977 78.0028 25.0068 77.7452 25.2644C77.4876 25.5221 77.1269 25.6766 76.7663 25.6766ZM76.7663 40.1023C76.4056 40.1023 76.0965 39.9477 75.7874 39.6901C75.5298 39.4325 75.3752 39.1234 75.3752 38.7628V28.2526C75.3752 27.892 75.5298 27.5829 75.7874 27.3253C76.045 27.0677 76.3541 26.9131 76.7663 26.9131C77.1269 26.9131 77.4361 27.0677 77.7452 27.3253C78.0028 27.5829 78.1573 27.892 78.1573 28.2526V38.7628C78.1573 39.1234 78.0028 39.4325 77.7452 39.6901C77.4876 39.9477 77.1785 40.1023 76.7663 40.1023Z" fill="#E6E6E6"/>
<path d="M83.8761 26.9131V24.4401C83.8761 24.0795 84.0307 23.7703 84.2883 23.5127C84.5459 23.2551 84.855 23.1006 85.2672 23.1006C85.6278 23.1006 85.9369 23.2551 86.246 23.5127C86.5036 23.7703 86.6582 24.0795 86.6582 24.4401V26.9131H88.1523C88.5129 26.9131 88.8221 27.0676 89.1312 27.3252C89.3888 27.5828 89.5433 27.892 89.5433 28.2526C89.5433 28.6133 89.3888 28.9224 89.1312 29.18C88.8736 29.4376 88.5645 29.5921 88.1523 29.5921H86.6582V38.7112C86.6582 39.0719 86.5036 39.381 86.246 39.6386C85.9884 39.8962 85.6793 40.0508 85.2672 40.0508C84.9065 40.0508 84.5974 39.8962 84.2883 39.6386C84.0307 39.381 83.8761 39.0719 83.8761 38.7112V29.5921H82.3305C81.9699 29.5921 81.6607 29.4376 81.3516 29.18C81.094 28.9224 80.9395 28.6133 80.9395 28.2526C80.9395 27.892 81.094 27.5828 81.3516 27.3252C81.6092 27.0676 81.9183 26.9131 82.3305 26.9131H83.8761Z" fill="#E6E6E6"/>
<path d="M94.85 26.9644C95.2106 26.9644 95.5197 27.0674 95.7773 27.325C96.0349 27.5826 96.138 27.8917 96.138 28.2524C96.138 28.613 96.0349 28.9221 95.7773 29.1797C95.5197 29.4373 95.2106 29.5919 94.85 29.5919C94.6439 29.5919 94.4893 29.6434 94.3863 29.798C94.2832 29.901 94.1802 30.0556 94.1802 30.2617C94.1802 30.4677 94.2317 30.6223 94.3863 30.7253C94.4893 30.8284 94.6954 30.9314 94.85 30.9314C96.138 30.9314 97.2199 31.3951 98.1473 32.2709C99.0746 33.1468 99.4868 34.2287 99.4868 35.5167C99.4868 36.8047 99.0231 37.8867 98.1473 38.7625C97.2199 39.6383 96.138 40.102 94.85 40.102C93.562 40.102 92.48 39.6383 91.5527 38.7625C90.6253 37.8867 90.2131 36.8047 90.2131 35.5167C90.2131 35.1561 90.3677 34.847 90.6253 34.5894C90.8829 34.3318 91.192 34.2287 91.5527 34.2287C91.9133 34.2287 92.2224 34.3318 92.48 34.5894C92.7376 34.847 92.8407 35.1561 92.8407 35.5167C92.8407 36.0834 93.0467 36.5471 93.4074 36.9078C93.768 37.2684 94.2832 37.4745 94.7984 37.4745C95.3652 37.4745 95.8288 37.2684 96.1895 36.9078C96.6016 36.5471 96.7562 36.0834 96.7562 35.5167C96.7562 34.95 96.5501 34.4863 96.1895 34.1257C95.7773 33.765 95.3136 33.5589 94.7984 33.5589C93.8711 33.5589 93.0983 33.2498 92.4285 32.5801C91.7587 31.9618 91.4496 31.189 91.4496 30.2617C91.4496 29.3343 91.7587 28.5615 92.4285 27.9432C93.1498 27.2735 93.9226 26.9644 94.85 26.9644Z" fill="#E6E6E6"/>
<path d="M113.5 28.8706C114.788 30.1586 115.458 31.7042 115.458 33.5074C115.458 35.3106 114.788 36.8562 113.5 38.1443C112.212 39.4323 110.667 40.0505 108.812 40.0505C106.957 40.0505 105.412 39.4323 104.124 38.1443C102.836 36.8562 102.166 35.3106 102.166 33.5074C102.166 31.7042 102.836 30.1586 104.124 28.8706C105.412 27.5826 106.957 26.9644 108.812 26.9644C110.615 26.9644 112.161 27.6341 113.5 28.8706ZM108.812 29.6434C107.73 29.6434 106.803 30.0041 106.03 30.7769C105.257 31.5497 104.896 32.477 104.896 33.5074C104.896 34.5894 105.257 35.5167 106.03 36.2895C106.803 37.0623 107.73 37.423 108.812 37.423C109.894 37.423 110.821 37.0623 111.594 36.2895C112.367 35.5167 112.727 34.5894 112.727 33.5074C112.727 32.4255 112.367 31.4981 111.594 30.7769C110.821 30.0041 109.894 29.6434 108.812 29.6434Z" fill="#E6E6E6"/>
<path d="M124.886 26.9644C126.741 27.0674 128.287 27.7372 129.472 28.9221C130.76 30.1586 131.378 31.7042 131.429 33.5074V38.5564C131.429 39.0716 131.275 39.4323 131.017 39.6899C130.76 39.9475 130.451 40.102 130.038 40.102C129.678 40.102 129.369 39.9475 129.06 39.6899C128.802 39.4323 128.647 39.0716 128.647 38.5564V33.5074C128.647 33.4044 128.647 33.3529 128.647 33.2498C128.596 32.2709 128.235 31.4466 127.514 30.7769C126.741 30.0041 125.814 29.6434 124.732 29.6434H124.68C123.598 29.6434 122.671 30.0041 121.898 30.7769C121.177 31.4466 120.816 32.2709 120.765 33.2498C120.765 33.3529 120.765 33.4044 120.765 33.5074V38.5564C120.765 39.0716 120.61 39.4323 120.353 39.6899C120.095 39.9475 119.786 40.102 119.374 40.102C119.013 40.102 118.704 39.9475 118.395 39.6899C118.137 39.4323 117.983 39.0201 117.983 38.5564V33.5074C117.983 31.7042 118.652 30.2101 119.94 28.9221C121.125 27.7372 122.671 27.0674 124.526 26.9644H124.886Z" fill="#E6E6E6"/>
<path d="M144.619 38.814C143.485 39.6383 142.197 40.0505 140.703 40.0505C138.848 40.0505 137.303 39.4323 136.015 38.1443C134.727 36.8562 134.057 35.3106 134.057 33.5074C134.057 31.7042 134.727 30.1586 136.015 28.8706C137.303 27.5826 138.848 26.9644 140.703 26.9644C142.558 26.9644 144.103 27.5826 145.391 28.8706C146.679 30.1586 147.349 31.7042 147.349 33.5074V38.711C147.349 38.7625 147.349 38.8655 147.349 38.9171C147.298 40.6687 146.679 42.1628 145.391 43.3993C144.103 44.6873 142.558 45.3056 140.703 45.3056H140.651C140.291 45.3056 139.982 45.151 139.673 44.8934C139.363 44.6358 139.26 44.3267 139.26 43.966C139.26 43.6054 139.415 43.2963 139.673 43.0387C139.93 42.7811 140.239 42.6265 140.651 42.6265C140.703 42.6265 140.755 42.6265 140.858 42.6265C141.888 42.575 142.764 42.2144 143.537 41.4931C144.258 40.7718 144.619 39.8444 144.619 38.814ZM140.703 29.5919C139.621 29.5919 138.694 29.9525 137.921 30.7253C137.148 31.4981 136.787 32.4255 136.787 33.4559C136.787 34.5378 137.148 35.4652 137.921 36.238C138.694 37.0108 139.621 37.3714 140.703 37.3714C141.785 37.3714 142.712 37.0108 143.485 36.238C144.258 35.4652 144.619 34.5378 144.619 33.4559C144.619 32.374 144.258 31.4466 143.485 30.7253C142.712 30.0041 141.785 29.5919 140.703 29.5919Z" fill="#E6E6E6"/>
<path d="M39.0535 18C38.0231 18 36.9927 18.103 35.9623 18.3606C35.9623 18.4122 35.9623 18.4637 35.9623 18.5152V35.2593C35.9623 35.6199 35.6532 35.8775 35.3441 35.8775H34.1076C33.85 35.8775 33.6439 35.6715 33.6439 35.4139V19.0819C28.7495 21.1427 25.3491 25.9856 25.3491 31.5498C25.3491 39.0718 31.48 45.1512 39.105 45.1512C46.73 45.1512 52.8094 39.0718 52.8094 31.6014C52.8094 24.1309 46.627 18 39.0535 18ZM38.7959 37.2171C38.7959 37.5262 38.5383 37.7838 38.2292 37.7838H36.9927C36.6836 37.7838 36.426 37.5262 36.426 37.2171V28.6132C36.426 28.3041 36.6836 28.0465 36.9927 28.0465H38.2292C38.5383 28.0465 38.7959 28.3041 38.7959 28.6132V37.2171ZM41.578 38.0414C41.578 38.3505 41.3204 38.6081 41.0113 38.6081H39.7748C39.4657 38.6081 39.2081 38.3505 39.2081 38.0414V27.7889C39.2081 27.4797 39.4657 27.2221 39.7748 27.2221H41.0113C41.3204 27.2221 41.578 27.4797 41.578 27.7889V38.0414ZM44.3601 36.4958C44.3601 36.8049 44.1025 37.0625 43.7934 37.0625H42.5569C42.2478 37.0625 41.9902 36.8049 41.9902 36.4958V29.4375C41.9902 29.1284 42.2478 28.8708 42.5569 28.8708H43.7934C44.1025 28.8708 44.3601 29.1284 44.3601 29.4375V36.4958Z" fill="#E6E6E6"/>
</g>
<defs>
<clipPath id="clip0-693306">
<rect width="122" height="27.3057" fill="white" transform="translate(25.3491 18)"/>
</clipPath>
</defs>
</svg>