<svg width="171" height="64" viewBox="0 0 171 64" fill="none" xmlns="http://www.w3.org/2000/svg">
<path fill-rule="evenodd" clip-rule="evenodd" d="M26.345 41.8106C27.6312 41.2267 28.7905 40.4166 29.7726 39.4276C29.8154 39.4338 29.8591 39.4371 29.9037 39.4371C30.399 39.4371 30.8005 39.0356 30.8005 38.5402C30.8005 38.4528 30.788 38.3684 30.7647 38.2885C31.1472 37.7866 31.49 37.2516 31.7882 36.6881L30.5847 36.0511C30.2584 36.6676 29.8718 37.2453 29.4327 37.7769C29.4009 37.7965 29.3704 37.8181 29.3415 37.8414L27.0795 36.2735C27.3839 35.9374 27.6587 35.5724 27.8992 35.1822L26.8868 34.5581C26.7381 34.7993 26.5738 35.0291 26.3954 35.2462C26.2659 35.1736 26.1165 35.1322 25.9575 35.1322C25.4621 35.1322 25.0606 35.5337 25.0606 36.029C25.0606 36.163 25.09 36.2902 25.1427 36.4043C24.7325 36.6907 24.287 36.9285 23.8145 37.1108C23.4593 37.2479 23.0943 37.3515 22.7241 37.4214C22.5769 37.1274 22.2729 36.9255 21.9217 36.9255C21.5356 36.9255 21.2066 37.1694 21.0802 37.5115C20.6571 37.4787 20.2361 37.4028 19.8239 37.2835C19.1084 37.0764 18.4407 36.7447 17.8492 36.3082C17.9292 36.174 17.9752 36.0171 17.9752 35.8494C17.9752 35.3541 17.5737 34.9526 17.0784 34.9526C16.9044 34.9526 16.742 35.0021 16.6045 35.0879C16.5836 35.0607 16.563 35.0333 16.5425 35.0058C15.8123 34.023 15.3885 32.8502 15.3187 31.6341C15.7985 31.6164 16.1819 31.2219 16.1819 30.7378C16.1819 30.3875 15.981 30.0841 15.6882 29.9365L15.6519 29.2316C15.8745 28.5878 16.2023 27.9805 16.626 27.4357C17.4655 26.3565 18.6355 25.5821 19.9569 25.231C19.9878 25.2228 20.0187 25.2148 20.0496 25.2071L20.4998 25.4203C20.5725 25.8426 20.9405 26.1639 21.3836 26.1639C21.8789 26.1639 22.2804 25.7624 22.2804 25.2671C22.2804 25.1957 22.2721 25.1264 22.2563 25.0598C22.8322 25.1241 23.4 25.2684 23.9428 25.4918C24.4506 25.7007 24.9254 25.9742 25.3565 26.3031C25.3389 26.3732 25.3296 26.4465 25.3296 26.522C25.3296 27.0174 25.7311 27.4189 26.2264 27.4189C26.3079 27.4189 26.3869 27.408 26.462 27.3876C26.6432 27.616 26.8091 27.8579 26.958 28.1117L27.9839 27.51C27.7277 27.0731 27.4291 26.6661 27.094 26.2941C27.09 26.2786 27.0855 26.2633 27.0807 26.2481L29.0652 24.5901C29.1603 24.6504 29.2675 24.6933 29.3823 24.7143C29.741 25.1417 30.0658 25.5999 30.3524 26.0853L31.5249 25.3929C31.2042 24.8499 30.8414 24.3369 30.4412 23.8578C30.4414 23.8493 30.4415 23.8407 30.4415 23.8321C30.4415 23.3491 30.0597 22.9553 29.5815 22.936C28.5113 21.9071 27.2459 21.0869 25.8488 20.5297L25.8458 20.5285C25.6929 20.2523 25.3986 20.0653 25.0606 20.0653C24.9327 20.0653 24.8111 20.092 24.7011 20.1403C22.6427 19.5602 20.4553 19.5599 18.3838 20.1519C17.2062 20.4885 16.0978 21.0074 15.0958 21.6829C15.0695 21.6806 15.0428 21.6794 15.0159 21.6794C14.5789 21.6794 14.2149 21.992 14.1353 22.4058C13.4318 22.9949 12.7966 23.6691 12.2459 24.4173C10.7282 26.4791 9.9372 28.986 9.99687 31.5455C10.0135 32.2587 10.0959 32.9648 10.2411 33.6553C9.88834 33.776 9.63477 34.1104 9.63477 34.504C9.63477 34.9993 10.0363 35.4009 10.5316 35.4009C10.6049 35.4009 10.6762 35.3921 10.7445 35.3755C11.1783 36.5204 11.7941 37.597 12.5756 38.5611C13.0417 39.136 13.5591 39.6616 14.1194 40.1325L14.1191 40.1548C14.1191 40.6501 14.5206 41.0517 15.0159 41.0517C15.1162 41.0517 15.2125 41.0352 15.3025 41.0049C16.4005 41.7114 17.6177 42.2318 18.9057 42.5358C20.3629 42.8797 21.8627 42.9352 23.3232 42.7104C23.4504 43.0511 23.7787 43.2937 24.1637 43.2937C24.659 43.2937 25.0606 42.8922 25.0606 42.3969C25.0606 42.3659 25.059 42.3354 25.056 42.3052C25.4933 42.1667 25.9238 42.0018 26.345 41.8106ZM28.6534 23.9327C27.7749 23.0845 26.7465 22.396 25.6134 21.9062L26.1648 25.4248C26.2576 25.4978 26.3486 25.573 26.4378 25.6503C26.5285 25.6722 26.6139 25.7079 26.6916 25.7551L28.6853 24.0895C28.6702 24.039 28.6595 23.9866 28.6534 23.9327ZM24.6686 21.769L22.9651 23.9652C23.4522 24.0586 23.9314 24.201 24.3953 24.3919C24.7629 24.5431 25.1159 24.7228 25.4515 24.9284L24.9698 21.8544C24.8627 21.8437 24.7612 21.8141 24.6686 21.769ZM24.1577 21.4035C22.3926 20.9396 20.5274 20.9555 18.758 21.4612C17.8173 21.73 16.9267 22.1308 16.1105 22.6465L19.334 24.1734C19.4389 24.1405 19.5448 24.1098 19.6515 24.0815C20.5035 23.8551 21.3829 23.7834 22.2493 23.8636L24.1577 21.4035ZM18.5197 24.4824L15.7057 23.1495C15.6118 23.2624 15.4907 23.3519 15.3524 23.4079L15.5326 26.9116C15.5829 26.8421 15.6344 26.7734 15.6872 26.7055C16.439 25.739 17.4134 24.978 18.5197 24.4824ZM14.9524 27.8534L14.7381 23.6853C14.2247 24.147 13.7565 24.6621 13.3425 25.2246C12.0034 27.0437 11.3055 29.2555 11.3582 31.5137C11.3722 32.1143 11.439 32.709 11.5564 33.2916L14.1201 31.3977C14.119 31.3297 14.1188 31.2617 14.1195 31.1936C14.1324 30.0241 14.4205 28.8809 14.9524 27.8534ZM14.1696 32.1416L11.7136 33.956C11.762 34.134 11.8152 34.3105 11.8731 34.4854L15.2331 35.1928C14.6588 34.2649 14.2963 33.2229 14.1696 32.1416ZM15.7671 35.9468C15.935 36.1551 16.1134 36.3536 16.3015 36.5415L15.0749 39.1562C14.55 38.724 14.0666 38.238 13.6334 37.7036C13.0099 36.9345 12.506 36.0842 12.1322 35.1815L15.7671 35.9468ZM15.6136 39.4861L16.7868 36.9853C17.5314 37.6082 18.3948 38.0827 19.3306 38.3769L15.7133 39.5909C15.6829 39.5533 15.6496 39.5183 15.6136 39.4861ZM16.3366 40.0439C17.2261 40.5741 18.197 40.9695 19.2185 41.2105C20.5631 41.5278 21.9489 41.5669 23.2931 41.3357L22.0421 38.7111C22.0027 38.7164 21.9625 38.7192 21.9217 38.7192C21.8912 38.7192 21.861 38.7176 21.8313 38.7147C21.3896 38.7306 20.9464 38.7072 20.5071 38.6443L16.3366 40.0439ZM22.6999 38.6322L23.9267 41.206C24.0642 41.1733 24.201 41.1377 24.3372 41.0992L25.2364 37.75C24.9187 37.9302 24.5867 38.0877 24.2427 38.2204C23.7417 38.4137 23.2244 38.5511 22.6999 38.6322ZM26.0249 37.2339L25.0488 40.8698C25.2963 40.7799 25.541 40.6801 25.7821 40.5707C26.9769 40.0283 28.0476 39.2647 28.9423 38.3286L26.6318 36.727C26.4386 36.9066 26.236 37.0758 26.0249 37.2339Z" fill="white"/>
<path d="M37.7397 29.6922C37.7151 29.7168 37.6906 29.7389 37.666 29.7585C37.6464 29.7732 37.6169 29.7806 37.5776 29.7806C37.5285 29.7806 37.4623 29.7487 37.3788 29.6848C37.2953 29.6161 37.1824 29.5424 37.0399 29.4639C36.8975 29.3853 36.7183 29.3141 36.5022 29.2503C36.2911 29.1815 36.0333 29.1471 35.7288 29.1471C35.3065 29.1471 34.9309 29.2233 34.6019 29.3755C34.2778 29.5228 34.0028 29.7364 33.7769 30.0163C33.551 30.2962 33.3792 30.635 33.2613 31.0328C33.1484 31.4305 33.0919 31.8774 33.0919 32.3733C33.0919 32.889 33.1508 33.3456 33.2687 33.7434C33.3914 34.1411 33.5633 34.4775 33.7843 34.7525C34.0052 35.0226 34.2729 35.2288 34.5871 35.3712C34.9014 35.5136 35.2501 35.5848 35.6331 35.5848C35.9866 35.5848 36.2813 35.5431 36.517 35.4596C36.7576 35.3761 36.954 35.2853 37.1062 35.1871C37.2634 35.0889 37.3861 34.998 37.4745 34.9145C37.5629 34.8311 37.6366 34.7893 37.6955 34.7893C37.7544 34.7893 37.8035 34.8139 37.8428 34.863L38.027 35.0987C37.914 35.246 37.7716 35.3835 37.5997 35.5112C37.4279 35.6388 37.2339 35.7493 37.0178 35.8426C36.8018 35.9359 36.5661 36.0071 36.3107 36.0562C36.0603 36.1103 35.7976 36.1373 35.5226 36.1373C35.0561 36.1373 34.6289 36.0538 34.241 35.8868C33.8579 35.715 33.5265 35.4694 33.2466 35.1502C32.9716 34.8262 32.7555 34.4309 32.5984 33.9644C32.4462 33.4979 32.37 32.9675 32.37 32.3733C32.37 31.8135 32.4437 31.3029 32.591 30.8413C32.7383 30.3797 32.9544 29.9819 33.2392 29.648C33.524 29.3141 33.8702 29.0563 34.2778 28.8746C34.6903 28.688 35.1617 28.5947 35.692 28.5947C36.1683 28.5947 36.5906 28.6708 36.9589 28.823C37.3272 28.9753 37.6488 29.1815 37.9238 29.4418L37.7397 29.6922ZM42.8134 28.5947C43.3389 28.5947 43.8078 28.6856 44.2203 28.8672C44.6377 29.044 44.9888 29.2969 45.2736 29.6259C45.5584 29.9549 45.7745 30.3527 45.9218 30.8192C46.074 31.2808 46.1501 31.7988 46.1501 32.3733C46.1501 32.9479 46.074 33.4659 45.9218 33.9275C45.7745 34.3891 45.5584 34.7844 45.2736 35.1134C44.9888 35.4424 44.6377 35.6953 44.2203 35.8721C43.8078 36.0489 43.3389 36.1373 42.8134 36.1373C42.288 36.1373 41.8166 36.0489 41.3992 35.8721C40.9867 35.6953 40.6356 35.4424 40.3459 35.1134C40.0611 34.7844 39.8426 34.3891 39.6904 33.9275C39.543 33.4659 39.4694 32.9479 39.4694 32.3733C39.4694 31.7988 39.543 31.2808 39.6904 30.8192C39.8426 30.3527 40.0611 29.9549 40.3459 29.6259C40.6356 29.2969 40.9867 29.044 41.3992 28.8672C41.8166 28.6856 42.288 28.5947 42.8134 28.5947ZM42.8134 35.5848C43.2505 35.5848 43.631 35.5112 43.9551 35.3639C44.2841 35.2116 44.5567 34.9956 44.7727 34.7157C44.9937 34.4358 45.1582 34.0994 45.2662 33.7066C45.3743 33.3088 45.4283 32.8644 45.4283 32.3733C45.4283 31.8872 45.3743 31.4453 45.2662 31.0475C45.1582 30.6498 44.9937 30.3109 44.7727 30.031C44.5567 29.7462 44.2841 29.5277 43.9551 29.3755C43.631 29.2233 43.2505 29.1471 42.8134 29.1471C42.3764 29.1471 41.9934 29.2233 41.6644 29.3755C41.3403 29.5277 41.0678 29.7462 40.8468 30.031C40.6307 30.3109 40.4662 30.6498 40.3533 31.0475C40.2452 31.4453 40.1912 31.8872 40.1912 32.3733C40.1912 32.8644 40.2452 33.3088 40.3533 33.7066C40.4662 34.0994 40.6307 34.4358 40.8468 34.7157C41.0678 34.9956 41.3403 35.2116 41.6644 35.3639C41.9934 35.5112 42.3764 35.5848 42.8134 35.5848ZM48.4205 36.0415L48.4205 28.7126L48.8109 28.7126C48.9337 28.7126 49.0049 28.7739 49.0245 28.8967L49.0908 29.9574C49.3756 29.5498 49.7022 29.2208 50.0705 28.9704C50.4387 28.7199 50.8537 28.5947 51.3153 28.5947C51.8505 28.5947 52.2777 28.7494 52.5969 29.0587C52.921 29.3681 53.1395 29.7978 53.2525 30.3478C53.3409 30.0482 53.4636 29.788 53.6208 29.567C53.7828 29.346 53.967 29.1643 54.1732 29.0219C54.3794 28.8746 54.6029 28.7666 54.8435 28.6978C55.089 28.6291 55.3394 28.5947 55.5948 28.5947C55.9582 28.5947 56.2847 28.6561 56.5744 28.7789C56.8642 28.8967 57.1097 29.0735 57.311 29.3092C57.5123 29.5449 57.667 29.8346 57.7751 30.1783C57.8831 30.5221 57.9371 30.9149 57.9371 31.3569V36.0415H57.2374V31.3569C57.2374 30.6399 57.0827 30.0949 56.7733 29.7217C56.464 29.3436 56.022 29.1545 55.4475 29.1545C55.1921 29.1545 54.9466 29.2012 54.7109 29.2945C54.4801 29.3878 54.2739 29.5277 54.0922 29.7143C53.9154 29.896 53.773 30.1243 53.665 30.3993C53.5618 30.6743 53.5103 30.9935 53.5103 31.3569V36.0415H52.8032V31.3569C52.8032 30.6448 52.6608 30.0998 52.3759 29.7217C52.096 29.3436 51.6836 29.1545 51.1385 29.1545C50.7407 29.1545 50.3725 29.2724 50.0336 29.5081C49.6948 29.7438 49.3928 30.0703 49.1276 30.4877L49.1276 36.0415H48.4205ZM60.5695 36.0415L60.5695 28.7126H60.9598C61.0826 28.7126 61.1538 28.7739 61.1734 28.8967L61.2397 29.9574C61.5245 29.5498 61.8511 29.2208 62.2194 28.9704C62.5877 28.7199 63.0026 28.5947 63.4642 28.5947C63.9994 28.5947 64.4267 28.7494 64.7458 29.0587C65.0699 29.3681 65.2885 29.7978 65.4014 30.3478C65.4898 30.0482 65.6126 29.788 65.7697 29.567C65.9317 29.346 66.1159 29.1643 66.3221 29.0219C66.5284 28.8746 66.7518 28.7666 66.9924 28.6978C67.2379 28.6291 67.4884 28.5947 67.7437 28.5947C68.1071 28.5947 68.4336 28.6561 68.7234 28.7789C69.0131 28.8967 69.2586 29.0735 69.4599 29.3092C69.6613 29.5449 69.816 29.8346 69.924 30.1783C70.032 30.5221 70.086 30.9149 70.086 31.3569V36.0415H69.3863V31.3569C69.3863 30.6399 69.2316 30.0949 68.9222 29.7217C68.6129 29.3436 68.1709 29.1545 67.5964 29.1545C67.3411 29.1545 67.0955 29.2012 66.8598 29.2945C66.629 29.3878 66.4228 29.5277 66.2411 29.7143C66.0643 29.896 65.9219 30.1243 65.8139 30.3993C65.7108 30.6743 65.6592 30.9935 65.6592 31.3569V36.0415H64.9521V31.3569C64.9521 30.6448 64.8097 30.0998 64.5249 29.7217C64.245 29.3436 63.8325 29.1545 63.2874 29.1545C62.8897 29.1545 62.5214 29.2724 62.1826 29.5081C61.8437 29.7438 61.5417 30.0703 61.2766 30.4877L61.2766 36.0415H60.5695ZM77.8597 31.6368C77.8597 31.2439 77.8032 30.8928 77.6903 30.5835C77.5822 30.2692 77.4276 30.004 77.2262 29.788C77.0249 29.5719 76.7843 29.4074 76.5044 29.2945C76.2294 29.1766 75.9249 29.1177 75.591 29.1177C75.2129 29.1177 74.8741 29.1766 74.5745 29.2945C74.275 29.4123 74.0148 29.5817 73.7938 29.8027C73.5777 30.0237 73.4034 30.2888 73.2708 30.5982C73.1382 30.9076 73.0498 31.2538 73.0056 31.6368L77.8597 31.6368ZM72.9688 32.0861V32.226C72.9688 32.776 73.0326 33.2597 73.1603 33.6771C73.288 34.0945 73.4697 34.4456 73.7054 34.7304C73.9411 35.0103 74.2259 35.2214 74.5598 35.3639C74.8937 35.5063 75.2669 35.5775 75.6794 35.5775C76.0477 35.5775 76.3669 35.5382 76.637 35.4596C76.907 35.3761 77.1329 35.2853 77.3146 35.1871C77.5012 35.084 77.6485 34.9931 77.7566 34.9145C77.8646 34.8311 77.9432 34.7893 77.9923 34.7893C78.0561 34.7893 78.1052 34.8139 78.1396 34.863L78.3311 35.0987C78.2132 35.246 78.0561 35.3835 77.8597 35.5112C77.6682 35.6388 77.4521 35.7493 77.2115 35.8426C76.9758 35.931 76.7204 36.0022 76.4455 36.0562C76.1754 36.1103 75.9028 36.1373 75.6279 36.1373C75.127 36.1373 74.6703 36.0513 74.2578 35.8795C73.8453 35.7027 73.4918 35.4473 73.1971 35.1134C72.9025 34.7795 72.6742 34.3719 72.5121 33.8907C72.355 33.4046 72.2764 32.8497 72.2764 32.226C72.2764 31.7006 72.3501 31.2169 72.4974 30.775C72.6496 30.3281 72.8657 29.9451 73.1456 29.6259C73.4304 29.3018 73.7766 29.0489 74.1842 28.8672C74.5966 28.6856 75.0631 28.5947 75.5837 28.5947C75.9961 28.5947 76.3792 28.6659 76.7327 28.8083C77.0863 28.9507 77.3932 29.1594 77.6534 29.4344C77.9137 29.7045 78.1175 30.0384 78.2648 30.4361C78.417 30.8339 78.4931 31.2906 78.4931 31.8062C78.4931 31.9142 78.4784 31.9879 78.4489 32.0272C78.4195 32.0664 78.3704 32.0861 78.3016 32.0861L72.9688 32.0861ZM81.3656 30.4803C81.4785 30.1808 81.6062 29.9156 81.7486 29.6848C81.8959 29.4491 82.0629 29.2503 82.2495 29.0882C82.441 28.9262 82.6521 28.8034 82.8829 28.7199C83.1186 28.6315 83.3789 28.5873 83.6637 28.5873C83.8159 28.5873 83.9657 28.6021 84.113 28.6315C84.2603 28.6561 84.3904 28.7027 84.5034 28.7715L84.4445 29.2576C84.4199 29.3362 84.3733 29.3755 84.3045 29.3755C84.2456 29.3755 84.1547 29.3583 84.032 29.3239C83.9141 29.2895 83.757 29.2724 83.5606 29.2724C83.2758 29.2724 83.0229 29.3166 82.8019 29.4049C82.5858 29.4884 82.3894 29.6161 82.2126 29.788C82.0408 29.9598 81.8885 30.1734 81.7559 30.4288C81.6283 30.6792 81.5104 30.9689 81.4024 31.2979V36.0415H80.6953V28.7126H81.0709C81.1544 28.7126 81.2133 28.7297 81.2477 28.7641C81.2821 28.7985 81.3042 28.8574 81.314 28.9409L81.3656 30.4803ZM90.7082 29.6922C90.6837 29.7168 90.6591 29.7389 90.6346 29.7585C90.6149 29.7732 90.5855 29.7806 90.5462 29.7806C90.4971 29.7806 90.4308 29.7487 90.3473 29.6848C90.2638 29.6161 90.1509 29.5424 90.0085 29.4639C89.8661 29.3853 89.6869 29.3141 89.4708 29.2503C89.2596 29.1815 89.0018 29.1471 88.6974 29.1471C88.2751 29.1471 87.8994 29.2233 87.5704 29.3755C87.2463 29.5228 86.9713 29.7364 86.7455 30.0163C86.5196 30.2962 86.3477 30.635 86.2299 31.0328C86.1169 31.4305 86.0604 31.8774 86.0604 32.3733C86.0604 32.889 86.1194 33.3456 86.2372 33.7434C86.36 34.1411 86.5318 34.4775 86.7528 34.7525C86.9738 35.0226 87.2414 35.2288 87.5557 35.3712C87.87 35.5136 88.2186 35.5848 88.6016 35.5848C88.9552 35.5848 89.2498 35.5431 89.4855 35.4596C89.7261 35.3761 89.9226 35.2853 90.0748 35.1871C90.2319 35.0889 90.3547 34.998 90.4431 34.9145C90.5315 34.8311 90.6051 34.7893 90.664 34.7893C90.723 34.7893 90.7721 34.8139 90.8114 34.863L90.9955 35.0987C90.8826 35.246 90.7402 35.3835 90.5683 35.5112C90.3964 35.6388 90.2025 35.7493 89.9864 35.8426C89.7703 35.9359 89.5346 36.0071 89.2793 36.0562C89.0288 36.1103 88.7661 36.1373 88.4911 36.1373C88.0246 36.1373 87.5974 36.0538 87.2095 35.8868C86.8265 35.715 86.495 35.4694 86.2151 35.1502C85.9401 34.8262 85.7241 34.4309 85.5669 33.9644C85.4147 33.4979 85.3386 32.9675 85.3386 32.3733C85.3386 31.8135 85.4122 31.3029 85.5596 30.8413C85.7069 30.3797 85.9229 29.9819 86.2078 29.648C86.4926 29.3141 86.8388 29.0563 87.2463 28.8746C87.6588 28.688 88.1302 28.5947 88.6606 28.5947C89.1369 28.5947 89.5592 28.6708 89.9275 28.823C90.2958 28.9753 90.6174 29.1815 90.8924 29.4418L90.7082 29.6922ZM93.8045 28.7126V36.0415H93.1048V28.7126H93.8045ZM94.1065 26.1861C94.1065 26.2745 94.0869 26.358 94.0476 26.4365C94.0132 26.5102 93.9666 26.5765 93.9076 26.6354C93.8487 26.6943 93.78 26.741 93.7014 26.7754C93.6228 26.8097 93.5393 26.8269 93.451 26.8269C93.3626 26.8269 93.2791 26.8097 93.2005 26.7754C93.122 26.741 93.0532 26.6943 92.9943 26.6354C92.9354 26.5765 92.8887 26.5102 92.8543 26.4365C92.82 26.358 92.8028 26.2745 92.8028 26.1861C92.8028 26.0977 92.82 26.0142 92.8543 25.9357C92.8887 25.8522 92.9354 25.781 92.9943 25.7221C93.0532 25.6631 93.122 25.6165 93.2005 25.5821C93.2791 25.5477 93.3626 25.5305 93.451 25.5305C93.5393 25.5305 93.6228 25.5477 93.7014 25.5821C93.78 25.6165 93.8487 25.6631 93.9076 25.7221C93.9666 25.781 94.0132 25.8522 94.0476 25.9357C94.0869 26.0142 94.1065 26.0977 94.1065 26.1861ZM99.5006 28.5947C100.026 28.5947 100.495 28.6856 100.907 28.8672C101.325 29.044 101.676 29.2969 101.961 29.6259C102.246 29.9549 102.462 30.3527 102.609 30.8192C102.761 31.2808 102.837 31.7988 102.837 32.3733C102.837 32.9479 102.761 33.4659 102.609 33.9275C102.462 34.3891 102.246 34.7844 101.961 35.1134C101.676 35.4424 101.325 35.6953 100.907 35.8721C100.495 36.0489 100.026 36.1373 99.5006 36.1373C98.9751 36.1373 98.5037 36.0489 98.0863 35.8721C97.6738 35.6953 97.3227 35.4424 97.033 35.1134C96.7482 34.7844 96.5297 34.3891 96.3775 33.9275C96.2302 33.4659 96.1565 32.9479 96.1565 32.3733C96.1565 31.7988 96.2302 31.2808 96.3775 30.8192C96.5297 30.3527 96.7482 29.9549 97.033 29.6259C97.3227 29.2969 97.6738 29.044 98.0863 28.8672C98.5037 28.6856 98.9751 28.5947 99.5006 28.5947ZM99.5006 35.5848C99.9376 35.5848 100.318 35.5112 100.642 35.3639C100.971 35.2116 101.244 34.9956 101.46 34.7157C101.681 34.4358 101.845 34.0994 101.953 33.7066C102.061 33.3088 102.115 32.8644 102.115 32.3733C102.115 31.8872 102.061 31.4453 101.953 31.0475C101.845 30.6498 101.681 30.3109 101.46 30.031C101.244 29.7462 100.971 29.5277 100.642 29.3755C100.318 29.2233 99.9376 29.1471 99.5006 29.1471C99.0635 29.1471 98.6805 29.2233 98.3515 29.3755C98.0274 29.5277 97.7549 29.7462 97.5339 30.031C97.3178 30.3109 97.1533 30.6498 97.0404 31.0475C96.9324 31.4453 96.8783 31.8872 96.8783 32.3733C96.8783 32.8644 96.9324 33.3088 97.0404 33.7066C97.1533 34.0994 97.3178 34.4358 97.5339 34.7157C97.7549 34.9956 98.0274 35.2116 98.3515 35.3639C98.6805 35.5112 99.0635 35.5848 99.5006 35.5848ZM104.938 35.4743C104.938 35.381 104.955 35.2927 104.99 35.2092C105.024 35.1257 105.071 35.0545 105.13 34.9956C105.194 34.9317 105.265 34.8826 105.343 34.8482C105.427 34.809 105.518 34.7893 105.616 34.7893C105.709 34.7893 105.798 34.809 105.881 34.8482C105.965 34.8826 106.036 34.9317 106.095 34.9956C106.158 35.0545 106.208 35.1257 106.242 35.2092C106.281 35.2927 106.301 35.381 106.301 35.4743C106.301 35.5725 106.281 35.6634 106.242 35.7469C106.208 35.8254 106.158 35.8966 106.095 35.9605C106.036 36.0194 105.965 36.0661 105.881 36.1004C105.798 36.1348 105.709 36.152 105.616 36.152C105.424 36.152 105.262 36.0882 105.13 35.9605C105.002 35.8279 104.938 35.6658 104.938 35.4743ZM109.511 29.9942C109.85 29.5719 110.24 29.2331 110.682 28.9777C111.129 28.7224 111.625 28.5947 112.17 28.5947C112.573 28.5947 112.926 28.6585 113.231 28.7862C113.54 28.9139 113.795 29.098 113.997 29.3386C114.198 29.5793 114.35 29.869 114.453 30.2078C114.556 30.5466 114.608 30.9297 114.608 31.3569L114.608 36.0415H113.901L113.901 31.3569C113.901 30.6694 113.744 30.1317 113.429 29.7438C113.115 29.3509 112.636 29.1545 111.993 29.1545C111.517 29.1545 111.07 29.2773 110.653 29.5228C110.24 29.7634 109.872 30.0998 109.548 30.5319L109.548 36.0415H108.841L108.841 28.7126H109.231C109.354 28.7126 109.425 28.7739 109.445 28.8967L109.511 29.9942ZM122.376 31.6368C122.376 31.2439 122.32 30.8928 122.207 30.5835C122.099 30.2692 121.944 30.004 121.743 29.788C121.541 29.5719 121.301 29.4074 121.021 29.2945C120.746 29.1766 120.441 29.1177 120.107 29.1177C119.729 29.1177 119.39 29.1766 119.091 29.2945C118.791 29.4123 118.531 29.5817 118.31 29.8027C118.094 30.0237 117.92 30.2888 117.787 30.5982C117.655 30.9076 117.566 31.2538 117.522 31.6368L122.376 31.6368ZM117.485 32.0861V32.226C117.485 32.776 117.549 33.2597 117.677 33.6771C117.804 34.0945 117.986 34.4456 118.222 34.7304C118.457 35.0103 118.742 35.2214 119.076 35.3639C119.41 35.5063 119.783 35.5775 120.196 35.5775C120.564 35.5775 120.883 35.5382 121.153 35.4596C121.423 35.3761 121.649 35.2853 121.831 35.1871C122.018 35.084 122.165 34.9931 122.273 34.9145C122.381 34.8311 122.459 34.7893 122.509 34.7893C122.572 34.7893 122.622 34.8139 122.656 34.863L122.847 35.0987C122.73 35.246 122.572 35.3835 122.376 35.5112C122.184 35.6388 121.968 35.7493 121.728 35.8426C121.492 35.931 121.237 36.0022 120.962 36.0562C120.692 36.1103 120.419 36.1373 120.144 36.1373C119.643 36.1373 119.187 36.0513 118.774 35.8795C118.362 35.7027 118.008 35.4473 117.713 35.1134C117.419 34.7795 117.191 34.3719 117.028 33.8907C116.871 33.4046 116.793 32.8497 116.793 32.226C116.793 31.7006 116.866 31.2169 117.014 30.775C117.166 30.3281 117.382 29.9451 117.662 29.6259C117.947 29.3018 118.293 29.0489 118.7 28.8672C119.113 28.6856 119.579 28.5947 120.1 28.5947C120.512 28.5947 120.895 28.6659 121.249 28.8083C121.603 28.9507 121.91 29.1594 122.17 29.4344C122.43 29.7045 122.634 30.0384 122.781 30.4361C122.933 30.8339 123.009 31.2906 123.009 31.8062C123.009 31.9142 122.995 31.9879 122.965 32.0272C122.936 32.0664 122.887 32.0861 122.818 32.0861L117.485 32.0861ZM127.186 36.1594C126.69 36.1594 126.302 36.0219 126.023 35.7469C125.748 35.4719 125.61 35.0471 125.61 34.4726L125.61 29.4639H124.557C124.503 29.4639 124.459 29.4491 124.424 29.4197C124.39 29.3902 124.373 29.3485 124.373 29.2945V29.0219L125.625 28.9335L125.802 26.3113C125.811 26.2671 125.831 26.2278 125.86 26.1935C125.89 26.1591 125.932 26.1419 125.986 26.1419H126.317V28.9409L128.63 28.9409V29.4639L126.317 29.4639L126.317 34.4358C126.317 34.6371 126.342 34.8114 126.391 34.9587C126.445 35.1011 126.516 35.219 126.604 35.3123C126.698 35.4056 126.806 35.4743 126.929 35.5185C127.051 35.5627 127.184 35.5848 127.326 35.5848C127.503 35.5848 127.655 35.5603 127.783 35.5112C127.911 35.4572 128.021 35.4007 128.114 35.3418C128.208 35.2779 128.284 35.2214 128.343 35.1723C128.402 35.1183 128.448 35.0913 128.483 35.0913C128.522 35.0913 128.561 35.1159 128.601 35.165L128.792 35.4743C128.605 35.6806 128.367 35.8475 128.078 35.9752C127.793 36.098 127.496 36.1594 127.186 36.1594ZM140.213 28.7126L137.768 36.0415H137.245C137.161 36.0415 137.105 35.9899 137.075 35.8868L135.072 29.9353C135.047 29.8616 135.025 29.788 135.005 29.7143C134.986 29.6406 134.969 29.567 134.954 29.4933C134.929 29.6406 134.892 29.788 134.843 29.9353L132.81 35.8868C132.781 35.9899 132.722 36.0415 132.634 36.0415H132.133L129.687 28.7126H130.218C130.286 28.7126 130.343 28.7322 130.387 28.7715C130.431 28.8059 130.461 28.8451 130.475 28.8893L132.324 34.6715C132.354 34.7844 132.381 34.8949 132.405 35.0029C132.43 35.1061 132.45 35.2092 132.464 35.3123C132.494 35.2092 132.523 35.1061 132.553 35.0029C132.582 34.8949 132.616 34.7844 132.656 34.6715L134.615 28.8378C134.649 28.7297 134.718 28.6757 134.821 28.6757H135.109C135.217 28.6757 135.288 28.7297 135.322 28.8378L137.267 34.6715C137.301 34.7844 137.333 34.8924 137.362 34.9956C137.392 35.0987 137.419 35.2018 137.444 35.3049C137.463 35.2018 137.483 35.0987 137.502 34.9956C137.527 34.8924 137.556 34.7844 137.591 34.6715L139.454 28.8893C139.474 28.8353 139.506 28.7936 139.55 28.7641C139.594 28.7297 139.646 28.7126 139.705 28.7126L140.213 28.7126ZM144.902 28.5947C145.427 28.5947 145.896 28.6856 146.309 28.8672C146.726 29.044 147.077 29.2969 147.362 29.6259C147.647 29.9549 147.863 30.3527 148.01 30.8192C148.163 31.2808 148.239 31.7988 148.239 32.3733C148.239 32.9479 148.163 33.4659 148.01 33.9275C147.863 34.3891 147.647 34.7844 147.362 35.1134C147.077 35.4424 146.726 35.6953 146.309 35.8721C145.896 36.0489 145.427 36.1373 144.902 36.1373C144.377 36.1373 143.905 36.0489 143.488 35.8721C143.075 35.6953 142.724 35.4424 142.434 35.1134C142.15 34.7844 141.931 34.3891 141.779 33.9275C141.632 33.4659 141.558 32.9479 141.558 32.3733C141.558 31.7988 141.632 31.2808 141.779 30.8192C141.931 30.3527 142.15 29.9549 142.434 29.6259C142.724 29.2969 143.075 29.044 143.488 28.8672C143.905 28.6856 144.377 28.5947 144.902 28.5947ZM144.902 35.5848C145.339 35.5848 145.72 35.5112 146.044 35.3639C146.373 35.2116 146.645 34.9956 146.861 34.7157C147.082 34.4358 147.247 34.0994 147.355 33.7066C147.463 33.3088 147.517 32.8644 147.517 32.3733C147.517 31.8872 147.463 31.4453 147.355 31.0475C147.247 30.6498 147.082 30.3109 146.861 30.031C146.645 29.7462 146.373 29.5277 146.044 29.3755C145.72 29.2233 145.339 29.1471 144.902 29.1471C144.465 29.1471 144.082 29.2233 143.753 29.3755C143.429 29.5277 143.156 29.7462 142.935 30.031C142.719 30.3109 142.555 30.6498 142.442 31.0475C142.334 31.4453 142.28 31.8872 142.28 32.3733C142.28 32.8644 142.334 33.3088 142.442 33.7066C142.555 34.0994 142.719 34.4358 142.935 34.7157C143.156 34.9956 143.429 35.2116 143.753 35.3639C144.082 35.5112 144.465 35.5848 144.902 35.5848ZM151.179 30.4803C151.292 30.1808 151.42 29.9156 151.562 29.6848C151.71 29.4491 151.877 29.2503 152.063 29.0882C152.255 28.9262 152.466 28.8034 152.697 28.7199C152.932 28.6315 153.193 28.5873 153.477 28.5873C153.63 28.5873 153.779 28.6021 153.927 28.6315C154.074 28.6561 154.204 28.7027 154.317 28.7715L154.258 29.2576C154.234 29.3362 154.187 29.3755 154.118 29.3755C154.059 29.3755 153.968 29.3583 153.846 29.3239C153.728 29.2895 153.571 29.2724 153.374 29.2724C153.089 29.2724 152.837 29.3166 152.616 29.4049C152.4 29.4884 152.203 29.6161 152.026 29.788C151.854 29.9598 151.702 30.1734 151.57 30.4288C151.442 30.6792 151.324 30.9689 151.216 31.2979V36.0415H150.509V28.7126H150.885C150.968 28.7126 151.027 28.7297 151.061 28.7641C151.096 28.7985 151.118 28.8574 151.128 28.9409L151.179 30.4803ZM156.719 25.3243V31.8577L157.057 31.8577C157.126 31.8577 157.19 31.8479 157.249 31.8283C157.313 31.8086 157.382 31.762 157.455 31.6883L160.394 28.8967C160.443 28.8378 160.497 28.7936 160.556 28.7641C160.615 28.7297 160.689 28.7126 160.777 28.7126H161.396L158.162 31.7841C158.074 31.8872 157.978 31.9682 157.875 32.0272C157.954 32.0664 158.02 32.1131 158.074 32.1671C158.133 32.2162 158.189 32.2751 158.243 32.3439L161.639 36.0415H161.028C160.959 36.0415 160.895 36.0317 160.836 36.012C160.782 35.9875 160.73 35.9408 160.681 35.8721L157.602 32.5722C157.563 32.528 157.524 32.4912 157.485 32.4617C157.45 32.4323 157.413 32.4102 157.374 32.3954C157.335 32.3758 157.288 32.3635 157.234 32.3586C157.185 32.3488 157.124 32.3439 157.05 32.3439H156.719V36.0415H156.011V25.3243H156.719Z" fill="white"/>
</svg>