<svg width="171" height="71" viewBox="0 0 171 71" fill="none" xmlns="http://www.w3.org/2000/svg">
<path d="M16.4199 30.0776C16.4405 29.795 16.4627 29.5155 16.4864 29.2393C14.7147 28.4093 13.0505 27.7279 11.5636 27.217L11.2883 27.9542C12.8243 28.4809 14.5621 29.1968 16.4199 30.0776Z" fill="url(#paint0_linear-116409)"/>
<path d="M17.2456 29.6009C17.223 29.879 17.202 30.1605 17.1826 30.4452C18.0491 30.8696 18.9385 31.3279 19.843 31.8179L20.6099 31.3402C19.463 30.7103 18.3364 30.1289 17.2456 29.6009Z" fill="url(#paint1_linear-127980)"/>
<path d="M4.89871 26.7668C3.81819 28.6383 9.76548 34.0949 18.1824 38.9544C19.8419 39.9126 21.4736 40.776 23.0321 41.5304L23.7368 41.4081L23.0951 40.6861C21.6408 39.9739 20.1218 39.1658 18.5757 38.2732C14.4017 35.8633 10.8611 33.3168 8.51082 31.1605C7.33087 30.0779 6.48338 29.1229 5.99996 28.3573C5.75776 27.9737 5.63035 27.674 5.58167 27.4566C5.53425 27.2449 5.57305 27.1721 5.57996 27.1601C5.58688 27.1482 5.63049 27.0782 5.83757 27.0134C6.05014 26.9468 6.37348 26.9073 6.82676 26.9253C7.73153 26.9611 8.98228 27.2176 10.5098 27.6981C10.763 27.7778 11.0226 27.8632 11.2883 27.9543L11.5636 27.2171C8.02126 26.0001 5.48516 25.7511 4.89871 26.7668Z" fill="url(#paint2_linear-425109)"/>
<path d="M34.6977 43.9709C34.7047 43.9589 34.7434 43.8861 34.696 43.6745C34.6474 43.4571 34.5199 43.1573 34.2777 42.7738C33.7943 42.0081 32.9468 41.0532 31.7669 39.9706C29.7817 38.1492 26.9472 36.0495 23.5992 33.9888V33.0669C31.2081 37.6851 36.394 42.6063 35.379 44.3643C34.5464 45.8064 29.7839 44.6991 23.7913 41.8917L23.2648 41.2308L23.8578 41.0534C26.0369 42.0865 28.051 42.8928 29.7679 43.4329C31.2954 43.9135 32.5462 44.17 33.4509 44.2058C33.9042 44.2238 34.2276 44.1842 34.4401 44.1177C34.6471 44.0529 34.6908 43.983 34.6977 43.9709Z" fill="url(#paint3_linear-723486)"/>
<path d="M26.751 35.089C26.9855 35.2482 27.2164 35.4071 27.4438 35.5657C29.0744 34.4282 30.5167 33.3101 31.714 32.2634L31.126 31.7324C29.9075 32.792 28.429 33.9299 26.751 35.089Z" fill="url(#paint4_linear-355285)"/>
<path d="M26.751 36.0424C26.5214 35.8838 26.2882 35.7249 26.0513 35.5657C25.283 36.0822 24.4769 36.6013 23.6385 37.118V38.0402C24.7298 37.377 25.771 36.7076 26.751 36.0424Z" fill="url(#paint5_linear-707933)"/>
<path d="M5.57991 43.9717C5.58687 43.9837 5.63056 44.0536 5.83751 44.1184C6.05009 44.1849 6.37342 44.2245 6.82671 44.2065C7.73147 44.1707 8.98222 43.9142 10.5098 43.4336C13.0773 42.6258 16.3094 41.2229 19.7643 39.3563L20.5302 39.8352C12.7437 44.0997 5.91179 46.1198 4.89865 44.365C4.06605 42.9228 7.40627 39.3521 12.8338 35.5661L13.7269 35.3513L13.5266 36.0428C11.5423 37.4134 9.83703 38.7544 8.51077 39.9713C7.33082 41.0539 6.48333 42.0088 5.99991 42.7744C5.75771 43.158 5.63029 43.4578 5.58162 43.6752C5.53423 43.8868 5.57296 43.9596 5.57991 43.9717Z" fill="url(#paint6_linear-398406)"/>
<path d="M35.3789 26.767C34.2984 24.8955 26.5992 27.3177 18.1823 32.1772C16.5228 33.1354 14.9592 34.1168 13.5266 35.0893L13.2156 35.7642L14.2263 35.566C15.5703 34.6626 17.0295 33.7512 18.5757 32.8585C22.7497 30.4486 26.7253 28.6556 29.7679 27.6984C31.2954 27.2178 32.5461 26.9614 33.4509 26.9255C33.9042 26.9075 34.2275 26.9471 34.4401 27.0136C34.6472 27.0784 34.6908 27.1484 34.6977 27.1604C34.7046 27.1724 34.7434 27.2451 34.696 27.4568C34.6473 27.6742 34.5199 27.974 34.2777 28.3576C33.7943 29.1232 32.9468 30.0781 31.7668 31.1607C31.5622 31.3485 31.3484 31.5393 31.1261 31.7327L31.714 32.2637C34.5018 29.8264 35.9614 27.7759 35.3789 26.767Z" fill="url(#paint7_linear-168019)"/>
<path d="M16.2581 37.8083C16.2898 38.9268 16.3447 40.0126 16.4207 41.0553C16.6728 40.9358 16.9271 40.8133 17.1834 40.6878C17.1305 39.9129 17.0892 39.1142 17.0606 38.2957C16.7901 38.1337 16.5226 37.9712 16.2581 37.8083Z" fill="url(#paint8_linear-517999)"/>
<path d="M17.2464 41.532C16.9913 41.6555 16.7382 41.7761 16.4872 41.8936C17.0522 48.487 18.4745 53.1651 20.1397 53.1651C21.3144 53.1651 22.3683 50.8369 23.0855 47.1505H22.2838C22.2368 47.3865 22.1884 47.6165 22.1387 47.8401C21.7911 49.4033 21.3878 50.6147 20.9665 51.4162C20.7554 51.8177 20.5595 52.078 20.3956 52.2288C20.2359 52.3757 20.1535 52.3785 20.1397 52.3785C20.1258 52.3785 20.0434 52.3757 19.8838 52.2288C19.7199 52.078 19.524 51.8177 19.3129 51.4162C18.8915 50.6147 18.4883 49.4033 18.1407 47.8401C17.75 46.0831 17.4413 43.9358 17.2464 41.532Z" fill="url(#paint9_linear-928290)"/>
<path d="M23.8586 30.0791V30.0605C23.6123 30.1774 23.3463 30.3215 23.096 30.444V30.4466C23.2063 32.0623 23.266 33.7817 23.266 35.5671C23.266 40.0406 22.8912 44.1005 22.2838 47.1503H23.0855C23.6877 44.0553 24.0526 40.0028 24.0526 35.5671C24.0526 33.6508 23.9845 31.806 23.8586 30.0791Z" fill="url(#paint10_linear-953530)"/>
<path d="M20.3956 18.9058C20.236 18.759 20.1536 18.7561 20.1397 18.7561C20.1258 18.7561 20.0434 18.7589 19.8838 18.9058C19.7199 19.0567 19.524 19.3169 19.3129 19.7184C18.8915 20.5199 18.4883 21.7313 18.1407 23.2945C17.5818 25.8079 17.1906 29.1201 17.0606 32.8389C16.7901 33.0009 16.5226 33.1635 16.2581 33.3263C16.5029 24.6655 18.1474 17.9695 20.1397 17.9695C21.8049 17.9695 23.2272 22.6476 23.7922 29.241L23.4811 29.9034L23.0329 29.6026C22.8381 27.1988 22.5293 25.0515 22.1386 23.2945C21.7911 21.7313 21.3878 20.5199 20.9665 19.7184C20.7554 19.3169 20.5595 19.0567 20.3956 18.9058Z" fill="url(#paint11_linear-050900)"/>
<g filter="url(#filter0_d-346663)">
<path fill-rule="evenodd" clip-rule="evenodd" d="M12.5032 28.2619C12.1613 28.8541 11.4044 29.0571 10.8125 28.7154C10.2206 28.3737 10.018 27.6166 10.3598 27.0244C10.7017 26.4323 11.4587 26.2292 12.0506 26.571C12.6425 26.9127 12.8451 27.6697 12.5032 28.2619Z" fill="white"/>
</g>
<g filter="url(#filter1_d-238113)">
<path fill-rule="evenodd" clip-rule="evenodd" d="M30.2821 32.6081C29.9402 32.0159 30.1429 31.2589 30.7347 30.9171C31.3266 30.5754 32.0836 30.7785 32.4255 31.3706C32.7674 31.9628 32.5647 32.7199 31.9728 33.0616C31.381 33.4033 30.624 33.2003 30.2821 32.6081Z" fill="white"/>
</g>
<g filter="url(#filter2_d-948709)">
<path fill-rule="evenodd" clip-rule="evenodd" d="M22.6473 45.832C21.9635 45.832 21.4092 46.3861 21.4092 47.0695C21.4092 47.753 21.9635 48.307 22.6473 48.307C23.3311 48.307 23.8854 47.753 23.8854 47.0695C23.8854 46.3861 23.3311 45.832 22.6473 45.832Z" fill="white"/>
</g>
<path fill-rule="evenodd" clip-rule="evenodd" d="M20.1471 33.4623C18.9894 33.4623 18.051 34.4007 18.051 35.5584C18.051 36.7161 18.9894 37.6545 20.1471 37.6545C21.3048 37.6545 22.2432 36.7161 22.2432 35.5584C22.2432 34.4007 21.3048 33.4623 20.1471 33.4623Z" fill="white"/>
<path fill-rule="evenodd" clip-rule="evenodd" d="M61.3041 39.2442L59.8855 37.8075C59.3467 38.3102 58.802 38.7085 58.251 39.0019C57.7005 39.2951 57.042 39.4417 56.2759 39.4417C55.6772 39.4417 55.1235 39.3251 54.6147 39.0916C54.1059 38.858 53.6659 38.538 53.2947 38.1307C52.9235 37.7237 52.6364 37.2478 52.4327 36.7032C52.2291 36.1586 52.1276 35.5747 52.1276 34.9525C52.1276 34.3299 52.2291 33.7491 52.4327 33.2103C52.6364 32.6718 52.9235 32.202 53.2947 31.8008C53.6659 31.3998 54.1059 31.0827 54.6147 30.8491C55.1235 30.6158 55.6772 30.499 56.2759 30.499C56.994 30.499 57.6346 30.6427 58.1972 30.93C58.7601 31.2171 59.2929 31.5944 59.7954 32.0612L61.2142 30.4273C60.915 30.14 60.5978 29.8766 60.2625 29.637C59.9274 29.3976 59.5623 29.191 59.1671 29.0175C58.7719 28.8438 58.338 28.7093 57.865 28.6136C57.3921 28.5177 56.8683 28.4697 56.2938 28.4697C55.336 28.4697 54.4621 28.6405 53.672 28.9817C52.8816 29.3228 52.1993 29.7896 51.6246 30.3822C51.0499 30.9749 50.6041 31.6661 50.2867 32.4564C49.9693 33.2464 49.8108 34.0905 49.8108 34.9884C49.8108 35.8981 49.9724 36.748 50.2957 37.5383C50.6189 38.3282 51.0649 39.0136 51.6336 39.5943C52.2022 40.1748 52.8756 40.6327 53.6538 40.968C54.432 41.3033 55.2822 41.4707 56.2039 41.4707C56.7907 41.4707 57.3264 41.4198 57.8113 41.3181C58.2961 41.2163 58.7421 41.0668 59.1492 40.8694C59.5562 40.6717 59.9364 40.4381 60.2896 40.169C60.6427 39.8996 60.9809 39.5911 61.3041 39.2442" fill="white"/>
<path fill-rule="evenodd" clip-rule="evenodd" d="M89.7996 32.0291C89.7996 31.6109 89.9782 31.2556 90.3355 30.9631C90.6927 30.6701 91.1929 30.5239 91.8358 30.5239C92.4074 30.5239 92.973 30.6346 93.5325 30.8555C94.0923 31.0765 94.6579 31.396 95.2292 31.814L96.408 30.1478C95.7654 29.6341 95.0776 29.243 94.3453 28.9745C93.6128 28.7057 92.7884 28.5713 91.8715 28.5713C91.2524 28.5713 90.6809 28.6578 90.1599 28.8311C89.636 29.0042 89.1897 29.252 88.8174 29.5744C88.4454 29.8971 88.1535 30.2822 87.9393 30.7301C87.728 31.178 87.6208 31.6767 87.6208 32.2261C87.6208 32.8113 87.713 33.3071 87.8976 33.7132C88.0822 34.1193 88.3531 34.4656 88.7044 34.7523C89.0555 35.039 89.4931 35.2778 90.011 35.469C90.5319 35.6602 91.1245 35.8331 91.7941 35.9885C92.3778 36.1318 92.8508 36.2691 93.2171 36.4004C93.5802 36.5319 93.866 36.6723 94.0774 36.8214C94.2856 36.9708 94.4287 37.135 94.506 37.3141C94.5834 37.4934 94.622 37.6962 94.622 37.9232C94.622 38.4132 94.4227 38.8014 94.0239 39.0878C93.6248 39.3747 93.086 39.5178 92.4074 39.5178C91.6216 39.5178 90.9189 39.3774 90.2999 39.0968C89.6806 38.8161 89.0676 38.4132 88.4601 37.8874L87.1386 39.4642C87.8887 40.1449 88.7044 40.6496 89.5854 40.9781C90.4666 41.3066 91.3893 41.4707 92.3537 41.4707C93.0086 41.4707 93.6101 41.3871 94.1578 41.22C94.7024 41.0525 95.1728 40.8077 95.5598 40.4852C95.9497 40.1628 96.2533 39.7687 96.4736 39.303C96.6909 38.8372 96.8011 38.3056 96.8011 37.7083C96.8011 37.1828 96.7148 36.726 96.542 36.3378C96.3692 35.9496 96.1133 35.6095 95.7801 35.3165C95.4466 35.024 95.0239 34.776 94.5179 34.573C94.0121 34.3702 93.4284 34.185 92.7735 34.0177C92.1751 33.8744 91.684 33.7369 91.2941 33.6056C90.9071 33.4743 90.6035 33.331 90.3801 33.1756C90.1599 33.0204 90.0083 32.8531 89.9247 32.674C89.8416 32.4947 89.7996 32.2798 89.7996 32.0291" fill="white"/>
<path fill-rule="evenodd" clip-rule="evenodd" d="M114.249 32.2066V41.166H116.431V28.6729H114.088L110.278 34.5804L106.467 28.6729H104.124V41.166H106.306V32.2422L110.224 38.0963H110.295L114.249 32.2066" fill="white"/>
<path fill-rule="evenodd" clip-rule="evenodd" d="M134.766 34.9885C134.766 35.599 134.662 36.1766 134.452 36.7215C134.244 37.2661 133.954 37.7388 133.583 38.1398C133.213 38.5407 132.768 38.8581 132.248 39.0917C131.728 39.3252 131.157 39.4417 130.536 39.4417C129.915 39.4417 129.341 39.3221 128.815 39.0827C128.29 38.8431 127.838 38.5199 127.462 38.1131C127.086 37.7058 126.793 37.23 126.584 36.6854C126.375 36.1407 126.27 35.5629 126.27 34.9526C126.27 34.3418 126.375 33.7643 126.584 33.2196C126.793 32.6747 127.083 32.2021 127.453 31.8009C127.823 31.3999 128.269 31.0828 128.788 30.8492C129.308 30.6159 129.879 30.4991 130.5 30.4991C131.122 30.4991 131.695 30.6188 132.221 30.8584C132.747 31.0978 133.198 31.421 133.574 31.828C133.951 32.2348 134.244 32.7108 134.452 33.2555C134.662 33.8001 134.766 34.3779 134.766 34.9885ZM137.078 34.9525C137.078 34.0665 136.917 33.2285 136.594 32.4382C136.272 31.6484 135.824 30.9598 135.25 30.3733C134.677 29.7865 133.99 29.3228 133.189 28.9817C132.388 28.6405 131.504 28.4697 130.536 28.4697C129.568 28.4697 128.684 28.6434 127.883 28.9906C127.083 29.3378 126.389 29.8076 125.804 30.4002C125.218 30.9928 124.764 31.6842 124.442 32.4743C124.119 33.2644 123.958 34.1024 123.958 34.9884C123.958 35.8741 124.119 36.7119 124.442 37.5022C124.764 38.2925 125.212 38.9808 125.786 39.5674C126.359 40.1539 127.047 40.6179 127.847 40.959C128.648 41.3001 129.532 41.4707 130.5 41.4707C131.468 41.4707 132.352 41.297 133.153 40.9501C133.954 40.6029 134.647 40.1331 135.232 39.5403C135.818 38.9479 136.272 38.2564 136.594 37.4664C136.917 36.6763 137.078 35.8383 137.078 34.9525V34.9525Z" fill="white"/>
<path fill-rule="evenodd" clip-rule="evenodd" d="M146.249 32.0291C146.249 31.6109 146.427 31.2556 146.785 30.9631C147.142 30.6701 147.642 30.5239 148.285 30.5239C148.856 30.5239 149.422 30.6346 149.982 30.8555C150.541 31.0765 151.107 31.396 151.679 31.814L152.857 30.1478C152.214 29.6341 151.527 29.243 150.794 28.9745C150.062 28.7057 149.238 28.5713 148.321 28.5713C147.702 28.5713 147.13 28.6578 146.609 28.8311C146.085 29.0042 145.639 29.252 145.267 29.5744C144.895 29.8971 144.603 30.2822 144.388 30.7301C144.177 31.178 144.07 31.6767 144.07 32.2261C144.07 32.8113 144.162 33.3071 144.347 33.7132C144.532 34.1193 144.802 34.4656 145.153 34.7523C145.505 35.039 145.942 35.2778 146.46 35.469C146.981 35.6602 147.574 35.8331 148.243 35.9885C148.827 36.1318 149.3 36.2691 149.666 36.4004C150.029 36.5319 150.315 36.6723 150.527 36.8214C150.735 36.9708 150.878 37.135 150.955 37.3141C151.033 37.4934 151.071 37.6962 151.071 37.9232C151.071 38.4132 150.872 38.8014 150.473 39.0878C150.074 39.3747 149.535 39.5178 148.856 39.5178C148.071 39.5178 147.368 39.3774 146.749 39.0968C146.13 38.8161 145.517 38.4132 144.909 37.8874L143.588 39.4642C144.338 40.1449 145.153 40.6496 146.035 40.9781C146.916 41.3066 147.838 41.4707 148.803 41.4707C149.458 41.4707 150.059 41.3871 150.607 41.22C151.152 41.0525 151.622 40.8077 152.009 40.4852C152.399 40.1628 152.703 39.7687 152.923 39.303C153.14 38.8372 153.25 38.3056 153.25 37.7083C153.25 37.1828 153.164 36.726 152.991 36.3378C152.819 35.9496 152.563 35.6095 152.229 35.3165C151.896 35.024 151.473 34.776 150.967 34.573C150.461 34.3702 149.877 34.185 149.223 34.0177C148.624 33.8744 148.133 33.7369 147.743 33.6056C147.356 33.4743 147.053 33.331 146.829 33.1756C146.609 33.0204 146.457 32.8531 146.374 32.674C146.291 32.4947 146.249 32.2798 146.249 32.0291" fill="white"/>
<path fill-rule="evenodd" clip-rule="evenodd" d="M76.2741 31.1739L70.2946 37.1454C70.2175 36.996 70.1479 36.8403 70.0856 36.6789C69.8767 36.1363 69.7723 35.5607 69.7723 34.9527C69.7723 34.3442 69.8767 33.7688 70.0856 33.2262C70.2946 32.6834 70.5842 32.2125 70.9545 31.8128C71.3247 31.4134 71.7697 31.0974 72.2891 30.8647C72.8087 30.6323 73.3789 30.516 73.9998 30.516C74.6209 30.516 75.1942 30.6352 75.7194 30.8739C75.9147 30.9625 76.0996 31.0624 76.2741 31.1739ZM75.7465 39.0761C75.2269 39.3087 74.6567 39.4248 74.0358 39.4248C73.4147 39.4248 72.8414 39.3056 72.3159 39.0671C72.1209 38.9783 71.936 38.8784 71.7617 38.7666L77.741 32.7956C77.8181 32.9448 77.8877 33.1002 77.95 33.2619C78.1589 33.8045 78.2633 34.3802 78.2633 34.9884C78.2633 35.5966 78.1589 36.172 77.95 36.7148C77.741 37.2574 77.4514 37.7283 77.0811 38.1278C76.7109 38.5272 76.2662 38.8434 75.7465 39.0761ZM76.6512 40.9274C77.4514 40.5816 78.1441 40.1136 78.7292 39.523C79.3144 38.9328 79.768 38.244 80.0905 37.4569C80.4131 36.6698 80.5743 35.835 80.5743 34.9526C80.5743 34.0699 80.4131 33.235 80.0905 32.4477C79.8993 31.9809 79.6639 31.5499 79.3845 31.1543L83.2736 27.2706L81.7282 25.7273L77.8272 29.6228C77.477 29.3844 77.0969 29.1783 76.6869 29.0042C75.8867 28.6644 75.0031 28.4942 74.0358 28.4942C73.0683 28.4942 72.1847 28.6673 71.3844 29.0132C70.5842 29.359 69.8915 29.827 69.3063 30.4174C68.7212 31.0078 68.2673 31.6966 67.9449 32.4837C67.6225 33.2708 67.4613 34.1056 67.4613 34.9883C67.4613 35.8707 67.6225 36.7053 67.9449 37.4926C68.1363 37.9597 68.3717 38.3907 68.6511 38.7866L64.7623 42.6698L66.3077 44.2131L70.2083 40.3178C70.5586 40.5562 70.9387 40.7623 71.3487 40.9364C72.1489 41.2762 73.0325 41.4461 73.9998 41.4461C74.9673 41.4461 75.8509 41.2731 76.6512 40.9274V40.9274Z" fill="white"/>
<defs>
<filter id="filter0_d-346663" x="10.0528" y="26.2642" width="2.75742" height="2.75802" filterUnits="userSpaceOnUse" color-interpolation-filters="sRGB">
<feFlood flood-opacity="0" result="BackgroundImageFix"/>
<feColorMatrix in="SourceAlpha" type="matrix" values="0 0 0 0 0 0 0 0 0 0 0 0 0 0 0 0 0 0 127 0"/>
<feOffset/>
<feGaussianBlur stdDeviation="0.070433"/>
<feColorMatrix type="matrix" values="0 0 0 0 1 0 0 0 0 1 0 0 0 0 1 0 0 0 0.61 0"/>
<feBlend mode="normal" in2="BackgroundImageFix" result="effect1_dropShadow"/>
<feBlend mode="normal" in="SourceGraphic" in2="effect1_dropShadow" result="shape"/>
</filter>
<filter id="filter1_d-238113" x="29.9751" y="30.6104" width="2.75742" height="2.75802" filterUnits="userSpaceOnUse" color-interpolation-filters="sRGB">
<feFlood flood-opacity="0" result="BackgroundImageFix"/>
<feColorMatrix in="SourceAlpha" type="matrix" values="0 0 0 0 0 0 0 0 0 0 0 0 0 0 0 0 0 0 127 0"/>
<feOffset/>
<feGaussianBlur stdDeviation="0.070433"/>
<feColorMatrix type="matrix" values="0 0 0 0 1 0 0 0 0 1 0 0 0 0 1 0 0 0 0.61 0"/>
<feBlend mode="normal" in2="BackgroundImageFix" result="effect1_dropShadow"/>
<feBlend mode="normal" in="SourceGraphic" in2="effect1_dropShadow" result="shape"/>
</filter>
<filter id="filter2_d-948709" x="21.2683" y="45.6912" width="2.75791" height="2.7567" filterUnits="userSpaceOnUse" color-interpolation-filters="sRGB">
<feFlood flood-opacity="0" result="BackgroundImageFix"/>
<feColorMatrix in="SourceAlpha" type="matrix" values="0 0 0 0 0 0 0 0 0 0 0 0 0 0 0 0 0 0 127 0"/>
<feOffset/>
<feGaussianBlur stdDeviation="0.070433"/>
<feColorMatrix type="matrix" values="0 0 0 0 1 0 0 0 0 1 0 0 0 0 1 0 0 0 0.61 0"/>
<feBlend mode="normal" in2="BackgroundImageFix" result="effect1_dropShadow"/>
<feBlend mode="normal" in="SourceGraphic" in2="effect1_dropShadow" result="shape"/>
</filter>
<linearGradient id="paint0_linear-116409" x1="11.2883" y1="27.2288" x2="19.2783" y2="33.5215" gradientUnits="userSpaceOnUse">
<stop stop-color="white" stop-opacity="0.33"/>
<stop offset="1" stop-color="white" stop-opacity="0"/>
</linearGradient>
<linearGradient id="paint1_linear-127980" x1="11.2883" y1="27.2288" x2="19.2783" y2="33.5215" gradientUnits="userSpaceOnUse">
<stop stop-color="white" stop-opacity="0.33"/>
<stop offset="1" stop-color="white" stop-opacity="0"/>
</linearGradient>
<linearGradient id="paint2_linear-425109" x1="23.0879" y1="40.5821" x2="4.75916" y2="28.6055" gradientUnits="userSpaceOnUse">
<stop stop-color="white" stop-opacity="0.81"/>
<stop offset="0.427033" stop-color="white"/>
</linearGradient>
<linearGradient id="paint3_linear-723486" x1="23.5992" y1="41.8404" x2="23.5992" y2="33.0497" gradientUnits="userSpaceOnUse">
<stop offset="0.12411" stop-color="white" stop-opacity="0.81"/>
<stop offset="1" stop-color="white" stop-opacity="0"/>
</linearGradient>
<linearGradient id="paint4_linear-355285" x1="30.4823" y1="32.7354" x2="23.3632" y2="38.0452" gradientUnits="userSpaceOnUse">
<stop stop-color="white" stop-opacity="0.33"/>
<stop offset="1" stop-color="white" stop-opacity="0"/>
</linearGradient>
<linearGradient id="paint5_linear-707933" x1="30.4823" y1="32.7354" x2="23.3632" y2="38.0452" gradientUnits="userSpaceOnUse">
<stop stop-color="white" stop-opacity="0.33"/>
<stop offset="1" stop-color="white" stop-opacity="0"/>
</linearGradient>
<linearGradient id="paint6_linear-398406" x1="12.6649" y1="35.371" x2="20.2167" y2="40.1695" gradientUnits="userSpaceOnUse">
<stop offset="0.177288" stop-color="white" stop-opacity="0.81"/>
<stop offset="1" stop-color="white" stop-opacity="0"/>
</linearGradient>
<linearGradient id="paint7_linear-168019" x1="35.5168" y1="24.8102" x2="13.6876" y2="35.7642" gradientUnits="userSpaceOnUse">
<stop offset="0.588765" stop-color="white"/>
<stop offset="1" stop-color="white" stop-opacity="0.81"/>
</linearGradient>
<linearGradient id="paint8_linear-517999" x1="16.5194" y1="53.1487" x2="16.244" y2="37.1209" gradientUnits="userSpaceOnUse">
<stop offset="0.343565" stop-color="white" stop-opacity="0.33"/>
<stop offset="0.992239" stop-color="white" stop-opacity="0"/>
</linearGradient>
<linearGradient id="paint9_linear-928290" x1="16.5194" y1="53.1487" x2="16.244" y2="37.1209" gradientUnits="userSpaceOnUse">
<stop offset="0.343565" stop-color="white" stop-opacity="0.33"/>
<stop offset="0.992239" stop-color="white" stop-opacity="0"/>
</linearGradient>
<linearGradient id="paint10_linear-953530" x1="22.3012" y1="30.0605" x2="22.3012" y2="47.17" gradientUnits="userSpaceOnUse">
<stop stop-color="white" stop-opacity="0.81"/>
<stop offset="0.575778" stop-color="white"/>
</linearGradient>
<linearGradient id="paint11_linear-050900" x1="23.7958" y1="29.2151" x2="16.244" y2="33.3253" gradientUnits="userSpaceOnUse">
<stop offset="0.171732" stop-color="white" stop-opacity="0.81"/>
<stop offset="1" stop-color="white" stop-opacity="0"/>
</linearGradient>
</defs>
</svg>