<svg width="172" height="71" viewBox="0 0 172 71" fill="none" xmlns="http://www.w3.org/2000/svg">
<path d="M17.7226 30.1067C17.7432 29.824 17.7653 29.5445 17.789 29.2684C16.0173 28.4384 14.3531 27.7569 12.8662 27.2461L12.5909 27.9833C14.1269 28.51 15.8648 29.2259 17.7226 30.1067Z" fill="url(#paint0_linear-309972)"/>
<path d="M18.5482 29.63C18.5257 29.908 18.5047 30.1895 18.4852 30.4742C19.3517 30.8986 20.2412 31.357 21.1456 31.847L21.9126 31.3693C20.7657 30.7394 19.639 30.158 18.5482 29.63Z" fill="url(#paint1_linear-479227)"/>
<path d="M6.20141 26.7961C5.12089 28.6676 11.0682 34.1242 19.4851 38.9837C21.1446 39.9419 22.7763 40.8053 24.3348 41.5597L25.0396 41.4374L24.3978 40.7154C22.9435 40.0032 21.4245 39.1951 19.8784 38.3025C15.7044 35.8926 12.1638 33.3461 9.81353 31.1898C8.63357 30.1072 7.78609 29.1522 7.30266 28.3866C7.06047 28.003 6.93305 27.7032 6.88437 27.4859C6.83696 27.2742 6.87575 27.2014 6.88266 27.1894C6.88958 27.1774 6.93319 27.1075 7.14027 27.0427C7.35284 26.9761 7.67618 26.9366 8.12947 26.9546C9.03423 26.9904 10.285 27.2469 11.8125 27.7274C12.0657 27.8071 12.3253 27.8925 12.591 27.9836L12.8663 27.2464C9.32396 26.0294 6.78786 25.7803 6.20141 26.7961Z" fill="url(#paint2_linear-222440)"/>
<path d="M36.0004 44.0002C36.0073 43.9882 36.046 43.9154 35.9986 43.7038C35.95 43.4864 35.8226 43.1866 35.5804 42.8031C35.0969 42.0374 34.2494 41.0825 33.0695 39.9999C31.0843 38.1785 28.2499 36.0788 24.9018 34.0181V33.0962C32.5107 37.7144 37.6966 42.6356 36.6816 44.3936C35.849 45.8357 31.0865 44.7284 25.094 41.921L24.5675 41.2601L25.1604 41.0827C27.3395 42.1158 29.3536 42.9221 31.0705 43.4622C32.598 43.9428 33.8488 44.1993 34.7536 44.2351C35.2068 44.2531 35.5302 44.2135 35.7427 44.147C35.9497 44.0822 35.9934 44.0123 36.0004 44.0002Z" fill="url(#paint3_linear-770304)"/>
<path d="M28.0536 35.1178C28.288 35.277 28.519 35.4359 28.7463 35.5945C30.377 34.457 31.8193 33.339 33.0166 32.2922L32.4286 31.7612C31.2101 32.8208 29.7316 33.9587 28.0536 35.1178Z" fill="url(#paint4_linear-188239)"/>
<path d="M28.0536 36.0712C27.824 35.9127 27.5908 35.7537 27.3539 35.5945C26.5855 36.111 25.7795 36.6301 24.9411 37.1468V38.069C26.0324 37.4058 27.0736 36.7364 28.0536 36.0712Z" fill="url(#paint5_linear-602219)"/>
<path d="M6.88251 44.0007C6.88947 44.0128 6.93316 44.0827 7.14012 44.1475C7.35269 44.214 7.67602 44.2535 8.12931 44.2356C9.03407 44.1997 10.2848 43.9432 11.8124 43.4627C14.3799 42.6549 17.612 41.2519 21.0669 39.3853L21.8328 39.8642C14.0463 44.1288 7.21439 46.1488 6.20125 44.394C5.36865 42.9519 8.70887 39.3811 14.1364 35.5951L15.0295 35.3804L14.8292 36.0718C12.8449 37.4424 11.1396 38.7835 9.81337 40.0003C8.63342 41.0829 7.78593 42.0379 7.30251 42.8035C7.06031 43.1871 6.93289 43.4869 6.88422 43.7042C6.83683 43.9158 6.87556 43.9887 6.88251 44.0007Z" fill="url(#paint6_linear-219498)"/>
<path d="M36.6816 26.7961C35.6011 24.9246 27.9019 27.3468 19.485 32.2063C17.8254 33.1644 16.2619 34.1458 14.8293 35.1183L14.5182 35.7933L15.5289 35.595C16.8729 34.6916 18.3322 33.7802 19.8783 32.8875C24.0523 30.4777 28.0279 28.6847 31.0705 27.7274C32.598 27.2469 33.8488 26.9904 34.7536 26.9546C35.2068 26.9366 35.5302 26.9762 35.7427 27.0427C35.9498 27.1075 35.9934 27.1775 36.0003 27.1894C36.0073 27.2014 36.0461 27.2742 35.9986 27.4859C35.95 27.7033 35.8226 28.003 35.5804 28.3866C35.0969 29.1523 34.2494 30.1072 33.0695 31.1898C32.8648 31.3776 32.6511 31.5684 32.4287 31.7617L33.0167 32.2927C35.8044 29.8555 37.2641 27.8049 36.6816 26.7961Z" fill="url(#paint7_linear-247941)"/>
<path d="M17.5608 37.8374C17.5924 38.9559 17.6474 40.0416 17.7234 41.0844C17.9755 40.9649 18.2298 40.8423 18.4861 40.7168C18.4331 39.942 18.3919 39.1432 18.3632 38.3248C18.0928 38.1627 17.8253 38.0002 17.5608 37.8374Z" fill="url(#paint8_linear-956043)"/>
<path d="M18.5491 41.5611C18.294 41.6846 18.0408 41.8051 17.7899 41.9227C18.3548 48.5161 19.7771 53.1942 21.4423 53.1942C22.6171 53.1942 23.6709 50.866 24.3882 47.1796H23.5865C23.5395 47.4156 23.4911 47.6455 23.4413 47.8692C23.0938 49.4323 22.6905 50.6438 22.2691 51.4452C22.0581 51.8468 21.8621 52.107 21.6982 52.2578C21.5386 52.4048 21.4562 52.4075 21.4423 52.4075C21.4285 52.4075 21.3461 52.4048 21.1864 52.2578C21.0225 52.107 20.8266 51.8468 20.6155 51.4452C20.1942 50.6438 19.7909 49.4323 19.4434 47.8692C19.0527 46.1122 18.7439 43.9648 18.5491 41.5611Z" fill="url(#paint9_linear-665133)"/>
<path d="M25.1612 30.1084V30.0898C24.9149 30.2067 24.6489 30.3508 24.3985 30.4733V30.4759C24.5089 32.0916 24.5686 33.811 24.5686 35.5964C24.5686 40.0699 24.1938 44.1298 23.5864 47.1796H24.3881C24.9903 44.0846 25.3552 40.0321 25.3552 35.5964C25.3552 33.6801 25.2871 31.8353 25.1612 30.1084Z" fill="url(#paint10_linear-673158)"/>
<path d="M21.6981 18.9349C21.5386 18.788 21.4562 18.7852 21.4422 18.7852C21.4284 18.7852 21.346 18.788 21.1863 18.9349C21.0224 19.0857 20.8265 19.346 20.6154 19.7475C20.1941 20.549 19.7908 21.7604 19.4433 23.3236C18.8844 25.8369 18.4932 29.1491 18.3631 32.8679C18.0927 33.03 17.8252 33.1925 17.5607 33.3553C17.8055 24.6946 19.45 17.9986 21.4422 17.9985C23.1075 17.9985 24.5297 22.6766 25.0947 29.27L24.7837 29.9325L24.3355 29.6316C24.1406 27.2279 23.8319 25.0805 23.4412 23.3236C23.0936 21.7604 22.6904 20.549 22.269 19.7475C22.058 19.346 21.862 19.0857 21.6981 18.9349Z" fill="url(#paint11_linear-557863)"/>
<g filter="url(#filter0_d-669418)">
<path fill-rule="evenodd" clip-rule="evenodd" d="M13.806 28.291C13.4641 28.8831 12.7072 29.0862 12.1153 28.7444C11.5234 28.4027 11.3207 27.6457 11.6626 27.0535C12.0045 26.4613 12.7615 26.2583 13.3534 26.6C13.9453 26.9417 14.1479 27.6988 13.806 28.291Z" fill="white"/>
</g>
<g filter="url(#filter1_d-060436)">
<path fill-rule="evenodd" clip-rule="evenodd" d="M31.5848 32.6372C31.2429 32.045 31.4455 31.2879 32.0374 30.9462C32.6293 30.6045 33.3862 30.8075 33.7281 31.3997C34.07 31.9918 33.8674 32.7489 33.2755 33.0906C32.6836 33.4324 31.9266 33.2293 31.5848 32.6372Z" fill="white"/>
</g>
<g filter="url(#filter2_d-487221)">
<path fill-rule="evenodd" clip-rule="evenodd" d="M23.9499 45.8613C23.2661 45.8613 22.7118 46.4154 22.7118 47.0988C22.7118 47.7823 23.2661 48.3363 23.9499 48.3363C24.6337 48.3363 25.188 47.7823 25.188 47.0988C25.188 46.4154 24.6337 45.8613 23.9499 45.8613Z" fill="white"/>
</g>
<path fill-rule="evenodd" clip-rule="evenodd" d="M21.4497 33.4911C20.292 33.4911 19.3535 34.4295 19.3535 35.5872C19.3535 36.7449 20.292 37.6833 21.4497 37.6833C22.6073 37.6833 23.5458 36.7449 23.5458 35.5872C23.5458 34.4295 22.6073 33.4911 21.4497 33.4911Z" fill="white"/>
<path fill-rule="evenodd" clip-rule="evenodd" d="M62.6068 39.273L61.1882 37.8363C60.6493 38.339 60.1047 38.7373 59.5537 39.0307C59.0032 39.3239 58.3447 39.4705 57.5786 39.4705C56.9799 39.4705 56.4262 39.3539 55.9174 39.1204C55.4086 38.8868 54.9686 38.5668 54.5974 38.1595C54.2262 37.7525 53.9391 37.2767 53.7353 36.732C53.5318 36.1874 53.4303 35.6035 53.4303 34.9813C53.4303 34.3587 53.5318 33.778 53.7353 33.2391C53.9391 32.7006 54.2262 32.2308 54.5974 31.8296C54.9686 31.4286 55.4086 31.1115 55.9174 30.8779C56.4262 30.6446 56.9799 30.5278 57.5786 30.5278C58.2967 30.5278 58.9373 30.6715 59.4999 30.9588C60.0628 31.2459 60.5956 31.6232 61.0981 32.09L62.5169 30.4561C62.2177 30.1688 61.9005 29.9054 61.5652 29.6658C61.2301 29.4264 60.865 29.2198 60.4698 29.0463C60.0746 28.8726 59.6407 28.7381 59.1677 28.6424C58.6948 28.5465 58.171 28.4985 57.5965 28.4985C56.6387 28.4985 55.7648 28.6693 54.9747 29.0105C54.1843 29.3516 53.502 29.8185 52.9273 30.4111C52.3526 31.0037 51.9068 31.6949 51.5894 32.4852C51.272 33.2752 51.1135 34.1193 51.1135 35.0172C51.1135 35.9269 51.2751 36.7768 51.5983 37.5671C51.9216 38.357 52.3676 39.0424 52.9363 39.6231C53.5049 40.2036 54.1783 40.6615 54.9565 40.9968C55.7347 41.3321 56.5849 41.4995 57.5066 41.4995C58.0934 41.4995 58.6291 41.4486 59.1139 41.3469C59.5988 41.2451 60.0448 41.0956 60.4519 40.8982C60.8589 40.7005 61.2391 40.4669 61.5923 40.1978C61.9454 39.9284 62.2836 39.6199 62.6068 39.273Z" fill="white"/>
<path fill-rule="evenodd" clip-rule="evenodd" d="M91.1022 32.0574C91.1022 31.6392 91.2808 31.2839 91.6381 30.9914C91.9953 30.6985 92.4955 30.5522 93.1384 30.5522C93.71 30.5522 94.2756 30.6629 94.8351 30.8839C95.3949 31.1048 95.9604 31.4244 96.5318 31.8423L97.7106 30.1761C97.068 29.6625 96.3802 29.2714 95.6479 29.0028C94.9154 28.734 94.091 28.5996 93.1741 28.5996C92.555 28.5996 91.9834 28.6861 91.4625 28.8595C90.9386 29.0325 90.4923 29.2803 90.12 29.6027C89.748 29.9254 89.4561 30.3105 89.2419 30.7584C89.0306 31.2063 88.9233 31.705 88.9233 32.2544C88.9233 32.8396 89.0156 33.3354 89.2002 33.7415C89.3848 34.1476 89.6557 34.494 90.007 34.7806C90.3581 35.0673 90.7957 35.3061 91.3135 35.4973C91.8345 35.6885 92.4271 35.8614 93.0967 36.0168C93.6804 36.1601 94.1534 36.2974 94.5197 36.4287C94.8828 36.5602 95.1686 36.7006 95.3799 36.8498C95.5881 36.9992 95.7313 37.1633 95.8086 37.3424C95.886 37.5218 95.9245 37.7246 95.9245 37.9515C95.9245 38.4415 95.7253 38.8297 95.3265 39.1161C94.9274 39.4031 94.3886 39.5462 93.71 39.5462C92.9242 39.5462 92.2215 39.4057 91.6025 39.1251C90.9832 38.8444 90.3701 38.4415 89.7627 37.9158L88.4412 39.4925C89.1913 40.1732 90.007 40.6779 90.888 41.0064C91.7692 41.3349 92.6919 41.499 93.6563 41.499C94.3112 41.499 94.9127 41.4154 95.4604 41.2484C96.005 41.0808 96.4754 40.836 96.8624 40.5135C97.2523 40.1911 97.5559 39.7971 97.7762 39.3313C97.9935 38.8655 98.1037 38.3339 98.1037 37.7366C98.1037 37.2111 98.0174 36.7543 97.8446 36.3661C97.6718 35.9779 97.4159 35.6378 97.0827 35.3448C96.7491 35.0523 96.3265 34.8043 95.8204 34.6013C95.3146 34.3985 94.731 34.2133 94.076 34.0461C93.4777 33.9027 92.9866 33.7652 92.5967 33.6339C92.2097 33.5027 91.9061 33.3593 91.6827 33.2039C91.4625 33.0487 91.3109 32.8814 91.2273 32.7023C91.1441 32.523 91.1022 32.3081 91.1022 32.0574Z" fill="white"/>
<path fill-rule="evenodd" clip-rule="evenodd" d="M115.552 32.2354V41.1948H117.734V28.7017H115.39L111.58 34.6092L107.77 28.7017H105.427V41.1948H107.609V32.271L111.527 38.1251H111.598L115.552 32.2354Z" fill="white"/>
<path fill-rule="evenodd" clip-rule="evenodd" d="M136.069 35.0167C136.069 35.6272 135.964 36.2048 135.755 36.7497C135.546 37.2943 135.257 37.767 134.886 38.168C134.516 38.5689 134.07 38.8863 133.551 39.1199C133.031 39.3534 132.46 39.47 131.839 39.47C131.217 39.47 130.644 39.3503 130.118 39.1109C129.592 38.8713 129.141 38.5481 128.765 38.1413C128.388 37.7341 128.096 37.2582 127.886 36.7136C127.677 36.169 127.573 35.5911 127.573 34.9808C127.573 34.3701 127.677 33.7925 127.886 33.2478C128.096 32.703 128.385 32.2303 128.756 31.8291C129.126 31.4281 129.572 31.111 130.091 30.8774C130.611 30.6441 131.182 30.5273 131.803 30.5273C132.424 30.5273 132.998 30.647 133.524 30.8866C134.049 31.126 134.501 31.4492 134.877 31.8562C135.253 32.263 135.546 32.7391 135.755 33.2837C135.964 33.8283 136.069 34.4062 136.069 35.0167ZM138.381 34.9809C138.381 34.0949 138.22 33.2568 137.897 32.4665C137.575 31.6767 137.126 30.9882 136.553 30.4016C135.979 29.8148 135.292 29.3511 134.491 29.01C133.691 28.6689 132.807 28.498 131.839 28.498C130.871 28.498 129.987 28.6718 129.186 29.0189C128.385 29.3661 127.692 29.8359 127.107 30.4285C126.521 31.0211 126.067 31.7126 125.744 32.5026C125.422 33.2927 125.26 34.1307 125.26 35.0167C125.26 35.9025 125.422 36.7403 125.744 37.5306C126.067 38.3209 126.515 39.0092 127.089 39.5957C127.662 40.1823 128.349 40.6462 129.15 40.9873C129.951 41.3285 130.835 41.499 131.803 41.499C132.771 41.499 133.655 41.3253 134.456 40.9784C135.257 40.6312 135.949 40.1614 136.535 39.5686C137.121 38.9762 137.575 38.2848 137.897 37.4947C138.22 36.7046 138.381 35.8666 138.381 34.9809Z" fill="white"/>
<path fill-rule="evenodd" clip-rule="evenodd" d="M147.552 32.0579C147.552 31.6397 147.73 31.2844 148.087 30.9919C148.445 30.699 148.945 30.5527 149.588 30.5527C150.159 30.5527 150.725 30.6634 151.285 30.8844C151.844 31.1053 152.41 31.4248 152.981 31.8428L154.16 30.1766C153.517 29.6629 152.829 29.2718 152.097 29.0033C151.365 28.7345 150.54 28.6001 149.624 28.6001C149.004 28.6001 148.433 28.6866 147.912 28.8599C147.388 29.033 146.942 29.2808 146.569 29.6032C146.197 29.9259 145.906 30.311 145.691 30.7589C145.48 31.2068 145.373 31.7055 145.373 32.2549C145.373 32.8401 145.465 33.3359 145.65 33.742C145.834 34.1481 146.105 34.4945 146.456 34.7811C146.808 35.0678 147.245 35.3066 147.763 35.4978C148.284 35.689 148.877 35.8619 149.546 36.0173C150.13 36.1606 150.603 36.2979 150.969 36.4292C151.332 36.5607 151.618 36.7011 151.829 36.8503C152.038 36.9996 152.181 37.1638 152.258 37.3429C152.335 37.5222 152.374 37.725 152.374 37.952C152.374 38.442 152.174 38.8302 151.776 39.1166C151.377 39.4036 150.838 39.5466 150.159 39.5466C149.373 39.5466 148.671 39.4062 148.052 39.1256C147.433 38.8449 146.82 38.442 146.212 37.9162L144.891 39.493C145.641 40.1737 146.456 40.6784 147.337 41.0069C148.218 41.3354 149.141 41.4995 150.106 41.4995C150.761 41.4995 151.362 41.4159 151.91 41.2488C152.454 41.0813 152.925 40.8365 153.312 40.514C153.702 40.1916 154.005 39.7976 154.226 39.3318C154.443 38.866 154.553 38.3344 154.553 37.7371C154.553 37.2116 154.467 36.7548 154.294 36.3666C154.121 35.9784 153.865 35.6383 153.532 35.3453C153.199 35.0528 152.776 34.8048 152.27 34.6018C151.764 34.399 151.18 34.2138 150.526 34.0465C149.927 33.9032 149.436 33.7657 149.046 33.6344C148.659 33.5032 148.356 33.3598 148.132 33.2044C147.912 33.0492 147.76 32.8819 147.677 32.7028C147.594 32.5235 147.552 32.3086 147.552 32.0579Z" fill="white"/>
<path fill-rule="evenodd" clip-rule="evenodd" d="M77.5769 31.2022L71.5975 37.1737C71.5204 37.0243 71.4507 36.8686 71.3884 36.7072C71.1796 36.1646 71.0752 35.589 71.0752 34.981C71.0752 34.3725 71.1796 33.7971 71.3884 33.2545C71.5975 32.7117 71.887 32.2408 72.2573 31.8411C72.6275 31.4417 73.0725 31.1257 73.5919 30.8931C74.1115 30.6606 74.6817 30.5443 75.3026 30.5443C75.9238 30.5443 76.4971 30.6635 77.0223 30.9022C77.2175 30.9908 77.4024 31.0907 77.5769 31.2022ZM77.0493 39.1043C76.5297 39.337 75.9595 39.4531 75.3386 39.4531C74.7175 39.4531 74.1442 39.3339 73.6187 39.0954C73.4237 39.0066 73.2388 38.9067 73.0645 38.7949L79.0438 32.8239C79.1209 32.9731 79.1905 33.1285 79.2529 33.2902C79.4617 33.8328 79.5661 34.4084 79.5661 35.0167C79.5661 35.6249 79.4617 36.2003 79.2529 36.7431C79.0438 37.2857 78.7542 37.7566 78.384 38.156C78.0137 38.5555 77.569 38.8717 77.0493 39.1043ZM77.9538 40.956C78.7541 40.6101 79.4468 40.1421 80.0319 39.5515C80.6171 38.9614 81.0707 38.2726 81.3931 37.4855C81.7158 36.6984 81.877 35.8635 81.877 34.9811C81.877 34.0985 81.7158 33.2636 81.3931 32.4763C81.202 32.0095 80.9665 31.5784 80.6872 31.1828L84.5762 27.2991L83.0309 25.7559L79.1299 29.6514C78.7797 29.4129 78.3995 29.2068 77.9896 29.0328C77.1894 28.693 76.3057 28.5228 75.3385 28.5228C74.371 28.5228 73.4873 28.6959 72.6871 29.0417C71.8869 29.3876 71.1942 29.8556 70.609 30.446C70.0239 31.0363 69.57 31.7252 69.2476 32.5123C68.9251 33.2993 68.7639 34.1342 68.7639 35.0168C68.7639 35.8993 68.9251 36.7339 69.2476 37.5212C69.439 37.9882 69.6744 38.4193 69.9538 38.8151L66.0649 42.6984L67.6103 44.2416L71.511 40.3463C71.8612 40.5848 72.2414 40.7909 72.6513 40.9649C73.4516 41.3048 74.3352 41.4747 75.3025 41.4747C76.27 41.4747 77.1536 41.3016 77.9538 40.956Z" fill="white"/>
<defs>
<filter id="filter0_d-669418" x="11.3557" y="26.2932" width="2.75742" height="2.75802" filterUnits="userSpaceOnUse" color-interpolation-filters="sRGB">
<feFlood flood-opacity="0" result="BackgroundImageFix"/>
<feColorMatrix in="SourceAlpha" type="matrix" values="0 0 0 0 0 0 0 0 0 0 0 0 0 0 0 0 0 0 127 0"/>
<feOffset/>
<feGaussianBlur stdDeviation="0.070433"/>
<feColorMatrix type="matrix" values="0 0 0 0 1 0 0 0 0 1 0 0 0 0 1 0 0 0 0.61 0"/>
<feBlend mode="normal" in2="BackgroundImageFix" result="effect1_dropShadow"/>
<feBlend mode="normal" in="SourceGraphic" in2="effect1_dropShadow" result="shape"/>
</filter>
<filter id="filter1_d-060436" x="31.2778" y="30.6394" width="2.75742" height="2.75802" filterUnits="userSpaceOnUse" color-interpolation-filters="sRGB">
<feFlood flood-opacity="0" result="BackgroundImageFix"/>
<feColorMatrix in="SourceAlpha" type="matrix" values="0 0 0 0 0 0 0 0 0 0 0 0 0 0 0 0 0 0 127 0"/>
<feOffset/>
<feGaussianBlur stdDeviation="0.070433"/>
<feColorMatrix type="matrix" values="0 0 0 0 1 0 0 0 0 1 0 0 0 0 1 0 0 0 0.61 0"/>
<feBlend mode="normal" in2="BackgroundImageFix" result="effect1_dropShadow"/>
<feBlend mode="normal" in="SourceGraphic" in2="effect1_dropShadow" result="shape"/>
</filter>
<filter id="filter2_d-487221" x="22.571" y="45.7205" width="2.75791" height="2.7567" filterUnits="userSpaceOnUse" color-interpolation-filters="sRGB">
<feFlood flood-opacity="0" result="BackgroundImageFix"/>
<feColorMatrix in="SourceAlpha" type="matrix" values="0 0 0 0 0 0 0 0 0 0 0 0 0 0 0 0 0 0 127 0"/>
<feOffset/>
<feGaussianBlur stdDeviation="0.070433"/>
<feColorMatrix type="matrix" values="0 0 0 0 1 0 0 0 0 1 0 0 0 0 1 0 0 0 0.61 0"/>
<feBlend mode="normal" in2="BackgroundImageFix" result="effect1_dropShadow"/>
<feBlend mode="normal" in="SourceGraphic" in2="effect1_dropShadow" result="shape"/>
</filter>
<linearGradient id="paint0_linear-309972" x1="12.5909" y1="27.2579" x2="20.581" y2="33.5505" gradientUnits="userSpaceOnUse">
<stop stop-color="white" stop-opacity="0.33"/>
<stop offset="1" stop-color="white" stop-opacity="0"/>
</linearGradient>
<linearGradient id="paint1_linear-479227" x1="12.5909" y1="27.2579" x2="20.581" y2="33.5505" gradientUnits="userSpaceOnUse">
<stop stop-color="white" stop-opacity="0.33"/>
<stop offset="1" stop-color="white" stop-opacity="0"/>
</linearGradient>
<linearGradient id="paint2_linear-222440" x1="24.3906" y1="40.6114" x2="6.06187" y2="28.6348" gradientUnits="userSpaceOnUse">
<stop stop-color="white" stop-opacity="0.81"/>
<stop offset="0.427033" stop-color="white"/>
</linearGradient>
<linearGradient id="paint3_linear-770304" x1="24.9018" y1="41.8697" x2="24.9018" y2="33.079" gradientUnits="userSpaceOnUse">
<stop offset="0.12411" stop-color="white" stop-opacity="0.81"/>
<stop offset="1" stop-color="white" stop-opacity="0"/>
</linearGradient>
<linearGradient id="paint4_linear-188239" x1="31.7849" y1="32.7642" x2="24.6658" y2="38.074" gradientUnits="userSpaceOnUse">
<stop stop-color="white" stop-opacity="0.33"/>
<stop offset="1" stop-color="white" stop-opacity="0"/>
</linearGradient>
<linearGradient id="paint5_linear-602219" x1="31.7849" y1="32.7642" x2="24.6658" y2="38.074" gradientUnits="userSpaceOnUse">
<stop stop-color="white" stop-opacity="0.33"/>
<stop offset="1" stop-color="white" stop-opacity="0"/>
</linearGradient>
<linearGradient id="paint6_linear-219498" x1="13.9675" y1="35.4" x2="21.5193" y2="40.1985" gradientUnits="userSpaceOnUse">
<stop offset="0.177288" stop-color="white" stop-opacity="0.81"/>
<stop offset="1" stop-color="white" stop-opacity="0"/>
</linearGradient>
<linearGradient id="paint7_linear-247941" x1="36.8195" y1="24.8393" x2="14.9902" y2="35.7933" gradientUnits="userSpaceOnUse">
<stop offset="0.588765" stop-color="white"/>
<stop offset="1" stop-color="white" stop-opacity="0.81"/>
</linearGradient>
<linearGradient id="paint8_linear-956043" x1="17.822" y1="53.1777" x2="17.5467" y2="37.1499" gradientUnits="userSpaceOnUse">
<stop offset="0.343565" stop-color="white" stop-opacity="0.33"/>
<stop offset="0.992239" stop-color="white" stop-opacity="0"/>
</linearGradient>
<linearGradient id="paint9_linear-665133" x1="17.822" y1="53.1777" x2="17.5467" y2="37.1499" gradientUnits="userSpaceOnUse">
<stop offset="0.343565" stop-color="white" stop-opacity="0.33"/>
<stop offset="0.992239" stop-color="white" stop-opacity="0"/>
</linearGradient>
<linearGradient id="paint10_linear-673158" x1="23.6038" y1="30.0898" x2="23.6038" y2="47.1993" gradientUnits="userSpaceOnUse">
<stop stop-color="white" stop-opacity="0.81"/>
<stop offset="0.575778" stop-color="white"/>
</linearGradient>
<linearGradient id="paint11_linear-557863" x1="25.0983" y1="29.2442" x2="17.5466" y2="33.3544" gradientUnits="userSpaceOnUse">
<stop offset="0.171732" stop-color="white" stop-opacity="0.81"/>
<stop offset="1" stop-color="white" stop-opacity="0"/>
</linearGradient>
</defs>
</svg>