<svg width="171" height="64" viewBox="0 0 171 64" fill="none" xmlns="http://www.w3.org/2000/svg">
<g clip-path="url(#clip0-315523)">
<path d="M18.396 35.3795C18.396 33.6283 18.1731 31.8327 18.5075 30.148C18.6636 29.3499 19.7785 28.5297 20.648 28.1307C23.1899 26.9559 25.8878 26.6455 28.5857 27.4435C31.2391 28.2416 33.8478 29.2169 36.4565 30.1258C40.0909 31.3893 43.2348 30.5692 45.955 27.9534C46.1111 27.7982 46.2672 27.6652 46.6016 27.3549C46.6016 29.3278 46.7354 31.1012 46.5347 32.8302C46.4679 33.4509 45.6875 34.1603 45.0631 34.515C42.5213 35.9337 39.7565 36.3992 36.9025 35.6677C35.4086 35.2908 33.9593 34.648 32.4877 34.1381C30.8823 33.5839 29.2992 32.9411 27.6493 32.5421C24.4385 31.7662 21.5399 32.4091 19.1987 34.8696C19.0204 35.047 18.8197 35.2243 18.619 35.3795C18.5967 35.4017 18.5521 35.3795 18.396 35.3795Z" fill="white"/>
</g>
<path d="M65.804 36.13C65.3707 36.13 65.0544 36.1213 64.855 36.104C64.6644 36.0867 64.4434 36.0433 64.192 35.974C63.9234 35.9047 63.7154 35.8007 63.568 35.662C63.4207 35.5233 63.295 35.3197 63.191 35.051C63.087 34.791 63.035 34.466 63.035 34.076V31.762C63.035 31.06 63.1694 30.5573 63.438 30.254C63.5854 30.0807 63.7327 29.9507 63.88 29.864C64.036 29.7687 64.2354 29.7037 64.478 29.669C64.7207 29.6343 64.9374 29.6127 65.128 29.604C65.3187 29.5867 65.5874 29.578 65.934 29.578C66.532 29.578 67.13 29.643 67.728 29.773V30.631C67.0347 30.4577 66.389 30.371 65.791 30.371C65.3404 30.371 65.0067 30.4057 64.79 30.475C64.582 30.5357 64.4347 30.6527 64.348 30.826C64.27 30.9907 64.231 31.2463 64.231 31.593V34.167C64.231 34.4877 64.2744 34.726 64.361 34.882C64.4564 35.038 64.621 35.1507 64.855 35.22C65.0977 35.2807 65.453 35.311 65.921 35.311C66.5537 35.311 67.1864 35.2287 67.819 35.064V35.948C67.2297 36.0693 66.558 36.13 65.804 36.13ZM70.7033 36.091L68.2723 29.708H69.5463L71.3013 34.843H71.3273L72.9133 29.708H74.0963L70.9373 38.704H69.7153L70.7033 36.091ZM77.9048 36.13C77.4368 36.13 77.0598 36.104 76.7738 36.052C76.4965 36.0087 76.2191 35.922 75.9418 35.792C75.3785 35.5233 75.0968 34.908 75.0968 33.946V26.9H76.2668V28.785V29.526C76.2581 29.7513 76.2538 30.0027 76.2538 30.28C76.2971 30.0807 76.4791 29.9117 76.7998 29.773C77.1291 29.643 77.6058 29.578 78.2298 29.578C79.9631 29.578 80.8298 30.1717 80.8298 31.359V33.946C80.8298 34.3187 80.7735 34.6437 80.6608 34.921C80.5568 35.1983 80.4181 35.415 80.2448 35.571C80.0888 35.7183 79.8721 35.8353 79.5948 35.922C79.3261 36.0087 79.0575 36.065 78.7888 36.091C78.5461 36.117 78.2515 36.13 77.9048 36.13ZM77.9308 35.363C78.3815 35.363 78.7238 35.3327 78.9578 35.272C79.2005 35.2027 79.3738 35.0813 79.4778 34.908C79.5818 34.7347 79.6338 34.4703 79.6338 34.115V31.645C79.6338 31.2897 79.5818 31.0253 79.4778 30.852C79.3738 30.67 79.2005 30.553 78.9578 30.501C78.7238 30.4403 78.3771 30.41 77.9178 30.41C77.4931 30.41 77.1638 30.4447 76.9298 30.514C76.6958 30.5833 76.5268 30.709 76.4228 30.891C76.3188 31.0643 76.2668 31.3157 76.2668 31.645V34.115C76.2668 34.4703 76.3145 34.7347 76.4098 34.908C76.5138 35.0813 76.6828 35.2027 76.9168 35.272C77.1508 35.3327 77.4888 35.363 77.9308 35.363ZM85.1861 36.13C83.2621 36.13 82.3001 35.4887 82.3001 34.206V31.723C82.3001 30.9603 82.5168 30.4143 82.9501 30.085C83.3921 29.747 84.1028 29.578 85.0821 29.578C86.0094 29.578 86.6768 29.7383 87.0841 30.059C87.5001 30.3797 87.7081 30.9343 87.7081 31.723V33.114H83.4831V34.063C83.4831 34.4963 83.6348 34.8083 83.9381 34.999C84.2414 35.1897 84.7094 35.285 85.3421 35.285C85.9401 35.285 86.6464 35.181 87.4611 34.973V35.87C86.6638 36.0433 85.9054 36.13 85.1861 36.13ZM86.5381 32.347V31.359C86.5381 30.9777 86.4211 30.7177 86.1871 30.579C85.9618 30.4317 85.5718 30.358 85.0171 30.358C84.4798 30.358 84.0898 30.4317 83.8471 30.579C83.6044 30.7177 83.4831 30.9777 83.4831 31.359V32.347H86.5381ZM89.4001 29.708H90.5051V30.735C90.5051 30.5357 90.5918 30.3493 90.7651 30.176C90.9385 29.994 91.1595 29.851 91.4281 29.747C91.6968 29.6343 91.9611 29.578 92.2211 29.578H92.7931V30.579H92.1431C91.5885 30.579 91.1855 30.6527 90.9341 30.8C90.6915 30.9387 90.5701 31.1943 90.5701 31.567V36H89.4001V29.708ZM93.7368 31.892C94.0661 31.502 94.5948 31.307 95.3228 31.307C95.6434 31.307 96.1158 31.4327 96.7398 31.684C97.3551 31.944 97.7624 32.074 97.9618 32.074C98.6638 32.074 99.1794 31.8053 99.5088 31.268V32.321C99.1968 32.7197 98.6638 32.919 97.9098 32.919C97.6411 32.919 97.1991 32.789 96.5838 32.529C95.9598 32.2777 95.5221 32.152 95.2708 32.152C94.9068 32.152 94.6034 32.217 94.3608 32.347C94.1268 32.4683 93.9188 32.6677 93.7368 32.945V31.892ZM104.684 36.13C102.318 36.13 101.135 35.3673 101.135 33.842V29.838C101.135 28.226 102.318 27.42 104.684 27.42C105.49 27.42 106.261 27.5023 106.998 27.667V28.603C106.166 28.395 105.403 28.291 104.71 28.291C104.372 28.291 104.077 28.3127 103.826 28.356C103.574 28.3907 103.332 28.4557 103.098 28.551C102.595 28.7677 102.344 29.1923 102.344 29.825V33.777C102.344 34.7477 103.15 35.233 104.762 35.233C105.455 35.233 106.218 35.129 107.05 34.921V35.883C106.313 36.0477 105.524 36.13 104.684 36.13ZM111.229 36.13C110.674 36.13 110.258 36.1083 109.981 36.065C109.703 36.0303 109.426 35.948 109.149 35.818C108.863 35.688 108.655 35.48 108.525 35.194C108.395 34.8993 108.33 34.505 108.33 34.011V31.827C108.33 31.437 108.377 31.0947 108.473 30.8C108.568 30.5053 108.694 30.2757 108.85 30.111C108.98 29.9637 109.175 29.851 109.435 29.773C109.703 29.6863 109.976 29.63 110.254 29.604C110.566 29.5867 110.891 29.578 111.229 29.578C111.679 29.578 112.017 29.591 112.243 29.617C112.477 29.6343 112.724 29.6777 112.984 29.747C113.252 29.825 113.46 29.942 113.608 30.098C113.755 30.254 113.881 30.4793 113.985 30.774C114.08 31.0773 114.128 31.4283 114.128 31.827V34.011C114.128 34.7477 113.959 35.285 113.621 35.623C113.482 35.7617 113.283 35.87 113.023 35.948C112.763 36.026 112.494 36.078 112.217 36.104C111.887 36.1213 111.558 36.13 111.229 36.13ZM111.229 35.363C111.593 35.363 111.857 35.3543 112.022 35.337C112.186 35.3197 112.347 35.272 112.503 35.194C112.659 35.1247 112.767 35.012 112.828 34.856C112.897 34.6913 112.932 34.466 112.932 34.18V31.632C112.932 31.242 112.884 30.9603 112.789 30.787C112.693 30.605 112.529 30.488 112.295 30.436C112.069 30.3753 111.714 30.345 111.229 30.345C110.743 30.345 110.384 30.3753 110.15 30.436C109.924 30.488 109.764 30.605 109.669 30.787C109.573 30.9603 109.526 31.242 109.526 31.632V34.18C109.526 34.466 109.556 34.6913 109.617 34.856C109.686 35.012 109.799 35.1247 109.955 35.194C110.111 35.272 110.271 35.3197 110.436 35.337C110.6 35.3543 110.865 35.363 111.229 35.363ZM115.861 29.708H117.031V30.475C117.153 29.877 117.842 29.578 119.098 29.578C119.904 29.578 120.468 29.7253 120.788 30.02C121.118 30.306 121.282 30.761 121.282 31.385V36H120.112V31.45C120.112 31.2853 120.099 31.151 120.073 31.047C120.047 30.943 119.995 30.839 119.917 30.735C119.744 30.5183 119.358 30.41 118.76 30.41C118.301 30.41 117.946 30.4447 117.694 30.514C117.452 30.5747 117.278 30.6787 117.174 30.826C117.079 30.9733 117.031 31.1813 117.031 31.45V36H115.861V29.708ZM125.601 38.86C124.743 38.86 124.02 38.8123 123.43 38.717V37.885C124.47 38.0063 125.229 38.067 125.705 38.067C126.303 38.067 126.737 37.9717 127.005 37.781C127.283 37.5903 127.421 37.274 127.421 36.832V35.324C127.404 35.6013 127.213 35.805 126.849 35.935C126.494 36.065 126.043 36.13 125.497 36.13C124.847 36.13 124.34 36.0693 123.976 35.948C123.621 35.8267 123.365 35.6273 123.209 35.35C123.062 35.0727 122.988 34.6957 122.988 34.219V31.658C122.988 30.9127 123.188 30.3797 123.586 30.059C123.994 29.7383 124.657 29.578 125.575 29.578C126.667 29.578 127.309 29.825 127.499 30.319V29.708H128.591V36.598C128.591 37.1787 128.483 37.6337 128.266 37.963C128.05 38.2923 127.725 38.522 127.291 38.652C126.858 38.7907 126.295 38.86 125.601 38.86ZM125.744 35.35C126.36 35.35 126.793 35.2763 127.044 35.129C127.296 34.9817 127.421 34.7043 127.421 34.297V31.45C127.421 31.164 127.374 30.9473 127.278 30.8C127.192 30.6527 127.027 30.5487 126.784 30.488C126.542 30.4187 126.186 30.384 125.718 30.384C125.276 30.384 124.943 30.4143 124.717 30.475C124.501 30.5357 124.349 30.644 124.262 30.8C124.184 30.9473 124.145 31.164 124.145 31.45V34.297C124.145 34.5917 124.189 34.8127 124.275 34.96C124.362 35.1073 124.518 35.2113 124.743 35.272C124.969 35.324 125.302 35.35 125.744 35.35ZM130.533 29.708H131.638V30.735C131.638 30.5357 131.725 30.3493 131.898 30.176C132.071 29.994 132.292 29.851 132.561 29.747C132.83 29.6343 133.094 29.578 133.354 29.578H133.926V30.579H133.276C132.721 30.579 132.318 30.6527 132.067 30.8C131.824 30.9387 131.703 31.1943 131.703 31.567V36H130.533V29.708ZM137.651 36.13C135.727 36.13 134.765 35.4887 134.765 34.206V31.723C134.765 30.9603 134.982 30.4143 135.415 30.085C135.857 29.747 136.568 29.578 137.547 29.578C138.475 29.578 139.142 29.7383 139.549 30.059C139.965 30.3797 140.173 30.9343 140.173 31.723V33.114H135.948V34.063C135.948 34.4963 136.1 34.8083 136.403 34.999C136.707 35.1897 137.175 35.285 137.807 35.285C138.405 35.285 139.112 35.181 139.926 34.973V35.87C139.129 36.0433 138.371 36.13 137.651 36.13ZM139.003 32.347V31.359C139.003 30.9777 138.886 30.7177 138.652 30.579C138.427 30.4317 138.037 30.358 137.482 30.358C136.945 30.358 136.555 30.4317 136.312 30.579C136.07 30.7177 135.948 30.9777 135.948 31.359V32.347H139.003ZM143.789 36.13C143.122 36.13 142.403 36.078 141.631 35.974V35.077C142.645 35.2417 143.373 35.324 143.815 35.324C144.37 35.324 144.769 35.272 145.011 35.168C145.254 35.0553 145.375 34.8517 145.375 34.557V33.92C145.375 33.6513 145.284 33.4607 145.102 33.348C144.92 33.2353 144.626 33.179 144.218 33.179H143.503C142.853 33.179 142.355 33.0447 142.008 32.776C141.67 32.5073 141.501 32.1303 141.501 31.645V31.06C141.501 30.072 142.437 29.578 144.309 29.578C144.448 29.578 145.085 29.6127 146.22 29.682V30.527C145.449 30.4057 144.795 30.345 144.257 30.345C143.642 30.345 143.222 30.4057 142.996 30.527C142.771 30.6483 142.658 30.852 142.658 31.138V31.671C142.658 32.0957 143.044 32.308 143.815 32.308H144.543C145.869 32.308 146.532 32.802 146.532 33.79V34.336C146.532 34.986 146.307 35.4497 145.856 35.727C145.406 35.9957 144.717 36.13 143.789 36.13ZM149.983 36.13C149.315 36.13 148.596 36.078 147.825 35.974V35.077C148.839 35.2417 149.567 35.324 150.009 35.324C150.563 35.324 150.962 35.272 151.205 35.168C151.447 35.0553 151.569 34.8517 151.569 34.557V33.92C151.569 33.6513 151.478 33.4607 151.296 33.348C151.114 33.2353 150.819 33.179 150.412 33.179H149.697C149.047 33.179 148.548 33.0447 148.202 32.776C147.864 32.5073 147.695 32.1303 147.695 31.645V31.06C147.695 30.072 148.631 29.578 150.503 29.578C150.641 29.578 151.278 29.6127 152.414 29.682V30.527C151.642 30.4057 150.988 30.345 150.451 30.345C149.835 30.345 149.415 30.4057 149.19 30.527C148.964 30.6483 148.852 30.852 148.852 31.138V31.671C148.852 32.0957 149.237 32.308 150.009 32.308H150.737C152.063 32.308 152.726 32.802 152.726 33.79V34.336C152.726 34.986 152.5 35.4497 152.05 35.727C151.599 35.9957 150.91 36.13 149.983 36.13Z" fill="white"/>
<defs>
<clipPath id="clip0-315523">
<rect width="28.3171" height="9" fill="white" transform="translate(18.3289 27)"/>
</clipPath>
</defs>
</svg>