<svg width="171" height="64" viewBox="0 0 171 64" fill="none" xmlns="http://www.w3.org/2000/svg">
<path d="M75.3312 39V26.4882H79.181C80.2809 26.4882 81.2634 26.7374 82.1285 27.2359C82.9993 27.7285 83.6781 28.4332 84.1651 29.3498C84.652 30.2607 84.8955 31.2976 84.8955 32.4605V33.0363C84.8955 34.1992 84.6549 35.2333 84.1737 36.1385C83.6982 37.0436 83.025 37.7454 82.1543 38.2438C81.2835 38.7422 80.301 38.9943 79.2068 39H75.3312ZM77.9092 28.5764V36.929H79.1552C80.1635 36.929 80.934 36.5996 81.4668 35.9408C81.9996 35.282 82.2717 34.3396 82.2832 33.1136V32.452C82.2832 31.1802 82.0196 30.2177 81.4926 29.5646C80.9655 28.9058 80.195 28.5764 79.181 28.5764H77.9092ZM90.7704 39.1719C89.4069 39.1719 88.2955 38.7537 87.4362 37.9173C86.5826 37.0808 86.1558 35.9666 86.1558 34.5745V34.3339C86.1558 33.4001 86.3363 32.5665 86.6972 31.8332C87.0581 31.0942 87.568 30.5271 88.2268 30.1318C88.8913 29.7308 89.6475 29.5302 90.4954 29.5302C91.7672 29.5302 92.7669 29.9313 93.4945 30.7333C94.2277 31.5353 94.5944 32.6725 94.5944 34.1448V35.1588H88.6736C88.7539 35.7661 88.9945 36.253 89.3955 36.6197C89.8022 36.9863 90.315 37.1696 90.9337 37.1696C91.8904 37.1696 92.638 36.823 93.1765 36.1299L94.3967 37.4962C94.0244 38.0232 93.5202 38.4357 92.8843 38.7336C92.2484 39.0258 91.5438 39.1719 90.7704 39.1719ZM90.4868 31.5411C89.9941 31.5411 89.5931 31.7072 89.2838 32.0395C88.9801 32.3717 88.7854 32.8472 88.6994 33.466H92.1539V33.2683C92.1425 32.7183 91.9935 32.2944 91.7071 31.9965C91.4206 31.6929 91.0139 31.5411 90.4868 31.5411ZM100.925 36.4306C100.925 36.127 100.773 35.8892 100.469 35.7174C100.171 35.5398 99.6902 35.3822 99.0256 35.2448C96.8143 34.7807 95.7086 33.8412 95.7086 32.4262C95.7086 31.6012 96.0495 30.9138 96.7312 30.3638C97.4187 29.8081 98.3152 29.5302 99.4209 29.5302C100.601 29.5302 101.543 29.8081 102.248 30.3638C102.958 30.9195 103.314 31.6413 103.314 32.5293H100.83C100.83 32.1741 100.716 31.8819 100.486 31.6528C100.257 31.4179 99.8993 31.3005 99.4123 31.3005C98.9941 31.3005 98.6704 31.395 98.4413 31.584C98.2121 31.7731 98.0975 32.0137 98.0975 32.3059C98.0975 32.5808 98.2264 32.8043 98.4842 32.9761C98.7478 33.1423 99.1889 33.2884 99.8076 33.4144C100.426 33.5347 100.948 33.6722 101.372 33.8269C102.683 34.3081 103.339 35.1416 103.339 36.3275C103.339 37.1754 102.976 37.8628 102.248 38.3899C101.521 38.9112 100.581 39.1719 99.4295 39.1719C98.6504 39.1719 97.9572 39.0344 97.3499 38.7594C96.7484 38.4787 96.2758 38.0977 95.932 37.6165C95.5883 37.1295 95.4165 36.6054 95.4165 36.0439H97.771C97.7939 36.485 97.9572 36.823 98.2608 37.0579C98.5644 37.2928 98.9712 37.4103 99.4811 37.4103C99.9565 37.4103 100.315 37.3215 100.555 37.1439C100.802 36.9605 100.925 36.7228 100.925 36.4306ZM107.152 29.7021L107.229 30.7419C107.888 29.9341 108.779 29.5302 109.902 29.5302C111.099 29.5302 111.921 30.0029 112.368 30.9481C113.021 30.0029 113.952 29.5302 115.161 29.5302C116.169 29.5302 116.92 29.8253 117.412 30.4154C117.905 30.9997 118.151 31.8819 118.151 33.0621V39H115.659V33.0707C115.659 32.5436 115.556 32.1598 115.35 31.9192C115.144 31.6728 114.78 31.5497 114.259 31.5497C113.514 31.5497 112.998 31.9048 112.712 32.6152L112.72 39H110.237V33.0793C110.237 32.5407 110.131 32.1512 109.919 31.9106C109.707 31.67 109.346 31.5497 108.836 31.5497C108.132 31.5497 107.622 31.8418 107.307 32.4262V39H104.823V29.7021H107.152ZM119.558 34.2651C119.558 33.3428 119.735 32.5207 120.09 31.7989C120.446 31.077 120.956 30.5185 121.62 30.1232C122.29 29.7279 123.067 29.5302 123.949 29.5302C125.203 29.5302 126.226 29.9141 127.017 30.6817C127.813 31.4494 128.257 32.4921 128.349 33.8097L128.366 34.4456C128.366 35.8721 127.968 37.0178 127.171 37.8829C126.375 38.7422 125.307 39.1719 123.966 39.1719C122.625 39.1719 121.554 38.7422 120.752 37.8829C119.956 37.0236 119.558 35.8549 119.558 34.3768V34.2651ZM122.041 34.4456C122.041 35.3278 122.207 36.0038 122.54 36.4736C122.872 36.9376 123.347 37.1696 123.966 37.1696C124.568 37.1696 125.037 36.9405 125.375 36.4822C125.713 36.0181 125.882 35.2791 125.882 34.2651C125.882 33.4001 125.713 32.7298 125.375 32.2543C125.037 31.7788 124.562 31.5411 123.949 31.5411C123.342 31.5411 122.872 31.7788 122.54 32.2543C122.207 32.7241 122.041 33.4545 122.041 34.4456ZM134.808 36.4306C134.808 36.127 134.656 35.8892 134.352 35.7174C134.054 35.5398 133.573 35.3822 132.909 35.2448C130.697 34.7807 129.592 33.8412 129.592 32.4262C129.592 31.6012 129.933 30.9138 130.614 30.3638C131.302 29.8081 132.198 29.5302 133.304 29.5302C134.484 29.5302 135.427 29.8081 136.131 30.3638C136.842 30.9195 137.197 31.6413 137.197 32.5293H134.713C134.713 32.1741 134.599 31.8819 134.37 31.6528C134.14 31.4179 133.782 31.3005 133.295 31.3005C132.877 31.3005 132.554 31.395 132.324 31.584C132.095 31.7731 131.981 32.0137 131.981 32.3059C131.981 32.5808 132.11 32.8043 132.367 32.9761C132.631 33.1423 133.072 33.2884 133.691 33.4144C134.309 33.5347 134.831 33.6722 135.255 33.8269C136.567 34.3081 137.222 35.1416 137.222 36.3275C137.222 37.1754 136.859 37.8628 136.131 38.3899C135.404 38.9112 134.464 39.1719 133.313 39.1719C132.533 39.1719 131.84 39.0344 131.233 38.7594C130.631 38.4787 130.159 38.0977 129.815 37.6165C129.471 37.1295 129.3 36.6054 129.3 36.0439H131.654C131.677 36.485 131.84 36.823 132.144 37.0579C132.448 37.2928 132.854 37.4103 133.364 37.4103C133.84 37.4103 134.198 37.3215 134.438 37.1439C134.685 36.9605 134.808 36.7228 134.808 36.4306Z" fill="white"/>
<g clip-path="url(#clip0-270679)">
<path d="M59.8993 22.4514C58.0732 20.3199 55.8104 18.4538 53.5627 17.0096C47.9079 13.3767 42.0305 12.0282 39.271 13.729C37.9348 14.5527 36.9252 16.1526 36.2192 18.6065C34.1501 20.9296 33.1215 25.8517 33.0077 33.8586C32.8897 42.1562 34.1289 47.3858 36.6909 49.402C37.8724 50.3319 39.6254 50.7933 41.7135 50.7933C44.1038 50.7933 46.9332 50.1886 49.8459 48.991C50.0617 48.9023 50.2724 48.8115 50.4815 48.72C51.7533 48.4071 52.9998 47.9993 54.2106 47.5C62.2827 44.1805 65.6665 38.9166 66.1414 35.0972C66.7241 30.4147 63.7309 25.889 59.8993 22.4514ZM41.3228 47.571C40.8776 47.2086 40.4922 46.7786 40.1805 46.2966C41.1713 46.6651 42.3536 46.8492 43.6701 46.8492C46.0604 46.8492 48.8898 46.2449 51.8023 45.0473C55.8968 43.3636 58.7831 41.1795 60.6974 38.9374C59.3972 42.1211 56.2015 45.7459 50.3119 48.3218C46.4861 49.2508 43.1574 49.0147 41.3228 47.571ZM51.6374 44.6469C46.9009 46.594 42.4245 46.948 39.7973 45.6595C38.3873 43.0426 37.7167 38.5971 37.8052 32.3739C37.9166 24.539 38.9427 19.6068 40.9324 17.3805C43.8208 17.5268 47.6333 18.9156 51.3723 21.3178C56.6852 24.7312 62.0958 30.5214 61.3478 36.5346C61.2963 36.9354 61.2171 37.3321 61.1105 37.7219C59.2806 40.2305 56.2396 42.7545 51.6374 44.6469V44.6469ZM37.5415 18.0414C38.2691 17.593 39.2384 17.3805 40.3682 17.3716C38.4431 19.7904 37.4819 24.6436 37.3721 32.3676C37.2891 38.2033 37.8804 42.5144 39.1278 45.2644C39.0574 45.2151 38.9816 45.1703 38.915 45.1179C36.4649 43.1897 35.2815 38.0768 35.3973 29.9211C35.4651 25.1582 35.8709 21.4684 36.6255 18.8062C36.8945 18.5107 37.2027 18.2534 37.5415 18.0414ZM51.6061 20.9535C47.974 18.6199 44.2546 17.2352 41.324 16.9893C41.5048 16.8263 41.6995 16.6795 41.9059 16.5506C42.6489 16.0926 43.6369 15.8725 44.7977 15.8725C47.7365 15.8725 51.7799 17.2847 55.7367 19.827C57.0989 20.7017 58.3899 21.6825 59.5977 22.7603C62.0933 25.6807 63.739 29.0975 63.3044 32.5909C63.1463 33.8617 62.6519 35.2992 61.7506 36.7706C61.7595 36.7097 61.7699 36.6481 61.7774 36.5878C62.5504 30.3753 57.0299 24.4382 51.6061 20.9535V20.9535ZM39.4981 14.0977C40.2411 13.6398 41.2291 13.4197 42.3899 13.4197C45.3286 13.4197 49.3719 14.8318 53.3289 17.3739C54.6494 18.2224 55.9033 19.1705 57.0794 20.21C56.7108 19.9503 56.3413 19.7012 55.971 19.4627C50.3164 15.8296 44.4387 14.4809 41.6788 16.1819C41.3336 16.3972 41.0169 16.6551 40.7362 16.9496C39.357 16.9056 38.1815 17.1381 37.3144 17.6727C37.1652 17.7657 37.0215 17.8672 36.884 17.9767C37.5371 16.0581 38.4062 14.7708 39.4981 14.0977H39.4981ZM36.9586 49.0621C34.5085 47.1334 33.3248 42.02 33.4407 33.8646C33.5395 26.9139 34.3587 22.2488 35.9314 19.7294C35.3412 22.3108 35.0245 25.6804 34.9643 29.9148C34.8463 38.2125 36.0856 43.4421 38.6473 45.4579C38.9116 45.6617 39.1947 45.8397 39.4929 45.9894C39.9437 46.7982 40.4623 47.4446 41.0551 47.911C42.2368 48.8413 43.9896 49.3022 46.0779 49.3022C46.7764 49.2984 47.4739 49.2501 48.1662 49.1577C43.4348 50.7868 39.1411 50.7793 36.9586 49.0621H36.9586ZM65.7118 35.0439C65.2517 38.7419 61.9453 43.851 54.0457 47.0995C53.6404 47.2662 53.238 47.4172 52.8375 47.5606C58.0106 44.7059 60.6452 41.0025 61.5076 37.9071C62.8355 36.0655 63.5367 34.2303 63.734 32.6442C64.0724 29.9243 63.2045 27.2574 61.6667 24.8258C64.3503 27.8292 66.1657 31.395 65.7118 35.0439Z" fill="white"/>
</g>
<defs>
<clipPath id="clip0-270679">
<rect width="33.2142" height="37.7933" fill="white" transform="translate(33 13)"/>
</clipPath>
</defs>
</svg>