<svg width="171" height="65" viewBox="0 0 171 65" fill="none" xmlns="http://www.w3.org/2000/svg">
<path d="M139.943 29.9412C139.795 30.2675 139.647 30.5937 139.513 30.9348C137.749 35.1613 135.984 39.373 134.219 43.5996C134.175 43.7182 134.115 43.7627 133.982 43.7627C133.374 43.7479 132.766 43.7627 132.113 43.7627C132.143 43.6737 132.173 43.6144 132.202 43.5402C132.795 42.1314 133.389 40.7077 133.982 39.2989C134.026 39.1951 134.026 39.1061 133.982 39.0023C132.781 36.0215 131.594 33.0258 130.393 30.045C130.363 29.9857 130.349 29.9264 130.319 29.8522C130.393 29.8522 130.452 29.8374 130.512 29.8374C131.12 29.8374 131.728 29.8374 132.321 29.8374C132.469 29.8374 132.529 29.8819 132.573 30.0154C133.403 32.2843 134.234 34.5385 135.079 36.8075C135.109 36.8668 135.139 36.9261 135.168 37.0299C135.198 36.9409 135.228 36.8816 135.257 36.8223C136.132 34.5533 137.007 32.2695 137.882 30.0005C137.927 29.8819 137.986 29.8374 138.105 29.8374C138.727 29.8374 139.335 29.8374 139.958 29.8374C139.943 29.8819 139.943 29.9116 139.943 29.9412Z" fill="white"/>
<path d="M97.8412 39.2989C97.1887 39.2989 96.551 39.2989 95.8837 39.2989C95.8837 36.5999 95.8837 33.9157 95.8837 31.2314C95.8688 31.2314 95.8688 31.2314 95.854 31.2314C95.765 31.4242 95.6909 31.6022 95.6019 31.795C94.5045 34.2419 93.4219 36.6889 92.3393 39.1358C92.28 39.2841 92.2058 39.3286 92.0427 39.3138C91.7165 39.2989 91.3754 39.2989 91.0491 39.3138C90.9305 39.3138 90.8563 39.2693 90.8118 39.1655C89.9369 37.1931 89.0471 35.2207 88.1721 33.2483C87.8755 32.581 87.5789 31.9285 87.2527 31.2611C87.2527 33.9305 87.2527 36.6147 87.2527 39.2989C86.5853 39.2989 85.9328 39.2989 85.2803 39.2989C85.2803 35.3245 85.2803 31.3501 85.2803 27.3608C85.4137 27.3608 85.5176 27.3608 85.6362 27.3608C86.1701 27.3608 86.6891 27.3608 87.223 27.3608C87.3565 27.3608 87.4158 27.4053 87.4751 27.524C88.8246 30.5344 90.1741 33.5449 91.5237 36.5554C91.5385 36.5999 91.5533 36.6295 91.5978 36.7037C91.6275 36.6295 91.6571 36.5702 91.6868 36.5257C93.0215 33.5301 94.371 30.5344 95.7057 27.5388C95.765 27.4202 95.8095 27.3757 95.9578 27.3757C96.5362 27.3905 97.1146 27.3757 97.7077 27.3757C97.7671 27.3757 97.8264 27.3757 97.8857 27.3757C97.8412 31.3649 97.8412 35.3245 97.8412 39.2989Z" fill="white"/>
<path d="M129.874 35.2502C127.457 35.2502 125.054 35.2502 122.622 35.2502C122.652 35.8434 122.815 36.3772 123.156 36.837C124.12 38.142 126.122 38.0234 126.923 37.2374C127.116 37.0446 127.264 36.8073 127.427 36.5997C127.457 36.5552 127.516 36.4959 127.561 36.4959C128.243 36.4959 128.91 36.4959 129.607 36.4959C129.474 36.926 129.281 37.3115 129.029 37.6674C128.243 38.7352 127.175 39.3284 125.84 39.447C124.906 39.536 123.987 39.4619 123.126 39.0318C121.732 38.3496 120.946 37.2077 120.679 35.7099C120.487 34.568 120.531 33.4409 121.006 32.3583C121.703 30.8012 122.919 29.9262 124.609 29.7334C125.618 29.6148 126.611 29.7186 127.531 30.1932C128.955 30.9198 129.726 32.1062 129.874 33.693C129.919 34.1379 129.874 34.5977 129.874 35.0426C129.904 35.1019 129.889 35.1612 129.874 35.2502ZM127.872 33.8858C127.916 33.0109 127.472 32.1804 126.715 31.7355C125.766 31.1868 124.773 31.1719 123.838 31.7503C123.067 32.2249 122.726 32.9812 122.637 33.871C124.402 33.8858 126.137 33.8858 127.872 33.8858Z" fill="white"/>
<path d="M66.8319 35.2502C66.8616 36.7035 67.9293 37.9047 69.6199 37.8157C70.5097 37.7713 71.2068 37.4005 71.6516 36.5997C71.6813 36.5552 71.7406 36.4959 71.7851 36.4959C72.4525 36.4959 73.1198 36.4959 73.8316 36.4959C73.7427 36.7183 73.6685 36.9111 73.5647 37.1039C72.8677 38.4089 71.7851 39.1801 70.317 39.4174C69.3234 39.5657 68.3446 39.5064 67.4251 39.0911C66.0904 38.4831 65.2599 37.4302 64.9485 35.9917C64.6668 34.746 64.6964 33.5002 65.2303 32.3138C65.9273 30.7864 67.1434 29.9262 68.8191 29.7334C69.8424 29.6148 70.836 29.7186 71.7555 30.1932C73.0457 30.8605 73.802 31.9283 74.0541 33.3519C74.1579 33.9155 74.1431 34.4938 74.0838 35.0722C74.0838 35.1315 74.0689 35.176 74.0541 35.2502C71.6516 35.2502 69.2344 35.2502 66.8319 35.2502ZM72.0669 33.8858C72.1262 32.5066 71.014 31.3796 69.5606 31.3499C67.8848 31.3054 66.8912 32.5956 66.8468 33.8858C68.5819 33.8858 70.317 33.8858 72.0669 33.8858Z" fill="white"/>
<path d="M99.3689 34.5832C99.3541 33.3523 99.6655 32.2252 100.496 31.2909C101.49 30.1787 102.75 29.6745 104.233 29.6893C105.85 29.7041 107.169 30.3121 108.148 31.6172C108.771 32.4476 109.008 33.4264 109.023 34.4497C109.038 35.6954 108.741 36.8521 107.896 37.8012C106.858 38.9728 105.523 39.4919 103.966 39.4622C102.617 39.4325 101.445 38.958 100.526 37.9495C99.799 37.1487 99.4579 36.1848 99.3689 35.117C99.3541 34.9391 99.3689 34.7611 99.3689 34.5832ZM107.036 34.5832C106.991 34.2272 106.962 33.8713 106.888 33.5302C106.591 32.2549 105.523 31.3799 104.248 31.3502C102.913 31.3206 101.875 32.1214 101.519 33.4116C101.341 34.0789 101.341 34.7463 101.445 35.4136C101.549 36.0513 101.801 36.6297 102.29 37.0746C103.447 38.1572 105.301 38.0089 106.339 36.7483C106.828 36.1403 106.991 35.384 107.036 34.5832Z" fill="white"/>
<path d="M112.493 39.2989C111.826 39.2989 111.188 39.2989 110.536 39.2989C110.536 36.1402 110.536 33.011 110.536 29.8523C111.188 29.8523 111.826 29.8523 112.493 29.8523C112.493 30.3268 112.493 30.7717 112.493 31.2463C112.701 30.9942 112.894 30.7421 113.101 30.5345C113.783 29.8819 114.629 29.6743 115.548 29.6743C116.957 29.6891 118.04 30.2823 118.722 31.5429C119.048 32.1361 119.181 32.7886 119.181 33.4559C119.196 35.3542 119.181 37.2524 119.181 39.1655C119.181 39.21 119.181 39.2396 119.167 39.2989C118.514 39.2989 117.876 39.2989 117.224 39.2989C117.224 39.2248 117.224 39.1506 117.224 39.0765C117.224 37.371 117.239 35.6508 117.209 33.9453C117.209 33.5746 117.135 33.189 117.031 32.8331C116.794 32.0916 116.26 31.6319 115.504 31.4687C114.91 31.3353 114.317 31.3649 113.769 31.617C113.012 31.9581 112.641 32.5958 112.523 33.3966C112.493 33.6191 112.478 33.8267 112.478 34.0491C112.478 35.7249 112.478 37.4007 112.478 39.0765C112.493 39.1506 112.493 39.2248 112.493 39.2989Z" fill="white"/>
<path d="M82.4183 33.7378C82.4183 34.2865 82.4183 34.8204 82.4183 35.3691C80.5497 35.3691 78.696 35.3691 76.8274 35.3691C76.8274 34.8352 76.8274 34.2865 76.8274 33.7378C78.6811 33.7378 80.5349 33.7378 82.4183 33.7378Z" fill="white"/>
<path d="M31.2847 33.1152C31.3143 32.7741 31.3588 32.433 31.3885 32.1067C31.4033 31.9288 31.4033 31.7656 31.433 31.5877C31.4478 31.5135 31.4923 31.4394 31.5368 31.3949C32.219 30.7127 33.0346 30.2233 33.9096 29.8081C35.4074 29.0963 36.9942 28.6662 38.6403 28.3844C40.4496 28.073 42.2736 27.984 44.0977 28.0137C47.2417 28.073 50.3559 28.4141 53.4109 29.1704C55.2647 29.6301 57.0442 30.253 58.7349 31.1724C58.8683 31.2466 58.898 31.3059 58.8535 31.4542C58.7942 31.6322 58.7497 31.825 58.6904 32.0326C58.5421 31.9584 58.3938 31.8991 58.2603 31.8398C56.0506 30.8017 53.752 30.1195 51.3792 29.6895C49.4958 29.3484 47.5828 29.1852 45.6697 29.1111C44.1422 29.0518 42.6296 29.0221 41.1021 29.1259C38.9369 29.2742 36.8162 29.5856 34.7845 30.4013C33.8354 30.7869 32.9308 31.2911 32.1893 32.0178C31.8334 32.3588 31.5219 32.7593 31.3292 33.219C31.3143 33.2486 31.2995 33.2635 31.2847 33.2931C31.2847 33.2338 31.2847 33.1745 31.2847 33.1152Z" fill="white"/>
<path d="M31.2847 35.3838C31.4626 34.5533 32.1003 34.064 32.7083 33.5746C33.6723 32.8331 34.7845 32.3882 35.9413 32.0323C37.3204 31.617 38.7293 31.3946 40.1678 31.2463C41.6211 31.098 43.0596 31.0386 44.513 31.0535C45.729 31.0683 46.9302 31.1869 48.1166 31.3649C50.0593 31.6467 51.9724 32.0471 53.8558 32.6403C54.0189 32.6848 54.1672 32.7441 54.3452 32.8034C54.271 33.0703 54.2117 33.3373 54.1376 33.6042C54.0041 33.5746 53.8855 33.5449 53.752 33.5004C52.0021 33.0407 50.2373 32.6699 48.4429 32.4475C47.301 32.2992 46.1442 32.1806 45.0023 32.1064C44.2312 32.0619 43.4452 32.1212 42.6592 32.1509C40.5534 32.2547 38.4623 32.492 36.4158 33.0703C35.2146 33.4114 34.0579 33.8415 33.0643 34.5978C32.7083 34.8648 32.3821 35.191 32.0707 35.5321C31.7889 35.8287 31.6109 36.1846 31.4626 36.585C31.4033 36.2736 31.3588 35.9474 31.2995 35.6359C31.2847 35.5766 31.2847 35.4876 31.2847 35.3838Z" fill="white"/>
<path d="M43.994 48.7604C43.816 48.6863 43.6232 48.6418 43.4601 48.538C43.1487 48.3452 43.1338 48.0931 43.4156 47.8558C43.6825 47.6334 43.994 47.574 44.3202 47.5295C45.1359 47.3961 45.9219 47.4851 46.7078 47.7372C47.0489 47.8558 47.3604 48.0189 47.5235 48.3748C47.5532 48.449 47.5828 48.5231 47.5976 48.5825C47.2714 48.449 46.9451 48.2859 46.604 48.1969C46.085 48.0634 45.5363 48.0634 45.0024 48.1672C44.9431 48.1821 44.8986 48.1969 44.8541 48.2117C44.5575 48.3155 44.4685 48.4638 44.5278 48.7753C44.3499 48.7604 44.1719 48.7604 43.994 48.7604Z" fill="white"/>
<path d="M54.6419 36.0959C54.5678 36.3628 54.5084 36.6149 54.4343 36.867C54.0339 36.7632 53.6483 36.6594 53.2479 36.5556C51.7056 36.17 50.1336 35.8734 48.5468 35.7103C47.3456 35.5917 46.1444 35.4434 44.958 35.4434C42.6297 35.4285 40.3162 35.5917 38.0324 36.0366C36.757 36.2887 35.5113 36.6149 34.3694 37.2378C33.8652 37.5196 33.3906 37.8458 33.0199 38.2907C32.6491 38.7356 32.4267 39.225 32.4563 39.8182C32.2636 39.5068 32.1746 39.1657 32.1597 38.8098C32.0856 37.8013 32.575 37.0598 33.3313 36.4666C34.1025 35.8586 35.0071 35.5175 35.9414 35.2506C37.2612 34.8798 38.6108 34.6574 39.9751 34.5684C41.3246 34.4794 42.689 34.4053 44.0385 34.4053C47.568 34.4053 51.0234 34.9243 54.4046 35.9772C54.464 35.9921 54.5233 36.0217 54.5826 36.0366C54.5974 36.0662 54.6123 36.0811 54.6419 36.0959Z" fill="white"/>
<path d="M33.9837 42.5023C33.2719 41.657 33.1532 40.5448 34.132 39.655C34.7845 39.0618 35.5853 38.7059 36.4158 38.4389C37.9136 37.9644 39.4559 37.6826 41.0279 37.5491C42.0957 37.4601 43.1634 37.386 44.2164 37.4008C47.4344 37.4157 50.5636 38.0237 53.5889 39.1211C53.6334 39.1359 53.6778 39.1508 53.7372 39.1804C53.7075 39.2991 53.6778 39.4325 53.6334 39.5512C53.6037 39.6698 53.574 39.8033 53.5295 39.9516C53.3664 39.9071 53.2329 39.8626 53.0846 39.8181C51.3199 39.2546 49.5255 38.8838 47.6866 38.6614C46.8116 38.5576 45.9366 38.4537 45.0468 38.4389C43.3266 38.4241 41.6063 38.5131 39.886 38.7652C38.492 38.9728 37.1277 39.2546 35.8523 39.8923C35.6298 39.9961 35.4222 40.1295 35.2146 40.2778C34.3396 40.8859 34.0282 41.4197 33.9837 42.5023Z" fill="white"/>
<path d="M31.8481 29.6302C31.9668 29.2298 32.0854 28.8145 32.2189 28.429C32.2486 28.3548 32.3227 28.2807 32.382 28.2362C33.1828 27.5392 34.1171 27.0646 35.0959 26.6642C36.4899 26.0858 37.9581 25.7299 39.4411 25.4926C41.5173 25.1516 43.6083 25.0477 45.7141 25.1071C47.1971 25.1516 48.6504 25.3295 50.1186 25.5668C52.1651 25.9079 54.1672 26.3824 56.1099 27.0943C56.6734 27.3019 57.237 27.5392 57.7857 27.7765C57.845 27.7913 57.8895 27.8209 57.9488 27.8654C57.8895 28.0582 57.845 28.251 57.7857 28.4735C57.4446 28.34 57.1183 28.2214 56.8069 28.1027C54.5972 27.2871 52.3283 26.7384 50 26.3973C47.731 26.071 45.4472 25.9524 43.1485 26.0265C40.8944 26.1007 38.6699 26.3676 36.5196 27.0498C35.1107 27.4354 33.7909 28.0286 32.6193 28.948C32.4858 29.0518 32.3524 29.1705 32.2337 29.2891C32.1003 29.3929 31.9816 29.4967 31.8481 29.6302Z" fill="white"/>
<path d="M36.0895 45.2457C35.4667 44.8008 35.1107 43.9704 35.2739 43.3327C35.3777 42.9026 35.6594 42.5912 35.9857 42.3242C36.5937 41.8349 37.2907 41.5383 38.0174 41.301C39.7822 40.7374 41.5766 40.515 43.4155 40.4408C45.6252 40.3519 47.7903 40.6929 49.911 41.2268C49.9555 41.2417 50 41.2565 50.0741 41.2713C50.0148 41.4938 49.9555 41.7162 49.8962 41.9387C49.5106 41.8645 49.1547 41.8052 48.7839 41.7459C47.3751 41.5086 45.9662 41.4048 44.5277 41.4493C43.4896 41.4789 42.4515 41.5383 41.4283 41.6272C40.1381 41.7459 38.8775 41.9683 37.706 42.5467C37.3204 42.7395 36.9496 42.9768 36.6382 43.2585C36.0747 43.7776 35.8522 44.4449 36.0895 45.2457Z" fill="white"/>
<path d="M54.4934 23.9355C54.4341 24.1134 54.3896 24.2914 54.3303 24.4842C53.9892 24.41 53.6778 24.321 53.3515 24.2469C51.1715 23.7427 48.9767 23.4164 46.7522 23.3126C44.8688 23.2236 43.0002 23.2978 41.1316 23.5202C39.0703 23.7723 37.0682 24.2172 35.1848 25.0625C34.5027 25.374 33.8502 25.7299 33.2273 26.2341C33.2718 26.1451 33.2866 26.1155 33.3014 26.071C33.4794 25.7892 33.6574 25.5074 33.8205 25.2257C33.9243 25.0477 34.0578 24.9439 34.2209 24.8401C35.5853 24.0838 37.0238 23.5795 38.5216 23.2088C40.4791 22.7194 42.4812 22.5118 44.498 22.5266C47.8051 22.5711 51.0825 22.927 54.2858 23.8317C54.3451 23.891 54.4193 23.9058 54.4934 23.9355Z" fill="white"/>
<path d="M35.3035 23.3716C35.689 22.9861 36.0598 22.6005 36.4305 22.2297C36.5047 22.1556 36.6233 22.1259 36.7271 22.0814C38.1063 21.5476 39.53 21.1917 40.9685 20.9544C42.7333 20.6578 44.5128 20.5688 46.3073 20.6429C48.7839 20.7468 51.2011 21.1768 53.5591 21.948C53.7222 22.0073 53.9002 22.0518 54.0781 22.1111C54.0337 22.2891 53.9892 22.4522 53.9447 22.6153C53.3515 22.467 52.7583 22.3039 52.1799 22.1704C50.0889 21.681 47.9831 21.3993 45.8327 21.3399C43.1188 21.2806 40.4346 21.5772 37.8394 22.378C36.9941 22.645 36.1636 22.9564 35.3628 23.3568C35.3628 23.3568 35.348 23.3568 35.3035 23.3716Z" fill="white"/>
<path d="M50.8897 44.4899C50.8452 44.653 50.8156 44.8013 50.7711 44.9644C50.4893 44.8754 50.2372 44.7716 49.9703 44.6975C48.5466 44.2526 47.0784 44.0301 45.5954 44.0301C44.5425 44.0301 43.5044 44.045 42.4515 44.1043C41.5172 44.1636 40.5978 44.3267 39.7524 44.7123C39.5003 44.8309 39.2631 44.9792 39.0406 45.1424C38.4178 45.6466 38.2546 46.3584 38.5957 47.0851C38.6254 47.1296 38.6402 47.1889 38.655 47.2482C38.0915 46.8182 37.5576 46.3733 37.528 45.5873C37.5131 45.2165 37.6911 44.9199 37.958 44.6678C38.3881 44.2377 38.9071 43.9856 39.4707 43.8077C40.5384 43.4666 41.6359 43.3183 42.7481 43.2441C43.8603 43.17 44.9726 43.17 46.0848 43.3035C47.6865 43.5111 49.2436 43.8522 50.7563 44.4157C50.7859 44.4454 50.8304 44.475 50.8897 44.4899Z" fill="white"/>
<path d="M37.884 20.9992C37.9878 20.9399 38.0917 20.8806 38.1955 20.8064C39.1446 20.0797 40.2568 19.798 41.3987 19.5755C42.9559 19.2641 44.513 19.1306 46.0998 19.1603C47.6273 19.1899 49.1399 19.3827 50.6229 19.6793C52.536 20.0649 54.4046 20.584 56.2138 21.3551C56.3028 21.3996 56.3918 21.4293 56.4956 21.4886C56.4808 21.5627 56.4659 21.6369 56.4511 21.711C56.4363 21.7852 56.4066 21.8593 56.3769 21.9483C56.0359 21.8297 55.7096 21.711 55.3833 21.5924C53.2923 20.8657 51.1716 20.2725 48.9916 19.8721C47.2417 19.5607 45.477 19.5014 43.7122 19.6348C41.9771 19.7683 40.3013 20.1094 38.67 20.7174C38.4031 20.8212 38.151 20.925 37.884 21.0289C37.884 21.014 37.884 21.014 37.884 20.9992Z" fill="white"/>
<path d="M47.9386 46.091C47.8941 46.2541 47.8496 46.3876 47.8348 46.4914C47.1823 46.4321 46.5446 46.3283 45.9217 46.3134C44.7354 46.2689 43.549 46.2541 42.3922 46.5804C42.155 46.6545 41.9177 46.7435 41.7101 46.877C41.2652 47.1439 41.1613 47.5591 41.369 48.0189C41.4283 48.1523 41.5024 48.271 41.5914 48.4193C40.9982 48.2413 40.4792 48.004 40.1974 47.4405C40.0788 47.1884 40.1233 46.9363 40.2864 46.7138C40.5088 46.4172 40.8203 46.2245 41.1465 46.091C41.7249 45.8537 42.3477 45.7499 42.9558 45.6757C44.6019 45.4681 46.2183 45.5868 47.82 46.0168C47.8496 46.0613 47.8941 46.0762 47.9386 46.091Z" fill="white"/>
<path d="M43.2969 18.4333C43.4007 18.374 43.5045 18.285 43.6083 18.2554C45.2248 17.8698 46.8561 17.7808 48.517 17.9291C50.7118 18.1219 52.7732 18.7448 54.7159 19.768C54.7901 19.8125 54.8494 19.8867 54.9087 19.9312C54.8197 19.9163 54.7307 19.9312 54.6566 19.8867C52.3431 18.8634 49.9258 18.2999 47.4048 18.1812C46.0256 18.1219 44.6761 18.2109 43.3265 18.463C43.3117 18.463 43.3117 18.4482 43.2969 18.4333Z" fill="white"/>
<path d="M57.0591 37.7421C57.1036 37.5493 57.1629 37.3565 57.2074 37.1489C57.593 37.3714 57.9489 37.5642 58.3345 37.7866C58.2751 37.9646 58.2158 38.1277 58.1565 38.3057C57.7709 38.098 57.415 37.9201 57.0591 37.7421Z" fill="white"/>
<path d="M55.6206 33.2632C55.9321 33.3967 56.2287 33.5153 56.5253 33.6488C56.4808 33.8712 56.4363 34.0937 56.3918 34.3458C56.0804 34.242 55.7838 34.1381 55.4575 34.0195C55.502 33.7822 55.5613 33.5301 55.6206 33.2632Z" fill="white"/>
<path d="M58.6311 28.147C58.9573 28.3249 59.2539 28.4881 59.5505 28.666C59.5802 28.6808 59.6099 28.755 59.6099 28.7995C59.595 28.933 59.5654 29.0664 59.5357 29.2147C59.2095 29.0664 58.898 28.9181 58.5718 28.7698C58.5421 28.755 58.5125 28.6809 58.5125 28.6512C58.5421 28.4881 58.5866 28.3398 58.6311 28.147Z" fill="white"/>
<path d="M51.3941 41.6274C51.7056 41.7313 51.9725 41.8351 52.2691 41.9389C52.195 42.1465 52.1356 42.3244 52.0615 42.5321C51.7946 42.4431 51.5276 42.3689 51.2458 42.28C51.2903 42.0723 51.3348 41.8647 51.3941 41.6274Z" fill="white"/>
<path d="M54.9977 39.7295C55.2053 39.8333 55.3832 39.9223 55.5612 40.0261C55.6057 40.0409 55.6354 40.1299 55.6205 40.1744C55.5612 40.3523 55.5019 40.5303 55.4277 40.7231C55.2498 40.6489 55.0718 40.5748 54.9087 40.4858C54.879 40.471 54.8494 40.4117 54.8494 40.382C54.8939 40.1596 54.9383 39.9519 54.9977 39.7295Z" fill="white"/>
<path d="M60.8408 33.2484C60.6035 33.1001 60.3811 32.9666 60.1438 32.8184C60.1883 32.6107 60.2328 32.4179 60.2921 32.1807C60.4997 32.3586 60.7073 32.5069 60.9001 32.6701C60.9298 32.6997 60.9446 32.759 60.9298 32.8184C60.915 32.9518 60.8705 33.0853 60.8408 33.2484Z" fill="white"/>
<path d="M51.9427 44.9644C52.1948 45.1423 52.4469 45.2906 52.6694 45.4537C52.699 45.4686 52.7139 45.5427 52.699 45.5872C52.6694 45.7059 52.6249 45.8245 52.5804 45.9431C52.3431 45.7948 52.1058 45.6614 51.8834 45.5131C51.8537 45.4982 51.8389 45.4389 51.8537 45.3944C51.8685 45.261 51.913 45.1275 51.9427 44.9644Z" fill="white"/>
<path d="M54.79 22.3486C55.0866 22.4673 55.3536 22.5711 55.6353 22.6749C55.5908 22.8232 55.5464 22.9418 55.5019 23.0901C55.2201 23.0011 54.9532 22.9122 54.6714 22.8232C54.7159 22.6749 54.7455 22.5266 54.79 22.3486Z" fill="white"/>
<path d="M48.9618 46.4175C49.1843 46.5213 49.3771 46.6103 49.5699 46.7141C49.5995 46.7289 49.6144 46.8031 49.6144 46.8475C49.5847 46.9514 49.5402 47.0552 49.4957 47.1738C49.3029 47.0848 49.1101 46.9958 48.9322 46.9069C48.9025 46.892 48.8877 46.8179 48.8877 46.7734C48.8877 46.6696 48.9174 46.5658 48.9618 46.4175Z" fill="white"/>
<path d="M55.8578 24.3657C56.0655 24.4399 56.2434 24.4992 56.4362 24.5733C56.3917 24.7216 56.3621 24.8699 56.3176 25.0331C56.1248 24.9737 55.932 24.9293 55.7244 24.8699C55.7689 24.692 55.8133 24.5437 55.8578 24.3657Z" fill="white"/>
<path d="M56.9552 21.6963C57.1332 21.7853 57.2963 21.8742 57.4743 21.9632C57.4446 22.0819 57.4001 22.2005 57.3556 22.334C57.1925 22.2747 57.059 22.2302 56.9255 22.156C56.8959 22.1412 56.8514 22.067 56.8662 22.0225C56.8959 21.9187 56.9255 21.8149 56.9552 21.6963Z" fill="white"/>
</svg>