<svg width="172" height="65" viewBox="0 0 172 65" fill="none" xmlns="http://www.w3.org/2000/svg">
<path d="M43.4847 40.218L35.7743 41.0835L40.2983 30.6361L35.6619 24.3138L46.9354 23.0268L49.9982 15.9907L56.7083 25.1118L64.4188 24.2463L59.9117 34.6431L64.5144 40.9205L53.3027 42.1962L50.1949 49.3391L43.4847 40.218ZM46.6881 39.5268C46.3902 39.6729 46.0755 39.7909 45.7496 39.8809L45.4573 39.9652L49.8071 45.8773L51.3526 42.3255L51.0716 42.2918C49.5542 42.1007 48.1717 41.2802 47.2782 40.0495L46.8454 39.4537L46.6881 39.5268ZM45.1763 34.1711L48.6831 39.021C49.3969 40.0045 50.5489 40.5946 51.7628 40.5946C51.9033 40.5946 52.0438 40.589 52.1843 40.5721L61.3335 39.5324L57.6918 34.5532C57.512 34.3059 57.304 34.0868 57.068 33.8901L56.8544 33.7102L54.2468 39.5999L49.7116 33.5978L45.1763 34.1711ZM45.3337 28.2589C43.9737 28.3994 42.7935 29.2705 42.2484 30.5294L38.573 39.0098L44.6762 38.3241C44.9796 38.2904 45.2775 38.2174 45.5585 38.1162L45.817 38.0207L42.0404 32.8054L49.4868 31.8613L51.257 27.6295L45.3337 28.2589ZM51.0941 32.5413L53.8534 36.1998L55.5394 32.3952L56.2812 30.7204C56.8376 29.4672 56.6746 28.006 55.8654 26.8989L50.3916 19.4582L47.9301 25.1118C47.8064 25.3928 47.7221 25.685 47.6659 25.9829L47.621 26.2583L54.0052 25.5839L51.0941 32.5413ZM57.7986 26.7472L57.9054 27.0057C58.4955 28.4219 58.4842 30.0348 57.866 31.4285L57.5682 32.1029L57.7143 32.2041C57.9897 32.3895 58.2482 32.6031 58.4898 32.8391L58.709 33.0527L61.6257 26.3201L57.7986 26.7472ZM38.8483 25.7131L41.175 28.8827L41.3436 28.6636C42.2708 27.4609 43.6533 26.6854 45.1482 26.5224L45.8788 26.4437L45.8901 26.2639C45.9125 25.8986 45.9744 25.5333 46.0755 25.1736L46.1598 24.8701L38.8483 25.7131Z" fill="#E6E6E6"/>
<path d="M48.4641 49.4737C43.6197 49.0073 39.2756 46.4896 36.4263 42.4994L38.3764 42.2803C38.6967 42.6737 39.0395 43.0558 39.3936 43.4099C41.5066 45.5342 44.1536 46.9673 47.0535 47.5573L48.4641 49.4737Z" fill="#E6E6E6"/>
<path d="M52.527 47.67C55.6685 47.1643 58.5178 45.6918 60.7882 43.4158C60.9906 43.2135 61.1985 42.9943 61.4008 42.7639L63.7668 42.4941C60.9287 46.4786 56.5846 49.0019 51.7458 49.474L52.527 47.67Z" fill="#E6E6E6"/>
<path d="M64.2446 38.0544C64.8909 36.3404 65.2169 34.5251 65.2169 32.665C65.2169 31.024 64.9584 29.411 64.4526 27.8712L65.4023 25.6851C66.397 27.8824 66.9028 30.2259 66.9028 32.665C66.9028 35.0984 66.4027 37.4419 65.4079 39.6336L64.2446 38.0544Z" fill="#E6E6E6"/>
<path d="M34.7908 39.6617C33.7905 37.4644 33.2847 35.1096 33.2847 32.6706C33.2847 30.2147 33.7961 27.8488 34.8077 25.6401L35.9654 27.2193C35.3022 28.9559 34.965 30.788 34.965 32.6706C34.965 34.3172 35.2235 35.9358 35.7349 37.4812L34.7908 39.6617Z" fill="#E6E6E6"/>
<path d="M36.4993 22.7344C39.3429 18.8118 43.659 16.3222 48.4584 15.8613L47.6716 17.6653C44.5301 18.1711 41.6696 19.6435 39.3991 21.9252C39.2305 22.0994 39.0563 22.2792 38.8821 22.4703L36.4993 22.7344Z" fill="#E6E6E6"/>
<path d="M61.8111 23.0548C61.4851 22.6558 61.1423 22.2792 60.7883 21.9196C58.6808 19.8009 56.0338 18.3678 53.1396 17.7777L51.7346 15.8613C56.5677 16.3278 60.9119 18.8455 63.7556 22.8356L61.8111 23.0548Z" fill="#E6E6E6"/>
<path d="M134.363 38.1652C132.752 38.1652 131.447 36.8545 131.447 35.2497L131.447 30.7741L129.638 30.7741L129.638 29.1629L131.447 29.1629L131.447 27.5005L133.059 27.5005L133.059 29.1629L136.076 29.1629L136.076 30.7741L133.059 30.7741L133.059 35.2497C133.059 35.9722 133.647 36.5604 134.369 36.5604L135.776 36.5604C136.607 36.5604 137.285 37.2381 137.285 38.0693L137.285 38.1716L134.363 38.1716L134.363 38.1652Z" fill="#E6E6E6"/>
<path d="M76.5062 27.5005L74.895 27.5005L74.895 38.1652L76.5062 38.1652L76.5062 27.5005Z" fill="#E6E6E6"/>
<path d="M92.2028 27.5005L90.5916 27.5005L90.5916 38.1652L92.2028 38.1652L92.2028 27.5005Z" fill="#E6E6E6"/>
<path d="M94.2169 38.1652L94.2169 38.0693C94.2169 37.2381 94.8946 36.5604 95.7258 36.5604L101.212 36.5604C101.614 36.5604 101.992 36.4005 102.267 36.1064C102.548 35.8123 102.689 35.4287 102.669 35.0259C102.631 34.2459 101.972 33.6385 101.173 33.6385L97.2859 33.6385C96.4483 33.6385 95.6683 33.306 95.0865 32.7114C94.5046 32.1104 94.1977 31.3239 94.2169 30.4864C94.2617 28.8432 95.6683 27.5005 97.3498 27.5005L103.52 27.5005L103.52 27.6028C103.52 28.434 102.842 29.1117 102.011 29.1117L97.2795 29.1117C96.8767 29.1117 96.4995 29.2715 96.2245 29.5657C95.9432 29.8598 95.8026 30.2434 95.8217 30.6462C95.8601 31.4262 96.5186 32.0336 97.3179 32.0336L101.205 32.0336C102.043 32.0336 102.823 32.3661 103.405 32.9607C103.987 33.5617 104.293 34.3482 104.274 35.1857C104.229 36.8289 102.823 38.1716 101.141 38.1716L94.2169 38.1716L94.2169 38.1652Z" fill="#E6E6E6"/>
<path d="M87.4395 38.1652C86.9152 38.1652 86.4293 37.9286 86.1032 37.5258L83.2388 33.939L81.2312 33.939L81.2312 33.8367C81.2312 33.0055 81.9089 32.3277 82.7401 32.3277L85.3551 32.3277C86.2439 32.3277 86.9664 31.6053 86.9664 30.7165L86.9664 29.5081C86.9664 29.2843 86.7873 29.1053 86.5636 29.1053L80.5279 29.1053C80.3041 29.1053 80.1251 29.2843 80.1251 29.5081L80.1251 38.1652L78.5203 38.1652L78.5203 28.6066C78.5203 27.9992 79.019 27.5005 79.6264 27.5005L87.4779 27.5005C88.0853 27.5005 88.584 27.9992 88.584 28.6066L88.584 30.7229C88.584 32.2958 87.4139 33.664 85.8602 33.907L85.6876 33.9326L89.0763 38.1716L87.4395 38.1716L87.4395 38.1652Z" fill="#E6E6E6"/>
<path d="M120.879 38.1654C119.267 38.1654 117.963 36.8547 117.963 35.2499L117.963 32.0786C117.963 30.4674 119.274 29.1631 120.879 29.1631L125.105 29.1631C125.898 29.1631 126.639 29.4764 127.196 30.0454C127.752 30.6145 128.04 31.3689 128.02 32.1617C127.976 33.7282 126.639 35.0005 125.041 35.0005L120.175 35.0005L120.175 34.8982C120.175 34.0671 120.853 33.3893 121.684 33.3893L125.073 33.3893C125.763 33.3893 126.345 32.8714 126.409 32.2065C126.441 31.8357 126.326 31.4776 126.077 31.2027C125.827 30.9277 125.476 30.7743 125.111 30.7743L120.885 30.7743C120.163 30.7743 119.574 31.3625 119.574 32.085L119.574 35.2563C119.574 35.9788 120.163 36.567 120.885 36.567L126.518 36.567C127.349 36.567 128.027 37.2447 128.027 38.0759L128.027 38.1782L120.879 38.1782L120.879 38.1654Z" fill="#E6E6E6"/>
<path d="M116.25 38.1653C115.418 38.1653 114.741 37.4876 114.741 36.6564L114.741 32.379C114.741 31.5734 114.088 30.9213 113.283 30.9213L108.302 30.9213C108.078 30.9213 107.899 31.1003 107.899 31.3241L107.899 38.1653L106.288 38.1653L106.288 30.4162C106.288 29.8088 106.787 29.3101 107.394 29.3101L113.283 29.3101C114.977 29.3101 116.352 30.6847 116.352 32.379L116.352 38.1653L116.25 38.1653Z" fill="#E6E6E6"/>
</svg>