<svg width="172" height="65" viewBox="0 0 172 65" fill="none" xmlns="http://www.w3.org/2000/svg">
<g clip-path="url(#clip0-554000)">
<path d="M39.2304 31.0047L39.2304 33.7247L43.0848 33.7247L43.0848 36.2533L39.2304 36.2533L39.2304 39.2032L44.1916 39.2032L44.1916 41.8274L35.9548 41.8274L35.9548 28.3804L44.1916 28.3804L44.1916 31.0047L39.2304 31.0047Z" fill="white"/>
<path d="M55.1522 41.7469L52.6216 36.6706L51.3042 36.6706L51.3042 41.7469L48.0286 41.7469L48.0286 28.2998L53.5262 28.2998C54.5861 28.2998 55.4864 28.485 56.2271 28.8553C56.9805 29.2256 57.5424 29.7365 57.9128 30.3877C58.283 31.0263 58.4683 31.7414 58.4683 32.5331C58.4683 33.4271 58.2128 34.2252 57.7021 34.9275C57.2041 35.6299 56.4633 36.1279 55.48 36.4217L58.5832 41.7469L55.1522 41.7469ZM51.3042 34.3529L53.3346 34.3529C53.9348 34.3529 54.3818 34.206 54.6755 33.9124C54.982 33.6186 55.1352 33.2036 55.1352 32.6672C55.1352 32.1564 54.982 31.7542 54.6755 31.4604C54.3818 31.1667 53.9348 31.0199 53.3346 31.0199L51.3042 31.0199L51.3042 34.3529Z" fill="white"/>
<path d="M66.7432 41.9616C65.7599 41.9616 64.8787 41.802 64.0997 41.4827C63.3207 41.1635 62.695 40.6911 62.2225 40.0653C61.7627 39.4396 61.5202 38.6861 61.4946 37.805L64.9808 37.805C65.0319 38.303 65.2044 38.6861 65.4981 38.9543C65.7917 39.2096 66.1748 39.3374 66.6474 39.3374C67.1326 39.3374 67.5157 39.2289 67.7967 39.0118C68.0776 38.7819 68.2181 38.469 68.2181 38.0732C68.2181 37.7411 68.1032 37.4665 67.8733 37.2494C67.6563 37.0323 67.3817 36.8536 67.0497 36.713C66.7304 36.5726 66.2706 36.413 65.6704 36.2342C64.8021 35.9661 64.0933 35.6979 63.5442 35.4297C62.9951 35.1615 62.5226 34.7657 62.1267 34.2421C61.7309 33.7184 61.5329 33.0353 61.5329 32.1924C61.5329 30.941 61.9862 29.964 62.8929 29.2617C63.7996 28.5465 64.9808 28.189 66.4366 28.189C67.9181 28.189 69.112 28.5465 70.0187 29.2617C70.9254 29.964 71.4107 30.9473 71.4745 32.2116L67.9308 32.2116C67.9052 31.7774 67.7456 31.439 67.4519 31.1964C67.1581 30.941 66.7815 30.8132 66.3217 30.8132C65.9259 30.8132 65.6066 30.9218 65.3639 31.1389C65.1213 31.3432 65 31.6433 65 32.0392C65 32.4734 65.2044 32.8118 65.613 33.0544C66.0217 33.2971 66.6601 33.5588 67.5285 33.8398C68.3969 34.1335 69.0992 34.4144 69.6356 34.6826C70.1847 34.9508 70.6572 35.3403 71.0531 35.8511C71.4489 36.3619 71.6469 37.0196 71.6469 37.8241C71.6469 38.5903 71.4489 39.2863 71.0531 39.912C70.67 40.5378 70.1081 41.0358 69.3674 41.4062C68.6268 41.7765 67.752 41.9616 66.7432 41.9616Z" fill="white"/>
<path d="M78.4709 28.3804L78.4709 41.8274L75.1953 41.8274L75.1953 28.3804L78.4709 28.3804Z" fill="white"/>
<path d="M87.2427 41.9616C86.2594 41.9616 85.3783 41.802 84.5992 41.4827C83.8203 41.1635 83.1946 40.6911 82.7221 40.0653C82.2623 39.4396 82.0197 38.6861 81.9941 37.805L85.4805 37.805C85.5315 38.303 85.7039 38.6861 85.9976 38.9543C86.2914 39.2096 86.6745 39.3374 87.1469 39.3374C87.6322 39.3374 88.0153 39.2289 88.2962 39.0118C88.5772 38.7819 88.7176 38.469 88.7176 38.0732C88.7176 37.7411 88.6027 37.4665 88.3729 37.2494C88.1558 37.0323 87.8812 36.8536 87.5492 36.713C87.23 36.5726 86.7702 36.413 86.17 36.2342C85.3016 35.9661 84.5929 35.6979 84.0437 35.4297C83.4946 35.1615 83.0221 34.7657 82.6263 34.2421C82.2304 33.7184 82.0324 33.0353 82.0324 32.1924C82.0324 30.941 82.4857 29.964 83.3925 29.2617C84.2992 28.5465 85.4805 28.189 86.9362 28.189C88.4176 28.189 89.6116 28.5465 90.5182 29.2617C91.425 29.964 91.9102 30.9473 91.9741 32.2116L88.4304 32.2116C88.4048 31.7774 88.2452 31.439 87.9514 31.1964C87.6578 30.941 87.281 30.8132 86.8213 30.8132C86.4254 30.8132 86.1061 30.9218 85.8636 31.1389C85.6209 31.3432 85.4996 31.6433 85.4996 32.0392C85.4996 32.4734 85.7039 32.8118 86.1125 33.0544C86.5212 33.2971 87.1598 33.5588 88.028 33.8398C88.8964 34.1335 89.5988 34.4144 90.1351 34.6826C90.6842 34.9508 91.1568 35.3403 91.5526 35.8511C91.9486 36.3619 92.1464 37.0196 92.1464 37.8241C92.1464 38.5903 91.9486 39.2863 91.5526 39.912C91.1695 40.5378 90.6077 41.0358 89.867 41.4062C89.1263 41.7765 88.2516 41.9616 87.2427 41.9616Z" fill="white"/>
<path d="M105.368 28.3804L105.368 31.0047L101.805 31.0047L101.805 41.8274L98.5295 41.8274L98.5295 31.0047L94.9666 31.0047L94.9666 28.3804L105.368 28.3804Z" fill="white"/>
<path d="M111.82 31.0047L111.82 33.7247L115.675 33.7247L115.675 36.2533L111.82 36.2533L111.82 39.2032L116.782 39.2032L116.782 41.8274L108.545 41.8274L108.545 28.3804L116.782 28.3804L116.782 31.0047L111.82 31.0047Z" fill="white"/>
<path d="M132.47 41.8274L129.194 41.8274L123.715 33.5331L123.715 41.8274L120.44 41.8274L120.44 28.3804L123.715 28.3804L129.194 36.7129L129.194 28.3804L132.47 28.3804L132.47 41.8274Z" fill="white"/>
<path d="M135.821 35.0851C135.821 33.7571 136.109 32.5758 136.683 31.5414C137.258 30.4943 138.056 29.6833 139.078 29.1087C140.112 28.5213 141.281 28.2275 142.583 28.2275C144.179 28.2275 145.545 28.649 146.683 29.4918C147.819 30.3346 148.579 31.4839 148.962 32.9398L145.361 32.9398C145.092 32.3779 144.709 31.9501 144.212 31.6564C143.726 31.3626 143.17 31.2158 142.545 31.2158C141.536 31.2158 140.719 31.567 140.093 32.2693C139.467 32.9717 139.154 33.9102 139.154 35.0851C139.154 36.26 139.467 37.1986 140.093 37.901C140.719 38.6034 141.536 38.9545 142.545 38.9545C143.17 38.9545 143.726 38.8077 144.212 38.5139C144.709 38.2203 145.092 37.7924 145.361 37.2306L148.962 37.2306C148.579 38.6863 147.819 39.8357 146.683 40.6785C145.545 41.5085 144.179 41.9236 142.583 41.9236C141.281 41.9236 140.112 41.6363 139.078 41.0616C138.056 40.4742 137.258 39.6632 136.683 38.6289C136.109 37.5945 135.821 36.4133 135.821 35.0851Z" fill="white"/>
<path d="M155.775 31.0047L155.775 33.7247L159.63 33.7247L159.63 36.2533L155.775 36.2533L155.775 39.2032L160.737 39.2032L160.737 41.8274L152.5 41.8274L152.5 28.3804L160.737 28.3804L160.737 31.0047L155.775 31.0047Z" fill="white"/>
<path fill-rule="evenodd" clip-rule="evenodd" d="M30.2444 22.3555L12.9624 22.3555C12.3203 22.3555 11.7998 22.876 11.7998 23.5181L11.7998 40.7992C11.7998 41.4413 12.3203 41.9618 12.9624 41.9618L16.431 41.9618L16.431 28.394L21.7871 28.394C22.87 28.394 23.7852 28.581 24.5329 28.9548C25.2806 29.3286 25.8413 29.8443 26.2151 30.5017C26.589 31.1591 26.7758 31.9132 26.7758 32.764C26.7758 33.5503 26.5954 34.2723 26.2344 34.9297C25.8735 35.5742 25.3192 36.0963 24.5716 36.4959C23.8238 36.8955 22.8958 37.0953 21.7871 37.0953L19.7375 37.0953L19.7375 41.9618L30.2444 41.9618C30.8865 41.9618 31.407 41.4413 31.407 40.7992L31.407 23.5181C31.407 22.876 30.8865 22.3555 30.2444 22.3555ZM21.5358 34.4656C22.1674 34.4656 22.6379 34.3174 22.9473 34.0208C23.2567 33.7244 23.4114 33.3054 23.4114 32.764C23.4114 32.2226 23.2567 31.8036 22.9473 31.5072C22.6379 31.2107 22.1674 31.0624 21.5358 31.0624L19.7375 31.0624L19.7375 34.4656L21.5358 34.4656ZM16.431 24.9553L26.844 24.9553L26.844 27.1398L16.431 27.1398L16.431 24.9553Z" fill="white"/>
</g>
<defs>
<clipPath id="clip0-554000">
<rect width="149.149" height="20.988" fill="white" transform="translate(11.376 22.189)"/>
</clipPath>
</defs>
</svg>