<svg width="119" height="54" viewBox="0 0 119 54" fill="none" xmlns="http://www.w3.org/2000/svg">
<g clip-path="url(#clip0-213398)">
<path fill-rule="evenodd" clip-rule="evenodd" d="M68.7003 20.1338H70.6184C71.221 20.1338 71.6561 20.0278 71.9307 19.8142C72.2033 19.6022 72.3424 19.2617 72.3424 18.7927C72.3424 18.334 72.2033 17.9988 71.9307 17.7851C71.6561 17.5714 71.221 17.4654 70.6184 17.4654H68.7003V20.1338ZM70.3887 22.0847H68.7003V25.9362H65.928V15.3877H71.0964C72.4067 15.3877 73.4157 15.6761 74.1218 16.2511C74.8259 16.8261 75.179 17.6565 75.179 18.744C75.179 19.5119 74.999 20.1494 74.6371 20.6619C74.2768 21.1727 73.7526 21.5514 73.0627 21.7964L75.8172 25.9362H72.7008L70.3887 22.0847Z" fill="#E6E6E6"/>
<path fill-rule="evenodd" clip-rule="evenodd" d="M85.7063 23.8098V25.9362H77.1357V15.3877H85.4944V17.5123H79.933V19.6543H84.3561V21.6522H79.933V23.8098H85.7063Z" fill="#E6E6E6"/>
<path fill-rule="evenodd" clip-rule="evenodd" d="M96.5844 20.2179V26.1013H94.6735L94.5938 24.815C93.9879 25.7824 92.9841 26.2661 91.5835 26.2661C90.6282 26.2661 89.7817 26.0493 89.0443 25.6158C88.3052 25.1822 87.7303 24.5445 87.3166 23.7042C86.9013 22.864 86.6953 21.8554 86.6953 20.6783C86.6953 19.5139 86.9066 18.5106 87.3305 17.6722C87.7564 16.8302 88.3622 16.1852 89.1465 15.7355C89.9323 15.2841 90.8599 15.0583 91.9332 15.0583C93.1328 15.0583 94.0986 15.2787 94.8327 15.7176C95.5649 16.1565 96.1431 16.866 96.567 17.8442L94.0347 18.8814C93.9084 18.344 93.6694 17.9427 93.318 17.6793C92.9703 17.416 92.5338 17.2834 92.013 17.2834C91.2064 17.2834 90.5883 17.5701 90.1571 18.1416C89.7279 18.7131 89.5133 19.5533 89.5133 20.6622C89.5133 22.9482 90.3737 24.0912 92.0924 24.0912C92.7399 24.0912 93.2643 23.9371 93.6625 23.629C94.0591 23.3208 94.2578 22.8766 94.2578 22.2943V22.1295H91.6478V20.2179H96.5844Z" fill="#E6E6E6"/>
<path fill-rule="evenodd" clip-rule="evenodd" d="M107.133 23.8098V25.9362H98.5623V15.3877H106.923V17.5123H101.359V19.6543H105.782V21.6522H101.359V23.8098H107.133Z" fill="#E6E6E6"/>
<path fill-rule="evenodd" clip-rule="evenodd" d="M118.67 25.9362H115.601L112.308 20.2311L111.505 18.6311H111.489L111.553 20.615V25.9362H109.111V15.3877H112.18L115.473 21.0928L116.276 22.691H116.294L116.229 20.7106V15.3877H118.67V25.9362Z" fill="#E6E6E6"/>
<path fill-rule="evenodd" clip-rule="evenodd" d="M71.8615 38.7924H70.7279L67.564 33.9358L66.7616 32.5072H66.7531L66.7969 33.6721V38.7924H65.928V31.5403H67.0616L70.2116 36.3751L71.0259 37.8255H71.0384L70.9926 36.6606V31.5403H71.8615V38.7924Z" fill="#E6E6E6"/>
<path fill-rule="evenodd" clip-rule="evenodd" d="M79.1136 37.9692V38.7924H73.5097V31.5403H78.9369V32.3652H74.4479V34.7048H77.9427V35.5299H74.4479V37.9692H79.1136Z" fill="#E6E6E6"/>
<path fill-rule="evenodd" clip-rule="evenodd" d="M85.7064 32.3635H83.1807V38.7924H82.3002V32.3635H79.7729V31.5403H85.7064V32.3635Z" fill="#E6E6E6"/>
<path fill-rule="evenodd" clip-rule="evenodd" d="M89.6376 38.7924H88.5337L86.3656 31.5403H87.3222L89.0934 38.0991L90.8266 31.5403H91.84L93.5752 38.1229L95.3529 31.5403H96.2548L94.0954 38.7924H92.9967L91.6943 34.0894L91.3145 32.4531H91.3059L90.9278 34.0894L89.6376 38.7924Z" fill="#E6E6E6"/>
<path fill-rule="evenodd" clip-rule="evenodd" d="M98.6131 32.9037C98.143 33.4514 97.9077 34.2049 97.9077 35.1661C97.9077 36.129 98.143 36.8826 98.6131 37.4284C99.0835 37.9763 99.7269 38.2502 100.54 38.2502C101.355 38.2502 101.995 37.9763 102.465 37.4284C102.936 36.8826 103.171 36.129 103.171 35.1661C103.171 34.2049 102.936 33.4514 102.465 32.9037C101.995 32.356 101.355 32.0839 100.54 32.0839C99.7269 32.0839 99.0835 32.356 98.6131 32.9037ZM102.458 31.6937C103.005 32.0159 103.426 32.4723 103.723 33.0666C104.019 33.659 104.166 34.3588 104.166 35.1661C104.166 35.9734 104.019 36.6732 103.723 37.2676C103.426 37.8599 103.005 38.3181 102.458 38.6402C101.915 38.9606 101.275 39.1218 100.54 39.1218C99.8054 39.1218 99.1656 38.9606 98.6203 38.6402C98.0754 38.3181 97.6561 37.8599 97.3588 37.2676C97.0618 36.6732 96.9141 35.9734 96.9141 35.1661C96.9141 34.3588 97.0618 33.659 97.3588 33.0666C97.6561 32.4723 98.0754 32.0159 98.6203 31.6937C99.1656 31.3715 99.8054 31.2104 100.54 31.2104C101.275 31.2104 101.915 31.3715 102.458 31.6937Z" fill="#E6E6E6"/>
<path fill-rule="evenodd" clip-rule="evenodd" d="M106.412 34.9567H108.365C109.445 34.9567 109.984 34.5255 109.984 33.6602C109.984 32.7963 109.445 32.3635 108.365 32.3635H106.412V34.9567ZM108.237 35.7818H106.412V38.7924H105.485V31.5403H108.378C109.155 31.5403 109.78 31.7296 110.249 32.11C110.721 32.492 110.956 33.0093 110.956 33.6602C110.956 34.1741 110.804 34.6049 110.506 34.9567C110.203 35.3084 109.79 35.55 109.267 35.6819L111.418 38.7924H110.319L108.237 35.7818Z" fill="#E6E6E6"/>
<path fill-rule="evenodd" clip-rule="evenodd" d="M115.282 35.0391L113.967 36.42V38.8597H113.077V31.2646H113.967V35.1772L117.668 31.2646H118.835L115.906 34.3611L118.869 38.8597H117.801L115.282 35.0391Z" fill="#E6E6E6"/>
<path fill-rule="evenodd" clip-rule="evenodd" d="M19.4991 0.7771L22.0897 1.60148L22.0933 4.2834L19.5062 5.11485L17.9001 2.94775L19.4991 0.7771Z" fill="#E6E6E6"/>
<path fill-rule="evenodd" clip-rule="evenodd" d="M22.0904 1.60132L25.1877 17.9387L22.094 4.28323L22.0904 1.60132Z" fill="#E6E6E6"/>
<path fill-rule="evenodd" clip-rule="evenodd" d="M17.9008 2.94775L19.5069 5.11486L25.1877 17.9388L17.9008 2.94775Z" fill="#E6E6E6"/>
<path fill-rule="evenodd" clip-rule="evenodd" d="M19.5063 5.1149L22.0933 4.28345L25.187 17.9389L19.5063 5.1149Z" fill="#E6E6E6"/>
<path fill-rule="evenodd" clip-rule="evenodd" d="M36.2192 21.4503L48.4304 10.0186L46.8316 12.1892L36.2192 21.4503Z" fill="#E6E6E6"/>
<path fill-rule="evenodd" clip-rule="evenodd" d="M48.4304 10.0181L51.021 10.8424L51.0246 13.5243L48.4356 14.3576L46.8313 12.1905L48.4304 10.0181Z" fill="#E6E6E6"/>
<path fill-rule="evenodd" clip-rule="evenodd" d="M26.8731 11.0925L28.19 10.0647L29.5895 10.9828L29.1385 12.575L27.4569 12.644L26.8731 11.0925Z" fill="#E6E6E6"/>
<path fill-rule="evenodd" clip-rule="evenodd" d="M29.5891 10.9819L28.1914 17.4196L26.8727 11.0916L27.4566 12.6431L29.1382 12.5758L29.5891 10.9819Z" fill="#E6E6E6"/>
<path fill-rule="evenodd" clip-rule="evenodd" d="M36.2192 21.4503L46.8316 12.1892L48.436 14.3563L36.2192 21.4503Z" fill="#E6E6E6"/>
<path fill-rule="evenodd" clip-rule="evenodd" d="M34.9804 12.3959L36.653 12.2119L37.3429 13.7192L36.1031 14.8337L34.6445 14.0164L34.9804 12.3959Z" fill="#E6E6E6"/>
<path fill-rule="evenodd" clip-rule="evenodd" d="M34.9804 12.396L34.6445 14.0165L36.1032 14.8338L37.3429 13.7193L33.0042 18.6426L34.9804 12.396Z" fill="#E6E6E6"/>
<path fill-rule="evenodd" clip-rule="evenodd" d="M48.4353 14.3571L51.0243 13.5256L36.2189 21.4511L48.4353 14.3571Z" fill="#E6E6E6"/>
<path fill-rule="evenodd" clip-rule="evenodd" d="M15.9271 15.0853L17.5871 14.8235L18.3525 16.2954L17.1649 17.4683L15.6666 16.7199L15.9271 15.0853Z" fill="#E6E6E6"/>
<path fill-rule="evenodd" clip-rule="evenodd" d="M17.5868 14.8225L21.2159 20.2765L15.6681 16.7189L17.1664 17.4672L18.3521 16.2961L17.5868 14.8225Z" fill="#E6E6E6"/>
<path fill-rule="evenodd" clip-rule="evenodd" d="M1.63164 25.0422L18.3343 27.1528L4.22228 25.8666L1.63164 25.0422Z" fill="#E6E6E6"/>
<path fill-rule="evenodd" clip-rule="evenodd" d="M1.63165 25.0422L4.22229 25.8666L4.22588 28.5486L1.63703 29.38L0.0326996 27.2129L1.63165 25.0422Z" fill="#E6E6E6"/>
<path fill-rule="evenodd" clip-rule="evenodd" d="M4.22301 25.8662L18.3332 27.1523L4.2266 28.5481L4.22301 25.8662Z" fill="#E6E6E6"/>
<path fill-rule="evenodd" clip-rule="evenodd" d="M38.077 27.1228L44.5538 25.842L42.9583 26.3551L42.9603 28.0109L44.5591 28.5186L38.077 27.1228Z" fill="#E6E6E6"/>
<path fill-rule="evenodd" clip-rule="evenodd" d="M42.958 26.3561L44.5551 25.843L45.5434 27.1787L44.5607 28.5196L42.96 28.0119L42.958 26.3561Z" fill="#E6E6E6"/>
<path fill-rule="evenodd" clip-rule="evenodd" d="M4.22661 28.5481L18.3351 27.1523L1.63776 29.3796L4.22661 28.5481Z" fill="#E6E6E6"/>
<path fill-rule="evenodd" clip-rule="evenodd" d="M12.1724 30.7586L18.7838 30.0898L13.0168 33.3042L14.3751 32.3295L13.8523 30.7568L12.1724 30.7586Z" fill="#E6E6E6"/>
<path fill-rule="evenodd" clip-rule="evenodd" d="M12.1725 30.7586L13.8522 30.7568L14.3751 32.3295L13.0168 33.3043L11.6568 32.3331L12.1725 30.7586Z" fill="#E6E6E6"/>
<path fill-rule="evenodd" clip-rule="evenodd" d="M14.0621 35.3514L20.2171 32.7085L15.591 37.5662L16.6204 36.2589L15.6754 34.8915L14.0621 35.3514Z" fill="#E6E6E6"/>
<path fill-rule="evenodd" clip-rule="evenodd" d="M36.2367 32.8691L51.0675 40.7573L48.4749 39.9312L36.2367 32.8691Z" fill="#E6E6E6"/>
<path fill-rule="evenodd" clip-rule="evenodd" d="M36.2367 32.8691L48.4749 39.9312L46.8778 42.1036L36.2367 32.8691Z" fill="#E6E6E6"/>
<path fill-rule="evenodd" clip-rule="evenodd" d="M36.2367 32.8691L46.8778 42.1036L48.4805 44.2726L36.2367 32.8691Z" fill="#E6E6E6"/>
<path fill-rule="evenodd" clip-rule="evenodd" d="M14.0621 35.3517L15.6754 34.8918L16.6204 36.2592L15.591 37.5665L14.01 37.0058L14.0621 35.3517Z" fill="#E6E6E6"/>
<path fill-rule="evenodd" clip-rule="evenodd" d="M17.4569 39.2656L22.3813 34.949L19.5894 40.9267L20.1733 39.375L18.8546 38.3472L17.4569 39.2656Z" fill="#E6E6E6"/>
<path fill-rule="evenodd" clip-rule="evenodd" d="M25.2152 36.4133L22.1934 52.7595L22.1898 50.0776L25.2152 36.4133Z" fill="#E6E6E6"/>
<path fill-rule="evenodd" clip-rule="evenodd" d="M25.2152 36.4133L22.1898 50.0776L19.5991 49.2531L25.2152 36.4133Z" fill="#E6E6E6"/>
<path fill-rule="evenodd" clip-rule="evenodd" d="M25.2152 36.4133L19.5991 49.2531L18.0002 51.4238L25.2152 36.4133Z" fill="#E6E6E6"/>
<path fill-rule="evenodd" clip-rule="evenodd" d="M31.3821 36.4036L34.72 41.9761L33.7337 40.6388L32.133 41.1533L32.1366 42.8075L31.3821 36.4036Z" fill="#E6E6E6"/>
<path fill-rule="evenodd" clip-rule="evenodd" d="M28.2205 36.8572L29.6236 43.2364L29.1008 41.6637L27.4228 41.6673L26.9054 43.24L28.2205 36.8572Z" fill="#E6E6E6"/>
<path fill-rule="evenodd" clip-rule="evenodd" d="M17.4569 39.2655L18.8546 38.3472L20.1733 39.375L19.5894 40.9266L17.9096 40.8594L17.4569 39.2655Z" fill="#E6E6E6"/>
<path fill-rule="evenodd" clip-rule="evenodd" d="M48.4759 39.9314L51.0665 40.7575L51.0701 43.4378L48.4811 44.2728L46.8768 42.1037L48.4759 39.9314Z" fill="#E6E6E6"/>
<path fill-rule="evenodd" clip-rule="evenodd" d="M32.133 41.1528L33.7337 40.6382L34.72 41.9755L33.7373 43.3165L32.1366 42.8069L32.133 41.1528Z" fill="#E6E6E6"/>
<path fill-rule="evenodd" clip-rule="evenodd" d="M27.4223 41.6669L29.1021 41.6653L29.6249 43.236L28.2667 44.2111L26.9048 43.2416L27.4223 41.6669Z" fill="#E6E6E6"/>
<path fill-rule="evenodd" clip-rule="evenodd" d="M19.5991 49.2539L22.1898 50.0783L22.1934 52.76L19.6063 53.5933L18.0002 51.4246L19.5991 49.2539Z" fill="#E6E6E6"/>
</g>
<defs>
<clipPath id="clip0-213398">
<rect width="119" height="53.072" fill="white" transform="translate(0 0.553955)"/>
</clipPath>
</defs>
</svg>