<svg width="171" height="64" viewBox="0 0 171 64" fill="none" xmlns="http://www.w3.org/2000/svg">
<g clip-path="url(#clip0-000312)">
<path fill-rule="evenodd" clip-rule="evenodd" d="M94.7005 25.1343H96.6187C97.2213 25.1343 97.6564 25.0283 97.931 24.8147C98.2036 24.6027 98.3427 24.2622 98.3427 23.7932C98.3427 23.3345 98.2036 22.9993 97.931 22.7856C97.6564 22.5719 97.2213 22.4659 96.6187 22.4659H94.7005V25.1343ZM96.3889 27.0852H94.7005V30.9367H91.9282V20.3882H97.0966C98.407 20.3882 99.416 20.6766 100.122 21.2516C100.826 21.8266 101.179 22.657 101.179 23.7445C101.179 24.5124 100.999 25.1499 100.637 25.6624C100.277 26.1732 99.7529 26.5519 99.0629 26.7968L101.817 30.9367H98.701L96.3889 27.0852Z" fill="#E6E6E6"/>
<path fill-rule="evenodd" clip-rule="evenodd" d="M111.707 28.8103V30.9367H103.136V20.3882H111.495V22.5128H105.933V24.6548H110.356V26.6527H105.933V28.8103H111.707Z" fill="#E6E6E6"/>
<path fill-rule="evenodd" clip-rule="evenodd" d="M122.585 25.2182V31.1015H120.674L120.594 29.8152C119.988 30.7826 118.984 31.2663 117.584 31.2663C116.628 31.2663 115.782 31.0496 115.045 30.616C114.306 30.1825 113.731 29.5447 113.317 28.7045C112.902 27.8642 112.696 26.8556 112.696 25.6786C112.696 24.5141 112.907 23.5108 113.331 22.6724C113.757 21.8304 114.363 21.1855 115.147 20.7358C115.933 20.2843 116.86 20.0586 117.934 20.0586C119.133 20.0586 120.099 20.279 120.833 20.7179C121.565 21.1568 122.143 21.8662 122.567 22.8444L120.035 23.8817C119.909 23.3442 119.67 22.9429 119.318 22.6796C118.971 22.4162 118.534 22.2837 118.013 22.2837C117.207 22.2837 116.589 22.5703 116.157 23.1418C115.728 23.7133 115.514 24.5535 115.514 25.6625C115.514 27.9485 116.374 29.0915 118.093 29.0915C118.74 29.0915 119.265 28.9374 119.663 28.6292C120.059 28.3211 120.258 27.8768 120.258 27.2946V27.1297H117.648V25.2182H122.585Z" fill="#E6E6E6"/>
<path fill-rule="evenodd" clip-rule="evenodd" d="M133.133 28.8103V30.9367H124.562V20.3882H132.923V22.5128H127.359V24.6548H131.783V26.6527H127.359V28.8103H133.133Z" fill="#E6E6E6"/>
<path fill-rule="evenodd" clip-rule="evenodd" d="M144.671 30.9367H141.601L138.308 25.2316L137.505 23.6316H137.489L137.554 25.6155V30.9367H135.111V20.3882H138.181L141.474 26.0933L142.277 27.6915H142.294L142.23 25.7111V20.3882H144.671V30.9367Z" fill="#E6E6E6"/>
<path fill-rule="evenodd" clip-rule="evenodd" d="M97.8617 43.7926H96.7281L93.5642 38.936L92.7619 37.5075H92.7533L92.7972 38.6723V43.7926H91.9282V36.5405H93.0619L96.2119 41.3754L97.0261 42.8258H97.0386L96.9928 41.6608V36.5405H97.8617V43.7926Z" fill="#E6E6E6"/>
<path fill-rule="evenodd" clip-rule="evenodd" d="M105.114 42.9695V43.7926H99.51V36.5405H104.937V37.3655H100.448V39.7051H103.943V40.5302H100.448V42.9695H105.114Z" fill="#E6E6E6"/>
<path fill-rule="evenodd" clip-rule="evenodd" d="M111.707 37.3638H109.181V43.7926H108.301V37.3638H105.773V36.5405H111.707V37.3638Z" fill="#E6E6E6"/>
<path fill-rule="evenodd" clip-rule="evenodd" d="M115.638 43.7926H114.534L112.366 36.5405H113.323L115.094 43.0994L116.827 36.5405H117.84L119.576 43.1231L121.353 36.5405H122.255L120.096 43.7926H118.997L117.695 39.0896L117.315 37.4534H117.306L116.928 39.0896L115.638 43.7926Z" fill="#E6E6E6"/>
<path fill-rule="evenodd" clip-rule="evenodd" d="M124.613 37.9042C124.143 38.4519 123.908 39.2054 123.908 40.1666C123.908 41.1295 124.143 41.8831 124.613 42.4289C125.084 42.9768 125.727 43.2507 126.54 43.2507C127.355 43.2507 127.995 42.9768 128.465 42.4289C128.936 41.8831 129.171 41.1295 129.171 40.1666C129.171 39.2054 128.936 38.4519 128.465 37.9042C127.995 37.3565 127.355 37.0844 126.54 37.0844C125.727 37.0844 125.084 37.3565 124.613 37.9042ZM128.458 36.6942C129.005 37.0164 129.426 37.4728 129.723 38.0671C130.019 38.6595 130.166 39.3593 130.166 40.1666C130.166 40.9739 130.019 41.6737 129.723 42.2681C129.426 42.8604 129.005 43.3186 128.458 43.6407C127.915 43.9611 127.275 44.1223 126.54 44.1223C125.806 44.1223 125.166 43.9611 124.621 43.6407C124.076 43.3186 123.656 42.8604 123.359 42.2681C123.062 41.6737 122.914 40.9739 122.914 40.1666C122.914 39.3593 123.062 38.6595 123.359 38.0671C123.656 37.4728 124.076 37.0164 124.621 36.6942C125.166 36.372 125.806 36.2109 126.54 36.2109C127.275 36.2109 127.915 36.372 128.458 36.6942Z" fill="#E6E6E6"/>
<path fill-rule="evenodd" clip-rule="evenodd" d="M132.412 39.9569H134.366C135.445 39.9569 135.985 39.5257 135.985 38.6604C135.985 37.7966 135.445 37.3638 134.366 37.3638H132.412V39.9569ZM134.238 40.782H132.412V43.7926H131.485V36.5405H134.378C135.156 36.5405 135.78 36.7299 136.25 37.1102C136.721 37.4923 136.956 38.0095 136.956 38.6604C136.956 39.1744 136.805 39.6052 136.506 39.9569C136.204 40.3086 135.791 40.5503 135.268 40.6821L137.419 43.7926H136.319L134.238 40.782Z" fill="#E6E6E6"/>
<path fill-rule="evenodd" clip-rule="evenodd" d="M141.282 40.0396L139.967 41.4205V43.8601H139.078V36.2651H139.967V40.1777L143.668 36.2651H144.835L141.906 39.3615L144.87 43.8601H143.802L141.282 40.0396Z" fill="#E6E6E6"/>
<path fill-rule="evenodd" clip-rule="evenodd" d="M45.4993 5.77734L48.09 6.60173L48.0936 9.28365L45.5065 10.1151L43.9004 7.94799L45.4993 5.77734Z" fill="#E6E6E6"/>
<path fill-rule="evenodd" clip-rule="evenodd" d="M48.0906 6.60156L51.1878 22.9389L48.0942 9.28347L48.0906 6.60156Z" fill="#E6E6E6"/>
<path fill-rule="evenodd" clip-rule="evenodd" d="M43.9011 7.94824L45.5072 10.1153L51.188 22.9393L43.9011 7.94824Z" fill="#E6E6E6"/>
<path fill-rule="evenodd" clip-rule="evenodd" d="M45.5066 10.1151L48.0936 9.28369L51.1873 22.9391L45.5066 10.1151Z" fill="#E6E6E6"/>
<path fill-rule="evenodd" clip-rule="evenodd" d="M62.2195 26.4508L74.4307 15.019L72.8319 17.1897L62.2195 26.4508Z" fill="#E6E6E6"/>
<path fill-rule="evenodd" clip-rule="evenodd" d="M74.4306 15.0186L77.0213 15.8429L77.0249 18.5248L74.4359 19.3581L72.8315 17.1909L74.4306 15.0186Z" fill="#E6E6E6"/>
<path fill-rule="evenodd" clip-rule="evenodd" d="M52.8733 16.0928L54.1902 15.0649L55.5897 15.9831L55.1387 17.5752L53.4571 17.6442L52.8733 16.0928Z" fill="#E6E6E6"/>
<path fill-rule="evenodd" clip-rule="evenodd" d="M55.5894 15.9819L54.1917 22.4196L52.873 16.0916L53.4569 17.6431L55.1385 17.5758L55.5894 15.9819Z" fill="#E6E6E6"/>
<path fill-rule="evenodd" clip-rule="evenodd" d="M62.2195 26.4505L72.8319 17.1895L74.4363 19.3566L62.2195 26.4505Z" fill="#E6E6E6"/>
<path fill-rule="evenodd" clip-rule="evenodd" d="M60.9807 17.3964L62.6533 17.2124L63.3432 18.7196L62.1034 19.8342L60.6448 19.0169L60.9807 17.3964Z" fill="#E6E6E6"/>
<path fill-rule="evenodd" clip-rule="evenodd" d="M60.9806 17.396L60.6447 19.0165L62.1033 19.8338L63.3431 18.7193L59.0044 23.6426L60.9806 17.396Z" fill="#E6E6E6"/>
<path fill-rule="evenodd" clip-rule="evenodd" d="M74.4355 19.3573L77.0244 18.5259L62.219 26.4513L74.4355 19.3573Z" fill="#E6E6E6"/>
<path fill-rule="evenodd" clip-rule="evenodd" d="M41.9273 20.0856L43.5873 19.8237L44.3526 21.2956L43.1651 22.4685L41.6667 21.7202L41.9273 20.0856Z" fill="#E6E6E6"/>
<path fill-rule="evenodd" clip-rule="evenodd" d="M43.5869 19.8228L47.216 25.2768L41.6682 21.7192L43.1666 22.4675L44.3523 21.2964L43.5869 19.8228Z" fill="#E6E6E6"/>
<path fill-rule="evenodd" clip-rule="evenodd" d="M27.6318 30.0425L44.3345 32.153L30.2225 30.8669L27.6318 30.0425Z" fill="#E6E6E6"/>
<path fill-rule="evenodd" clip-rule="evenodd" d="M27.6319 30.0425L30.2226 30.8669L30.2261 33.5488L27.6373 34.3802L26.033 32.2131L27.6319 30.0425Z" fill="#E6E6E6"/>
<path fill-rule="evenodd" clip-rule="evenodd" d="M30.2231 30.8667L44.3334 32.1528L30.2267 33.5486L30.2231 30.8667Z" fill="#E6E6E6"/>
<path fill-rule="evenodd" clip-rule="evenodd" d="M64.0774 32.1231L70.5542 30.8423L68.9587 31.3553L68.9607 33.0112L70.5594 33.5189L64.0774 32.1231Z" fill="#E6E6E6"/>
<path fill-rule="evenodd" clip-rule="evenodd" d="M68.9583 31.3563L70.5554 30.8433L71.5436 32.1789L70.561 33.5199L68.9602 33.0122L68.9583 31.3563Z" fill="#E6E6E6"/>
<path fill-rule="evenodd" clip-rule="evenodd" d="M30.2268 33.5486L44.3352 32.1528L27.6379 34.3801L30.2268 33.5486Z" fill="#E6E6E6"/>
<path fill-rule="evenodd" clip-rule="evenodd" d="M38.1726 35.759L44.784 35.0903L39.017 38.3047L40.3752 37.33L39.8524 35.7573L38.1726 35.759Z" fill="#E6E6E6"/>
<path fill-rule="evenodd" clip-rule="evenodd" d="M38.1726 35.7591L39.8524 35.7573L40.3752 37.33L39.017 38.3048L37.657 37.3336L38.1726 35.7591Z" fill="#E6E6E6"/>
<path fill-rule="evenodd" clip-rule="evenodd" d="M40.0623 40.3519L46.2173 37.709L41.5911 42.5667L42.6206 41.2594L41.6755 39.892L40.0623 40.3519Z" fill="#E6E6E6"/>
<path fill-rule="evenodd" clip-rule="evenodd" d="M62.2368 37.8691L77.0676 45.7573L74.475 44.9312L62.2368 37.8691Z" fill="#E6E6E6"/>
<path fill-rule="evenodd" clip-rule="evenodd" d="M62.2368 37.8691L74.475 44.9312L72.8779 47.1036L62.2368 37.8691Z" fill="#E6E6E6"/>
<path fill-rule="evenodd" clip-rule="evenodd" d="M62.2368 37.8691L72.8779 47.1036L74.4806 49.2726L62.2368 37.8691Z" fill="#E6E6E6"/>
<path fill-rule="evenodd" clip-rule="evenodd" d="M40.0624 40.3519L41.6757 39.8921L42.6207 41.2594L41.5912 42.5668L40.0103 42.0061L40.0624 40.3519Z" fill="#E6E6E6"/>
<path fill-rule="evenodd" clip-rule="evenodd" d="M43.457 44.2659L48.3814 39.9492L45.5895 45.9269L46.1734 44.3753L44.8547 43.3475L43.457 44.2659Z" fill="#E6E6E6"/>
<path fill-rule="evenodd" clip-rule="evenodd" d="M51.2153 41.4136L48.1935 57.7598L48.1899 55.0778L51.2153 41.4136Z" fill="#E6E6E6"/>
<path fill-rule="evenodd" clip-rule="evenodd" d="M51.2154 41.4136L48.19 55.0778L45.5994 54.2534L51.2154 41.4136Z" fill="#E6E6E6"/>
<path fill-rule="evenodd" clip-rule="evenodd" d="M51.2155 41.4136L45.5994 54.2534L44.0005 56.4241L51.2155 41.4136Z" fill="#E6E6E6"/>
<path fill-rule="evenodd" clip-rule="evenodd" d="M57.3823 41.4038L60.7202 46.9764L59.7339 45.639L58.1333 46.1536L58.1369 47.8077L57.3823 41.4038Z" fill="#E6E6E6"/>
<path fill-rule="evenodd" clip-rule="evenodd" d="M54.2208 41.8574L55.624 48.2366L55.1012 46.6639L53.4232 46.6675L52.9058 48.2402L54.2208 41.8574Z" fill="#E6E6E6"/>
<path fill-rule="evenodd" clip-rule="evenodd" d="M43.457 44.2655L44.8547 43.3472L46.1734 44.375L45.5895 45.9266L43.9098 45.8594L43.457 44.2655Z" fill="#E6E6E6"/>
<path fill-rule="evenodd" clip-rule="evenodd" d="M74.476 44.9316L77.0667 45.7577L77.0703 48.438L74.4813 49.273L72.877 47.104L74.476 44.9316Z" fill="#E6E6E6"/>
<path fill-rule="evenodd" clip-rule="evenodd" d="M58.1333 46.1532L59.734 45.6387L60.7202 46.976L59.7376 48.317L58.1369 47.8074L58.1333 46.1532Z" fill="#E6E6E6"/>
<path fill-rule="evenodd" clip-rule="evenodd" d="M53.4225 46.6672L55.1022 46.6655L55.6251 48.2363L54.2668 49.2113L52.905 48.2419L53.4225 46.6672Z" fill="#E6E6E6"/>
<path fill-rule="evenodd" clip-rule="evenodd" d="M45.5994 54.2544L48.1901 55.0788L48.1937 57.7604L45.6066 58.5938L44.0005 56.4251L45.5994 54.2544Z" fill="#E6E6E6"/>
</g>
<defs>
<clipPath id="clip0-000312">
<rect width="119" height="53.072" fill="white" transform="translate(26.0002 5.5542)"/>
</clipPath>
</defs>
</svg>