<svg width="171" height="64" viewBox="0 0 171 64" fill="none" xmlns="http://www.w3.org/2000/svg">
<g clip-path="url(#clip0-728509)">
<path fill-rule="evenodd" clip-rule="evenodd" d="M17.7229 17.7358H46.719V29.8807C46.719 30.0781 46.7206 30.2916 46.7223 30.5192C46.7414 33.0328 46.7735 37.2655 44.7792 40.5558C42.0711 45.1058 37.0993 48.5906 32.26 49.0098L32.2211 49.0131L32.1822 49.0098C27.3059 48.5907 22.3332 45.1055 19.625 40.5543L19.624 40.5526C17.6681 37.2345 17.7003 33.0388 17.7195 30.528C17.7213 30.2973 17.7229 30.0809 17.7229 29.8807V17.7358ZM18.6285 18.6414V29.8807C18.6285 30.0831 18.6271 30.2982 18.6257 30.5244C18.6094 33.0631 18.584 37.0043 20.4037 40.092C22.9828 44.4256 27.6968 47.6989 32.2208 48.1041C36.7083 47.6989 41.4227 44.4256 44.0019 40.0912L44.0038 40.0879C45.8572 37.0316 45.8321 33.0582 45.8161 30.5142C45.8147 30.2916 45.8134 30.0799 45.8134 29.8807V18.6414H18.6285Z" fill="#E6E6E6"/>
<path d="M42.6997 21.6816H21.7422V27.99L37.95 40.2618L36.7258 41.346L21.7422 30.1092V32.8692C21.7422 41.5925 29.9685 44.8452 32.2209 44.8452C39.7617 43.8102 42.6018 37.4033 42.6018 34.1505L28.3037 23.4066H30.8989L42.6997 32.2777V21.6816Z" fill="#E6E6E6"/>
<path d="M49.6856 14.4752H49.2444V14.3281H50.3106V14.4752H49.8694V15.7988H49.6856V14.4752Z" fill="#E6E6E6"/>
<path d="M51.7813 15.137C51.7813 14.9164 51.7446 14.6958 51.7446 14.512C51.7078 14.6958 51.6343 14.8796 51.5607 15.0635L51.3034 15.7621H51.1563L50.9357 15.0635C50.8622 14.8796 50.8254 14.6958 50.7886 14.512C50.7886 14.6958 50.7886 14.9532 50.7519 15.1738L50.7151 15.7988H50.5312L50.6416 14.3281H50.8989L51.1563 15.0267C51.2298 15.2105 51.2666 15.3576 51.3034 15.5047C51.3401 15.3576 51.3769 15.2105 51.4504 15.0267L51.671 14.3281H51.9284L52.002 15.7988H51.8181L51.7813 15.137Z" fill="#E6E6E6"/>
<path d="M56.7817 36.7199C57.6641 37.2347 58.9142 37.7126 60.2378 37.7126C62.2233 37.7126 63.3631 36.6832 63.3631 35.1757C63.3631 33.7785 62.5542 32.9696 60.532 32.1975C58.1053 31.3151 56.5979 30.065 56.5979 27.9692C56.5979 25.6529 58.5098 23.9248 61.4144 23.9248C62.9586 23.9248 64.0617 24.2925 64.7235 24.6602L64.2087 26.2412C63.7308 25.9838 62.738 25.5426 61.3776 25.5426C59.3554 25.5426 58.5465 26.7559 58.5465 27.7854C58.5465 29.1826 59.4657 29.8812 61.5247 30.6533C64.0617 31.646 65.3485 32.8593 65.3485 35.0286C65.3485 37.345 63.6572 39.3304 60.1275 39.3304C58.6936 39.3304 57.1126 38.926 56.3037 38.3745L56.7817 36.7199Z" fill="#E6E6E6"/>
<path d="M77.1876 32.0505H71.3784V37.4554H77.8495V39.0731H69.4297V24.1455H77.4818V25.7633H71.3784V30.4695H77.1876V32.0505Z" fill="#E6E6E6"/>
<path d="M81.8203 39.0731V24.1455H83.9161L88.6959 31.7196C89.7989 33.4845 90.6813 35.0287 91.3799 36.573L91.4167 36.5362C91.2328 34.5507 91.196 32.7124 91.196 30.396V24.1455H92.9977V39.0731H91.049L86.306 31.499C85.2765 29.8445 84.2837 28.1164 83.5116 26.4986L83.4381 26.5354C83.5484 28.4105 83.5852 30.2122 83.5852 32.7124V39.1099H81.8203V39.0731Z" fill="#E6E6E6"/>
<path d="M100.756 25.7629H96.1965V24.1084H107.264V25.7629H102.704V39.0728H100.756V25.7629Z" fill="#E6E6E6"/>
<path d="M112.337 24.1455V39.0731H110.426V24.1455H112.337Z" fill="#E6E6E6"/>
<path d="M117.191 39.0731V24.1455H119.287L124.066 31.7196C125.169 33.4845 126.052 35.0287 126.75 36.573L126.787 36.5362C126.603 34.5507 126.567 32.7124 126.567 30.396V24.1455H128.368V39.0731H126.42L121.677 31.499C120.647 29.8445 119.654 28.1164 118.882 26.4986L118.809 26.5354C118.919 28.4105 118.956 30.2122 118.956 32.7124V39.1099H117.191V39.0731Z" fill="#E6E6E6"/>
<path d="M141.016 32.0505H135.207V37.4554H141.678V39.0731H133.258V24.1455H141.31V25.7633H135.17V30.4695H140.979V32.0505H141.016Z" fill="#E6E6E6"/>
<path d="M145.649 24.1455H147.561V37.4554H153.958V39.0731H145.649V24.1455Z" fill="#E6E6E6"/>
</g>
<defs>
<clipPath id="clip0-728509">
<rect width="136.261" height="34.6718" fill="white" transform="translate(17.6978 14.3281)"/>
</clipPath>
</defs>
</svg>