<svg width="172" height="64" viewBox="0 0 172 64" fill="none" xmlns="http://www.w3.org/2000/svg">
<path d="M106.964 26.8155C106.848 26.8155 106.673 26.7573 106.208 26.7573C105.802 26.7573 105.453 26.8155 105.104 26.8737C103.709 27.1647 102.779 27.9211 102.024 28.7358L102.024 27.1065H97.6067L97.6067 41.4211H102.024L102.024 35.4858C102.024 34.7875 102.082 34.1474 102.14 33.5655C102.198 32.9836 102.373 32.4599 102.663 32.0526C102.954 31.6453 103.302 31.2961 103.767 31.0634C104.232 30.8306 104.93 30.7142 105.743 30.7142C106.092 30.7142 106.383 30.7142 106.673 30.7724C106.964 30.8306 107.313 30.8888 107.603 31.0052L107.603 26.9901C107.429 26.9319 107.196 26.8737 106.964 26.8155Z" fill="#E6E6E6"/>
<path d="M118.763 26.8155C118.647 26.8155 118.472 26.7573 118.007 26.7573C117.6 26.7573 117.252 26.8155 116.903 26.8737C115.508 27.1647 114.578 27.9211 113.823 28.7358L113.823 27.1065H109.406L109.406 41.4211H113.823L113.823 35.4858C113.823 34.7875 113.881 34.1474 113.939 33.5655C113.997 32.9836 114.171 32.4599 114.462 32.0526C114.753 31.6453 115.101 31.2961 115.566 31.0634C116.031 30.8306 116.729 30.7142 117.542 30.7142C117.891 30.7142 118.182 30.7142 118.472 30.7724C118.763 30.8306 119.112 30.8888 119.402 31.0052L119.402 26.9901C119.228 26.9319 118.995 26.8737 118.763 26.8155Z" fill="#E6E6E6"/>
<path d="M72.2666 26.583H66.3384L66.3384 22.5098H82.7863L82.7863 26.583H76.858L76.858 41.4796H72.2666L72.2666 26.583Z" fill="#E6E6E6"/>
<path d="M95.1655 38.9771C94.4681 39.9081 93.5963 40.5482 92.492 41.0719C91.3878 41.5374 90.2835 41.8284 89.1211 41.8284C88.0168 41.8284 86.9707 41.6538 86.0407 41.3047C85.0527 40.9555 84.239 40.4318 83.4835 39.7917C82.786 39.1516 82.2048 38.337 81.798 37.406C81.3912 36.4749 81.1587 35.4275 81.1587 34.3219C81.1587 33.1581 81.3912 32.1689 81.798 31.2378C82.2048 30.3068 82.786 29.5503 83.4835 28.8521C84.1809 28.212 85.0527 27.6883 86.0407 27.3391C87.0288 26.99 88.0168 26.8154 89.1211 26.8154C90.1672 26.8154 91.039 26.99 91.9108 27.3391C92.7245 27.6883 93.4219 28.212 94.0031 28.8521C94.5843 29.4922 95.0493 30.3068 95.3399 31.2378C95.6305 32.1689 95.8049 33.2163 95.8049 34.3219L95.8049 35.7185H85.5758C85.7501 36.5913 86.157 37.2314 86.7382 37.7551C87.3194 38.2788 88.0749 38.5116 88.8886 38.5116C89.5861 38.5116 90.2254 38.337 90.7484 38.046C91.2715 37.6969 91.6784 37.2896 92.0852 36.7659L95.1655 38.9771ZM91.4459 32.6926C91.4459 31.9361 91.2134 31.296 90.6903 30.7723C90.1672 30.2486 89.5279 29.9577 88.7143 29.9577C88.2493 29.9577 87.7843 30.0159 87.4356 30.1904C87.0869 30.365 86.7382 30.5396 86.5057 30.7723C86.2151 31.0051 86.0407 31.296 85.8664 31.6452C85.692 31.9943 85.6339 32.2853 85.6339 32.6344H91.4459L91.4459 32.6926Z" fill="#E6E6E6"/>
<path d="M119.925 37.3478C119.925 34.0891 122.424 32.6344 125.911 32.6344C127.422 32.6344 128.527 32.8672 129.573 33.2163L129.573 32.9835C129.573 31.296 128.468 30.3068 126.376 30.3068C124.749 30.3068 123.644 30.5978 122.25 31.1215L121.203 27.9792C122.831 27.2809 124.458 26.8154 127.015 26.8154C129.34 26.8154 130.968 27.3973 132.072 28.4447C133.176 29.5503 133.699 31.1215 133.699 33.0999L133.699 41.5374H129.631L129.631 39.9663C128.585 41.0719 127.19 41.8284 125.097 41.8284C122.191 41.8284 119.925 40.2573 119.925 37.3478ZM129.631 36.4167L129.631 36.184C129.631 35.893 129.456 35.6021 129.108 35.4857C128.468 35.2529 127.713 35.1366 126.899 35.1366C125.097 35.1366 123.993 35.8348 123.993 37.1732L123.993 37.2314C123.993 38.337 124.923 38.9771 126.318 38.9771C128.294 38.9771 129.631 37.9297 129.631 36.4167Z" fill="#E6E6E6"/>
<path opacity="0.4" d="M48.4373 39.0351C49.1348 41.5955 51.5758 43.5157 52.8544 43.4575C52.9125 43.4575 57.5621 42.5847 60.1775 38.2786C62.1536 34.9618 61.5143 31.7032 58.7826 31.645C57.7946 31.7032 47.1587 34.1472 48.4373 39.0351Z" fill="#E6E6E6"/>
<path opacity="0.4" d="M58.492 22.6252C56.4578 20.8213 53.7261 19.7739 50.762 19.7739C49.0184 19.7739 47.3911 20.1231 45.9381 20.8213C45.6475 20.9377 45.415 21.0541 45.1825 21.1705C45.0082 21.2869 44.8338 21.345 44.6595 21.4614H44.7176C44.2526 21.8106 43.7877 22.2179 43.439 22.6834C40.0099 27.2222 51.5176 30.4808 57.6202 30.539C60.468 32.5175 61.2817 24.7782 58.492 22.6252Z" fill="#E6E6E6"/>
<path d="M46.6357 22.7415C45.0664 25.1273 39.8357 26.7566 38.9639 26.5239C39.022 26.4657 39.022 26.4075 39.0801 26.2911C39.3707 25.7092 39.7194 25.1855 40.1263 24.6618C40.5331 24.1381 40.9399 23.6726 41.4049 23.2071C41.8699 22.7415 42.3348 22.3342 42.8579 21.9269C43.2066 21.6941 43.4972 21.4614 43.8459 21.2868C44.6015 20.8795 45.357 20.8213 45.5895 20.8213C47.8562 20.8213 46.6357 22.6834 46.6357 22.7415Z" fill="#E6E6E6"/>
<path d="M45.3569 39.4998C45.4731 40.2562 45.3569 43.1657 45.1825 43.4567C45.0663 43.4567 44.7757 43.4567 43.962 43.0493C43.5552 42.8166 43.1483 42.5256 42.7415 42.2929C42.2184 41.8855 41.7535 41.4782 41.2885 41.0127C40.8236 40.5472 40.4167 40.0817 40.0099 39.5579C39.603 39.0342 39.3124 38.5105 38.9637 37.9286C38.6731 37.3467 38.3825 36.7648 38.2082 36.1248C38.0338 35.4847 37.8594 34.8446 37.7432 34.2045C37.627 33.5644 37.5688 32.8661 37.5688 32.1679C37.5688 31.4696 37.627 30.7713 37.7432 30.1312C37.8594 29.4911 38.0338 28.7929 38.2082 28.211C38.2663 28.0946 38.2663 27.9782 38.3244 27.8618C39.2543 29.0838 40.3005 30.1894 41.1723 31.3532C42.0441 32.517 43.2065 34.3791 43.4389 34.7864C45.0082 37.1722 45.2406 38.7433 45.3569 39.4998Z" fill="#E6E6E6"/>
<path d="M62.7927 32.0523C62.7927 33.6817 62.5021 35.2528 61.9209 36.6493C60.4679 38.2205 50.4714 34.3217 50.3551 34.2636C48.9602 33.6817 44.8337 31.8196 44.485 28.9683C43.9619 24.8368 52.2731 21.9855 55.9346 21.8691C56.3996 21.8691 57.7363 21.8691 58.4919 22.5092C61.1073 24.895 62.7927 28.27 62.7927 32.0523Z" fill="#E6E6E6"/>
<path d="M56.0511 43.2243C54.9468 43.748 53.7844 43.3407 54.075 42.2933C54.6562 40.2566 59.887 38.1618 61.0494 38.0454C61.1656 38.0454 61.2237 38.1036 61.1656 38.22C59.9451 40.373 58.2015 42.1187 56.0511 43.2243Z" fill="#E6E6E6"/>
</svg>